<svg width="22" height="20" viewBox="0 0 22 20" fill="none" xmlns="http://www.w3.org/2000/svg">
<path opacity="0.5" d="M4.03 15.9339V6.39895C4.03 5.55609 4.36482 4.74775 4.96081 4.15176C5.5568 3.55577 6.36514 3.22094 7.208 3.22094H4.824C4.40665 3.22094 3.9934 3.30315 3.60783 3.46286C3.22226 3.62257 2.87192 3.85666 2.57681 4.15176C2.28171 4.44687 2.04762 4.7972 1.88791 5.18277C1.7282 5.56835 1.646 5.9816 1.646 6.39895V15.9339C1.646 16.3513 1.7282 16.7645 1.88791 17.1501C2.04762 17.5357 2.28171 17.886 2.57681 18.1811C2.87192 18.4762 3.22226 18.7103 3.60783 18.87C3.9934 19.0297 4.40665 19.1119 4.824 19.1119H7.208C6.36514 19.1119 5.5568 18.7771 4.96081 18.1811C4.36482 17.5851 4.03 16.7768 4.03 15.9339Z" fill="#516E95"/>
<path d="M17.219 2.42595H16.424V1.63095C16.4166 1.42511 16.3297 1.23014 16.1815 1.0871C16.0333 0.94407 15.8354 0.864136 15.6295 0.864136C15.4235 0.864136 15.2256 0.94407 15.0774 1.0871C14.9292 1.23014 14.8423 1.42511 14.835 1.63095V2.42595H7.20795V1.63095C7.20065 1.42511 7.11374 1.23014 6.96555 1.0871C6.81735 0.94407 6.61942 0.864136 6.41345 0.864136C6.20749 0.864136 6.00956 0.94407 5.86136 1.0871C5.71316 1.23014 5.62626 1.42511 5.61895 1.63095V2.42595H4.82395C3.77057 2.427 2.76064 2.84593 2.01579 3.59078C1.27093 4.33563 0.852011 5.34556 0.850952 6.39894V15.9369C0.852805 16.9898 1.27208 17.999 2.01684 18.7432C2.76161 19.4874 3.77109 19.9059 4.82395 19.9069H17.224C18.2759 19.9046 19.2841 19.4855 20.0278 18.7414C20.7715 17.9973 21.1901 16.9889 21.192 15.9369V6.39894C21.1909 5.34556 20.772 4.33563 20.0271 3.59078C19.2823 2.84593 18.2723 2.427 17.219 2.42595ZM19.603 15.9369C19.6024 16.5691 19.3511 17.1751 18.9041 17.6221C18.4571 18.0691 17.8511 18.3204 17.219 18.3209H4.82395C4.19184 18.3204 3.58577 18.0691 3.13879 17.6221C2.69182 17.1751 2.44048 16.5691 2.43995 15.9369V6.39894C2.44048 5.76683 2.69182 5.16076 3.13879 4.71379C3.58577 4.26682 4.19184 4.01547 4.82395 4.01494H17.224C17.8561 4.01547 18.4621 4.26682 18.9091 4.71379C19.3561 5.16076 19.6074 5.76683 19.608 6.39894L19.603 15.9369Z" fill="#516E95"/>
<path d="M11.816 8.78295H10.227C10.1203 8.78673 10.0139 8.76898 9.91423 8.73076C9.81453 8.69254 9.72356 8.63462 9.64673 8.56047C9.5699 8.48632 9.50879 8.39746 9.46706 8.29918C9.42532 8.2009 9.40381 8.09521 9.40381 7.98844C9.40381 7.88166 9.42532 7.77599 9.46706 7.67771C9.50879 7.57943 9.5699 7.49056 9.64673 7.41641C9.72356 7.34226 9.81453 7.28435 9.91423 7.24613C10.0139 7.2079 10.1203 7.19015 10.227 7.19394H11.816C11.9227 7.19015 12.0291 7.2079 12.1288 7.24613C12.2285 7.28435 12.3195 7.34226 12.3963 7.41641C12.4731 7.49056 12.5342 7.57943 12.576 7.67771C12.6177 7.77599 12.6392 7.88166 12.6392 7.98844C12.6392 8.09521 12.6177 8.2009 12.576 8.29918C12.5342 8.39746 12.4731 8.48632 12.3963 8.56047C12.3195 8.63462 12.2285 8.69254 12.1288 8.73076C12.0291 8.76898 11.9227 8.78673 11.816 8.78295Z" fill="#516E95"/>
<path d="M17.219 8.78297H15.63C15.4241 8.77567 15.2292 8.68876 15.0861 8.54056C14.9431 8.39236 14.8632 8.19443 14.8632 7.98846C14.8632 7.7825 14.9431 7.58457 15.0861 7.43637C15.2292 7.28817 15.4241 7.20127 15.63 7.19397H17.219C17.4248 7.20127 17.6198 7.28817 17.7628 7.43637C17.9058 7.58457 17.9858 7.7825 17.9858 7.98846C17.9858 8.19443 17.9058 8.39236 17.7628 8.54056C17.6198 8.68876 17.4248 8.77567 17.219 8.78297Z" fill="#516E95"/>
<path d="M6.41293 11.9609H4.82392C4.71721 11.9647 4.61084 11.947 4.51114 11.9088C4.41144 11.8705 4.32046 11.8126 4.24364 11.7385C4.16681 11.6643 4.10571 11.5755 4.06397 11.4772C4.02224 11.3789 4.00073 11.2732 4.00073 11.1665C4.00073 11.0597 4.02224 10.954 4.06397 10.8557C4.10571 10.7574 4.16681 10.6686 4.24364 10.5944C4.32046 10.5203 4.41144 10.4624 4.51114 10.4241C4.61084 10.3859 4.71721 10.3682 4.82392 10.372H6.41293C6.61876 10.3793 6.81373 10.4662 6.95676 10.6144C7.0998 10.7626 7.17973 10.9605 7.17973 11.1665C7.17973 11.3724 7.0998 11.5703 6.95676 11.7185C6.81373 11.8667 6.61876 11.9536 6.41293 11.9609Z" fill="#516E95"/>
<path d="M11.816 11.9609H10.227C10.1203 11.9647 10.0139 11.947 9.91423 11.9088C9.81453 11.8705 9.72356 11.8126 9.64673 11.7385C9.5699 11.6643 9.50879 11.5755 9.46706 11.4772C9.42532 11.3789 9.40381 11.2732 9.40381 11.1665C9.40381 11.0597 9.42532 10.954 9.46706 10.8557C9.50879 10.7574 9.5699 10.6686 9.64673 10.5944C9.72356 10.5203 9.81453 10.4624 9.91423 10.4241C10.0139 10.3859 10.1203 10.3682 10.227 10.372H11.816C12.0218 10.3793 12.2168 10.4662 12.3598 10.6144C12.5029 10.7626 12.5828 10.9605 12.5828 11.1665C12.5828 11.3724 12.5029 11.5703 12.3598 11.7185C12.2168 11.8667 12.0218 11.9536 11.816 11.9609Z" fill="#516E95"/>
<path d="M17.219 11.9609H15.63C15.4241 11.9536 15.2292 11.8667 15.0861 11.7185C14.9431 11.5703 14.8632 11.3724 14.8632 11.1664C14.8632 10.9605 14.9431 10.7625 15.0861 10.6143C15.2292 10.4661 15.4241 10.3793 15.63 10.3719H17.219C17.4248 10.3793 17.6198 10.4661 17.7628 10.6143C17.9058 10.7625 17.9858 10.9605 17.9858 11.1664C17.9858 11.3724 17.9058 11.5703 17.7628 11.7185C17.6198 11.8667 17.4248 11.9536 17.219 11.9609Z" fill="#516E95"/>
<path d="M6.41294 15.14H4.82394C4.6181 15.1327 4.42313 15.0458 4.2801 14.8976C4.13706 14.7494 4.05713 14.5515 4.05713 14.3455C4.05713 14.1396 4.13706 13.9416 4.2801 13.7934C4.42313 13.6452 4.6181 13.5583 4.82394 13.551H6.41294C6.61878 13.5583 6.81375 13.6452 6.95678 13.7934C7.09981 13.9416 7.17975 14.1396 7.17975 14.3455C7.17975 14.5515 7.09981 14.7494 6.95678 14.8976C6.81375 15.0458 6.61878 15.1327 6.41294 15.14Z" fill="#516E95"/>
<path d="M11.816 15.14H10.227C10.1203 15.1438 10.0139 15.1261 9.91423 15.0878C9.81453 15.0496 9.72356 14.9917 9.64673 14.9176C9.5699 14.8434 9.50879 14.7545 9.46706 14.6563C9.42532 14.558 9.40381 14.4523 9.40381 14.3455C9.40381 14.2388 9.42532 14.1331 9.46706 14.0348C9.50879 13.9365 9.5699 13.8477 9.64673 13.7735C9.72356 13.6994 9.81453 13.6414 9.91423 13.6032C10.0139 13.565 10.1203 13.5473 10.227 13.551H11.816C12.0218 13.5583 12.2168 13.6452 12.3598 13.7934C12.5029 13.9416 12.5828 14.1396 12.5828 14.3455C12.5828 14.5515 12.5029 14.7494 12.3598 14.8976C12.2168 15.0458 12.0218 15.1327 11.816 15.14Z" fill="#516E95"/>
</svg>
