<svg width="53" height="41" viewBox="0 0 53 41" fill="none" xmlns="http://www.w3.org/2000/svg">
<path d="M46.213 13.648C44.9191 10.1891 42.7352 7.13294 39.8819 4.78835C37.0286 2.44376 33.6071 0.89377 29.963 0.294988C29.8348 0.245951 29.6999 0.216291 29.563 0.206987C29.471 0.206987 29.371 0.206988 29.278 0.198988C24.5574 -0.457172 19.7543 0.518355 15.6637 2.96409C11.5731 5.40982 8.44033 9.1791 6.78397 13.648C5.00233 13.7007 3.31134 14.4455 2.06976 15.7244C0.828187 17.0033 0.133728 18.7156 0.133728 20.498C0.133728 22.2804 0.828187 23.9927 2.06976 25.2716C3.31134 26.5504 5.00233 27.2953 6.78397 27.348C7.82793 30.1329 9.45056 32.6648 11.5448 34.7766C13.6391 36.8885 16.1573 38.5322 18.9334 39.5994C21.7096 40.6666 24.6804 41.1329 27.65 40.9677C30.6196 40.8025 33.5204 40.0095 36.161 38.641C35.4787 38.0499 34.8434 37.4067 34.261 36.717C31.8885 37.8204 29.3084 38.4066 26.692 38.4366C24.0757 38.4667 21.4828 37.9399 19.0856 36.8913C16.6884 35.8427 14.5416 34.2962 12.7878 32.3544C11.0339 30.4127 9.71309 28.1202 8.91297 25.629L8.59097 24.572L7.49897 24.736C7.28991 24.7692 7.07865 24.7865 6.86697 24.788C5.72933 24.788 4.63828 24.3361 3.83384 23.5316C3.0294 22.7272 2.57747 21.6361 2.57747 20.4985C2.57747 19.3608 3.0294 18.2698 3.83384 17.4654C4.63828 16.6609 5.72933 16.209 6.86697 16.209C7.0793 16.2116 7.29116 16.2293 7.50097 16.262L8.59198 16.423L8.91297 15.367C9.6989 12.8646 11.0176 10.5623 12.7785 8.61828C14.5393 6.67431 16.7003 5.1349 19.113 4.10599C18.038 6.48599 19.497 9.41899 21.93 10.564C24.961 11.991 29.865 12.175 31.93 9.07399C32.862 7.67399 32.03 5.90799 30.908 4.95199C30.1069 4.32101 29.1517 3.91546 28.1414 3.77727C27.131 3.63909 26.1021 3.77328 25.161 4.16599C23.643 4.76599 24.304 7.24799 25.843 6.63899C26.347 6.40261 26.9001 6.28949 27.4565 6.30896C28.0129 6.32844 28.5567 6.47995 29.043 6.75099C30.51 7.55799 29.158 8.47899 28.133 8.77399C27.0688 9.04939 25.9562 9.08091 24.8781 8.8662C23.8001 8.65149 22.7844 8.19609 21.907 7.53399C20.021 5.84099 22.45 3.91799 23.954 3.39299C25.6157 2.86534 27.3608 2.65005 29.101 2.75799C32.5351 3.22992 35.7653 4.66475 38.4178 6.89639C41.0703 9.12803 43.0366 12.0652 44.089 15.368L44.411 16.424L45.502 16.263C46.1145 16.1658 46.7409 16.2026 47.3379 16.3708C47.9348 16.539 48.4882 16.8347 48.9599 17.2375C49.4316 17.6402 49.8103 18.1404 50.07 18.7037C50.3297 19.2669 50.4642 19.8798 50.4642 20.5C50.4642 21.1202 50.3297 21.7331 50.07 22.2963C49.8103 22.8595 49.4316 23.3598 48.9599 23.7625C48.4882 24.1653 47.9348 24.4609 47.3379 24.6292C46.7409 24.7974 46.1145 24.8342 45.502 24.737L44.413 24.574L44.091 25.631C43.976 26.006 43.841 26.373 43.702 26.737C44.0977 26.6424 44.5031 26.5941 44.91 26.593C45.7901 26.5918 46.6567 26.8093 47.432 27.226C49.0991 26.905 50.5877 25.9764 51.6091 24.6202C52.6305 23.2641 53.112 21.5769 52.9602 19.886C52.8084 18.195 52.0341 16.6206 50.7875 15.4681C49.5408 14.3155 47.9106 13.6669 46.213 13.648Z" fill="#1D3A62"/>
<path d="M21.087 19.61C20.6463 19.6285 20.2297 19.8165 19.9244 20.1349C19.6191 20.4533 19.4486 20.8774 19.4486 21.3185C19.4486 21.7596 19.6191 22.1837 19.9244 22.5021C20.2297 22.8204 20.6463 23.0085 21.087 23.027C21.5277 23.0085 21.9443 22.8204 22.2496 22.5021C22.5549 22.1837 22.7254 21.7596 22.7254 21.3185C22.7254 20.8774 22.5549 20.4533 22.2496 20.1349C21.9443 19.8165 21.5277 19.6285 21.087 19.61Z" fill="#1D3A62"/>
<path d="M31.911 19.396C31.4678 19.4112 31.0479 19.5979 30.7398 19.9167C30.4317 20.2355 30.2595 20.6616 30.2595 21.105C30.2595 21.5484 30.4317 21.9745 30.7398 22.2933C31.0479 22.6121 31.4678 22.7988 31.911 22.814C32.3541 22.7988 32.774 22.6121 33.0822 22.2933C33.3903 21.9745 33.5625 21.5484 33.5625 21.105C33.5625 20.6616 33.3903 20.2355 33.0822 19.9167C32.774 19.5979 32.3541 19.4112 31.911 19.396Z" fill="#1D3A62"/>
<path d="M26.5 31.608C27.8362 31.6064 29.1174 31.0749 30.0624 30.1301C31.0074 29.1853 31.5391 27.9043 31.541 26.568C31.5316 26.2343 31.3925 25.9174 31.1532 25.6847C30.9139 25.452 30.5932 25.3218 30.2594 25.3218C29.9256 25.3218 29.605 25.452 29.3657 25.6847C29.1264 25.9174 28.9873 26.2343 28.9779 26.568C28.9779 27.2249 28.717 27.855 28.2525 28.3195C27.7879 28.784 27.1579 29.045 26.5009 29.045C25.844 29.045 25.214 28.784 24.7494 28.3195C24.2849 27.855 24.0239 27.2249 24.0239 26.568C24.0287 26.3967 23.9991 26.2262 23.9369 26.0665C23.8746 25.9068 23.781 25.7613 23.6615 25.6384C23.5421 25.5156 23.3992 25.4179 23.2413 25.3512C23.0834 25.2845 22.9138 25.2502 22.7424 25.2502C22.5711 25.2502 22.4014 25.2845 22.2436 25.3512C22.0857 25.4179 21.9428 25.5156 21.8234 25.6384C21.7039 25.7613 21.6103 25.9068 21.548 26.0665C21.4858 26.2262 21.4562 26.3967 21.4609 26.568C21.4623 27.9041 21.9935 29.1851 22.9382 30.13C23.8829 31.0749 25.1638 31.6064 26.5 31.608Z" fill="#1D3A62"/>
<path d="M41.224 28.921C36.055 25.956 28.971 34.264 41.224 40.548C53.605 34.197 46.234 26.049 41.224 28.921ZM41.224 37.64C35.104 34.01 36.8179 30.886 38.9709 30.886C39.9779 30.886 40.471 31.564 41.224 32.275C41.972 31.566 42.47 30.887 43.477 30.887C45.373 30.886 47.595 33.851 41.224 37.64Z" fill="#1D3A62"/>
</svg>
