<svg width="17" height="19" viewBox="0 0 17 19" fill="none" xmlns="http://www.w3.org/2000/svg">
<path d="M13.92 12.1278V7.59976C13.9299 6.85998 13.7928 6.12559 13.5165 5.43925C13.2402 4.75291 12.8304 4.12828 12.3107 3.60164C11.7911 3.075 11.172 2.65683 10.4894 2.37141C9.80685 2.086 9.07437 1.93903 8.33451 1.93903C7.59466 1.93903 6.86218 2.086 6.17959 2.37141C5.49701 2.65683 4.87792 3.075 4.35828 3.60164C3.83864 4.12828 3.42879 4.75291 3.15253 5.43925C2.87628 6.12559 2.73911 6.85998 2.74901 7.59976V12.1278L0.515015 16.6558H5.59801C5.71966 17.2924 6.05948 17.8667 6.55896 18.2798C7.05845 18.6929 7.68634 18.9189 8.33451 18.9189C8.98269 18.9189 9.61058 18.6929 10.1101 18.2798C10.6096 17.8667 10.9494 17.2924 11.071 16.6558H16.158L13.92 12.1278ZM8.33501 17.7878C7.98717 17.7867 7.64831 17.6772 7.36564 17.4745C7.08297 17.2717 6.87056 16.9859 6.75801 16.6568H9.90801C9.79573 16.9854 9.58397 17.2709 9.30211 17.4737C9.02026 17.6766 8.68226 17.7867 8.33501 17.7888V17.7878ZM2.19102 15.5238L3.86701 12.1238V7.59976C3.85815 7.00733 3.96718 6.41904 4.18777 5.86913C4.40835 5.31922 4.73609 4.81866 5.15191 4.39658C5.56772 3.97449 6.06332 3.63931 6.60987 3.41052C7.15642 3.18174 7.74301 3.06392 8.33551 3.06392C8.92802 3.06392 9.51461 3.18174 10.0612 3.41052C10.6077 3.63931 11.1033 3.97449 11.5191 4.39658C11.9349 4.81866 12.2627 5.31922 12.4833 5.86913C12.7038 6.41904 12.8129 7.00733 12.804 7.59976V12.1278L14.48 15.5278H2.19102V15.5238Z" fill="#1479FF"/>
<path d="M13 6.92676C14.933 6.92676 16.5 5.58361 16.5 3.92676C16.5 2.2699 14.933 0.926758 13 0.926758C11.067 0.926758 9.5 2.2699 9.5 3.92676C9.5 5.58361 11.067 6.92676 13 6.92676Z" fill="#E32940"/>
</svg>
