<svg width="19" height="16" viewBox="0 0 19 16" fill="none" xmlns="http://www.w3.org/2000/svg">
<path d="M9.52303 11.3938C11.0352 11.3938 12.261 10.168 12.261 8.65585C12.261 7.14369 11.0352 5.91785 9.52303 5.91785C8.01088 5.91785 6.78503 7.14369 6.78503 8.65585C6.78503 10.168 8.01088 11.3938 9.52303 11.3938Z" fill="white"/>
<path d="M6.95604 0.0998535L5.39004 1.81085H2.67804C2.22466 1.81217 1.79023 1.99286 1.46964 2.31345C1.14905 2.63404 0.96836 3.06847 0.967041 3.52185V13.7889C0.96836 14.2422 1.14905 14.6767 1.46964 14.9973C1.79023 15.3178 2.22466 15.4985 2.67804 15.4999H16.367C16.8204 15.4985 17.2549 15.3178 17.5754 14.9973C17.896 14.6767 18.0767 14.2422 18.078 13.7889V3.52185C18.0767 3.06847 17.896 2.63404 17.5754 2.31345C17.2549 1.99286 16.8204 1.81217 16.367 1.81085H13.655L12.089 0.0998535H6.95604ZM9.52304 12.9329C8.67693 12.9329 7.84983 12.682 7.14631 12.2119C6.4428 11.7418 5.89448 11.0737 5.57068 10.292C5.24689 9.51027 5.16217 8.65011 5.32724 7.82026C5.49231 6.99041 5.89975 6.22814 6.49804 5.62985C7.09633 5.03156 7.85859 4.62412 8.68845 4.45905C9.5183 4.29399 10.3785 4.37871 11.1602 4.7025C11.9419 5.02629 12.61 5.57461 13.0801 6.27812C13.5501 6.98164 13.801 7.80875 13.801 8.65485C13.8008 9.78937 13.35 10.8773 12.5478 11.6796C11.7455 12.4818 10.6576 12.9326 9.52304 12.9329Z" fill="white"/>
</svg>
