<svg width="29" height="37" viewBox="0 0 29 37" fill="none" xmlns="http://www.w3.org/2000/svg">
<circle cx="20.5955" cy="9.09546" r="8.27441" fill="#516E95"/>
<path d="M18.4 12C18.4 11.72 18.4233 11.4633 18.47 11.23C18.5167 10.99 18.5967 10.7633 18.71 10.55C18.83 10.3367 18.9933 10.1367 19.2 9.95C19.4133 9.75667 19.6833 9.57333 20.01 9.4C20.2433 9.26667 20.4633 9.15 20.67 9.05C20.8767 8.94333 21.06 8.84 21.22 8.74C21.38 8.63333 21.5033 8.52 21.59 8.4C21.6833 8.28 21.73 8.14333 21.73 7.99C21.73 7.84333 21.69 7.70667 21.61 7.58C21.53 7.45333 21.41 7.35333 21.25 7.28C21.09 7.2 20.8967 7.16 20.67 7.16C20.49 7.16 20.3233 7.18333 20.17 7.23C20.0233 7.27667 19.8867 7.34 19.76 7.42C19.64 7.49333 19.53 7.57667 19.43 7.67C19.33 7.75667 19.2433 7.84333 19.17 7.93L18.48 7.14C18.5467 7.06 18.65 6.97 18.79 6.87C18.9367 6.76333 19.11 6.66 19.31 6.56C19.5167 6.45333 19.75 6.36667 20.01 6.3C20.27 6.22667 20.5533 6.19 20.86 6.19C21.2933 6.19 21.6633 6.26333 21.97 6.41C22.2767 6.55 22.51 6.74667 22.67 7C22.8367 7.24667 22.92 7.52667 22.92 7.84C22.92 8.08667 22.87 8.30333 22.77 8.49C22.6767 8.67667 22.5533 8.84333 22.4 8.99C22.2467 9.13 22.0833 9.25333 21.91 9.36C21.7433 9.46 21.5867 9.55 21.44 9.63C21.18 9.75667 20.9533 9.87333 20.76 9.98C20.5733 10.0867 20.4133 10.1933 20.28 10.3C20.1467 10.4 20.0367 10.5067 19.95 10.62C19.8633 10.7267 19.79 10.8567 19.73 11.01H23.03V12H18.4Z" fill="white"/>
<path opacity="0.5" d="M3.10579 27.869C3.08801 25.8201 3.81793 23.8349 5.15879 22.2854C6.49966 20.736 8.35947 19.7286 10.3898 19.452C10.0184 19.4034 9.64431 19.379 9.26979 19.379C8.15953 19.3819 7.06077 19.6041 6.03661 20.0328C5.01245 20.4615 4.08306 21.0882 3.30181 21.8771C2.52055 22.666 1.90282 23.6014 1.48409 24.6297C1.06536 25.658 0.85388 26.7588 0.861786 27.869V36.194L1.00079 36.055C1.57378 35.4873 2.30644 35.1081 3.10079 34.968L3.10579 27.869Z" fill="#516E95"/>
<path d="M0.860899 36.907C0.671973 36.9068 0.490875 36.8315 0.357378 36.6979C0.223881 36.5642 0.148899 36.383 0.148899 36.194V27.872C0.140599 26.668 0.370201 25.4742 0.824523 24.3591C1.27885 23.2441 1.94894 22.2297 2.79634 21.3743C3.64373 20.519 4.65174 19.8394 5.76249 19.3746C6.87323 18.9098 8.06484 18.669 9.2689 18.666C10.4749 18.6633 11.6695 18.9003 12.7831 19.3633C13.8967 19.8263 14.9072 20.506 15.7558 21.363C16.6043 22.22 17.2741 23.2371 17.7262 24.3552C18.1782 25.4733 18.4035 26.6701 18.3889 27.876C18.3631 30.2843 17.3866 32.5849 15.6721 34.2764C13.9577 35.968 11.6443 36.9135 9.2359 36.907H9.2269C7.81118 36.9125 6.41409 36.5843 5.1489 35.949C4.55393 35.6538 3.88099 35.5537 3.22585 35.663C2.57071 35.7724 1.96674 36.0856 1.4999 36.558L1.3609 36.697C1.2283 36.8299 1.0486 36.905 0.860899 36.906V36.907ZM3.7609 34.194C4.46752 34.1939 5.16439 34.359 5.7959 34.676C6.86212 35.2106 8.03919 35.4867 9.2319 35.482H9.2389C11.2682 35.4799 13.2154 34.6803 14.6606 33.2555C16.1057 31.8308 16.9329 29.8951 16.9639 27.866C16.9817 26.3341 16.5412 24.8318 15.699 23.552C14.8569 22.2721 13.6514 21.2732 12.2375 20.6834C10.8235 20.0935 9.26555 19.9397 7.76355 20.2417C6.26155 20.5437 4.88406 21.2876 3.8079 22.378C3.0888 23.0979 2.52075 23.9542 2.13712 24.8966C1.75349 25.839 1.562 26.8486 1.5739 27.866C1.5739 27.866 1.5739 27.866 1.5739 27.873V34.751C2.24437 34.3883 2.99461 34.1983 3.7569 34.198L3.7609 34.194Z" fill="#516E95"/>
<path d="M7.13089 27.787C7.13089 27.9633 7.07863 28.1355 6.98073 28.2821C6.88282 28.4286 6.74367 28.5428 6.58086 28.6102C6.41805 28.6777 6.23889 28.6953 6.06606 28.6609C5.89322 28.6265 5.73446 28.5417 5.60985 28.4171C5.48524 28.2925 5.40038 28.1337 5.366 27.9609C5.33162 27.788 5.34926 27.6089 5.4167 27.4461C5.48414 27.2833 5.59835 27.1441 5.74487 27.0462C5.8914 26.9483 6.06366 26.896 6.23988 26.896C6.47619 26.896 6.70282 26.9899 6.86992 27.157C7.03701 27.3241 7.13089 27.5507 7.13089 27.787ZM9.30388 26.896C9.12766 26.896 8.95539 26.9483 8.80887 27.0462C8.66234 27.1441 8.54815 27.2833 8.48071 27.4461C8.41328 27.6089 8.39563 27.788 8.43001 27.9609C8.46439 28.1337 8.54925 28.2925 8.67386 28.4171C8.79847 28.5417 8.95723 28.6265 9.13007 28.6609C9.3029 28.6953 9.48204 28.6777 9.64485 28.6102C9.80766 28.5428 9.94682 28.4286 10.0447 28.2821C10.1426 28.1355 10.1949 27.9633 10.1949 27.787C10.1949 27.5509 10.1011 27.3244 9.93427 27.1574C9.76739 26.9903 9.54102 26.8963 9.30489 26.896H9.30388ZM12.3679 26.896C12.1917 26.896 12.0194 26.9483 11.8729 27.0462C11.7263 27.1441 11.6121 27.2833 11.5447 27.4461C11.4773 27.6089 11.4596 27.788 11.494 27.9609C11.5284 28.1337 11.6132 28.2925 11.7379 28.4171C11.8625 28.5417 12.0212 28.6265 12.1941 28.6609C12.3669 28.6953 12.5461 28.6777 12.7089 28.6102C12.8717 28.5428 13.0108 28.4286 13.1087 28.2821C13.2066 28.1355 13.2589 27.9633 13.2589 27.787C13.2589 27.5507 13.165 27.3241 12.9979 27.157C12.8308 26.9899 12.6042 26.896 12.3679 26.896Z" fill="#516E95"/>
</svg>
