<svg width="11" height="11" viewBox="0 0 11 11" fill="none" xmlns="http://www.w3.org/2000/svg">
<path d="M5.01 0.47998C4.01912 0.47998 3.05049 0.773812 2.2266 1.32432C1.4027 1.87482 0.760561 2.65728 0.381366 3.57274C0.00217077 4.48819 -0.097044 5.49554 0.096268 6.46738C0.28958 7.43923 0.766736 8.33192 1.4674 9.03259C2.16806 9.73325 3.06076 10.2104 4.0326 10.4037C5.00444 10.597 6.01179 10.4978 6.92725 10.1186C7.8427 9.73942 8.62516 9.09728 9.17566 8.27339C9.72617 7.4495 10.02 6.48087 10.02 5.48998C10.0184 4.16173 9.49007 2.88834 8.55085 1.94913C7.61164 1.00992 6.33825 0.481568 5.01 0.47998ZM5.01 9.40498C4.23569 9.40498 3.47876 9.17537 2.83494 8.74518C2.19113 8.315 1.68933 7.70356 1.39301 6.98819C1.0967 6.27281 1.01917 5.48564 1.17023 4.7262C1.32129 3.96677 1.69416 3.26918 2.24168 2.72166C2.7892 2.17413 3.48679 1.80127 4.24622 1.65021C5.00566 1.49914 5.79284 1.57668 6.50821 1.87299C7.22358 2.16931 7.83502 2.6711 8.26521 3.31492C8.69539 3.95874 8.925 4.71567 8.925 5.48998C8.92394 6.52798 8.51113 7.52316 7.77716 8.25713C7.04318 8.99111 6.048 9.40392 5.01 9.40498Z" fill="#26D7AC"/>
<path d="M5.4439 5.496V3.396C5.4439 3.28341 5.39918 3.17543 5.31957 3.09583C5.23996 3.01622 5.13198 2.9715 5.0194 2.9715C4.90681 2.9715 4.79883 3.01622 4.71923 3.09583C4.63962 3.17543 4.5949 3.28341 4.5949 3.396V5.631C4.5949 5.638 4.5949 5.644 4.5949 5.651C4.5916 5.71007 4.60073 5.76916 4.62175 5.82446C4.64277 5.87976 4.67521 5.93004 4.71691 5.972L6.2979 7.55299C6.37746 7.63256 6.48537 7.67726 6.59789 7.67726C6.71041 7.67726 6.81834 7.63256 6.89791 7.55299C6.97747 7.47343 7.02217 7.36551 7.02217 7.25299C7.02217 7.14047 6.97747 7.03255 6.89791 6.95299L5.4439 5.496Z" fill="#26D7AC"/>
</svg>
