<svg width="19" height="19" viewBox="0 0 19 19" fill="none" xmlns="http://www.w3.org/2000/svg">
<path opacity="0.5" d="M14.0891 12.494C14.0891 11.9264 14.2586 11.3716 14.5759 10.9009C14.8932 10.4302 15.3439 10.065 15.8701 9.85204C15.4375 9.67702 14.9685 9.61093 14.5043 9.65956C14.0402 9.70819 13.5951 9.87005 13.2081 10.1309C12.8211 10.3918 12.5042 10.7437 12.285 11.1558C12.0659 11.5678 11.9513 12.0274 11.9513 12.494C11.9513 12.9607 12.0659 13.4203 12.285 13.8323C12.5042 14.2443 12.8211 14.5963 13.2081 14.8571C13.5951 15.118 14.0402 15.2799 14.5043 15.3285C14.9685 15.3772 15.4375 15.3111 15.8701 15.136C15.3439 14.9231 14.8932 14.5579 14.5759 14.0872C14.2586 13.6165 14.0891 13.0617 14.0891 12.494Z" fill="#516E95"/>
<path d="M5.11105 10.356C6.43371 10.3545 7.70171 9.82812 8.63669 8.89257C9.57168 7.95702 10.0973 6.68871 10.098 5.36605V2.80405C10.0975 2.23735 9.87223 1.694 9.47161 1.29319C9.07099 0.89238 8.52774 0.66684 7.96105 0.666046C7.86523 0.662456 7.76968 0.678227 7.6801 0.712417C7.59053 0.746606 7.50877 0.798511 7.43971 0.865027C7.37066 0.931543 7.31573 1.0113 7.27821 1.09954C7.24069 1.18777 7.22135 1.28267 7.22135 1.37855C7.22135 1.47443 7.24069 1.56932 7.27821 1.65756C7.31573 1.74579 7.37066 1.82555 7.43971 1.89207C7.50877 1.95858 7.59053 2.01049 7.6801 2.04468C7.76968 2.07887 7.86523 2.09464 7.96105 2.09105C8.15015 2.09105 8.3315 2.16617 8.46521 2.29988C8.59893 2.43359 8.67405 2.61495 8.67405 2.80405V5.36605C8.65839 6.30054 8.27617 7.19147 7.60978 7.84679C6.94338 8.50212 6.04618 8.86936 5.11155 8.86936C4.17692 8.86936 3.27971 8.50212 2.61332 7.84679C1.94692 7.19147 1.5647 6.30054 1.54905 5.36605V2.80405C1.54905 2.61495 1.62417 2.43359 1.75788 2.29988C1.89159 2.16617 2.07295 2.09105 2.26205 2.09105C2.35786 2.09457 2.4534 2.07873 2.54296 2.04448C2.63251 2.01022 2.71423 1.95826 2.78324 1.8917C2.85225 1.82513 2.90712 1.74533 2.94458 1.65707C2.98204 1.56881 3.00131 1.47391 3.00124 1.37803C3.00117 1.28215 2.98177 1.18727 2.94419 1.09906C2.90661 1.01085 2.85162 0.93113 2.78252 0.864663C2.71342 0.798195 2.63162 0.746348 2.54202 0.712221C2.45242 0.678094 2.35686 0.662389 2.26105 0.666046C1.69418 0.666576 1.15068 0.891999 0.749837 1.29284C0.348999 1.69367 0.123576 2.23718 0.123047 2.80405L0.123047 5.36605C0.123841 6.68889 0.649552 7.95735 1.58475 8.89293C2.51996 9.8285 3.78821 10.3547 5.11105 10.356Z" fill="#516E95"/>
<path d="M14.798 8.93105C13.9771 8.93216 13.1817 9.21621 12.5458 9.73535C11.9099 10.2545 11.4724 10.977 11.307 11.7811H10.807C10.2402 11.7816 9.69668 12.007 9.29584 12.4078C8.895 12.8087 8.66959 13.3522 8.66906 13.9191V16.0571C8.66906 16.435 8.51892 16.7974 8.25168 17.0647C7.98444 17.3319 7.62199 17.482 7.24405 17.482C6.86612 17.482 6.50366 17.3319 6.23642 17.0647C5.96918 16.7974 5.81905 16.435 5.81905 16.0571V12.4941C5.82264 12.3982 5.80687 12.3027 5.77268 12.2131C5.73849 12.1235 5.68659 12.0418 5.62008 11.9727C5.55356 11.9037 5.4738 11.8487 5.38556 11.8112C5.29733 11.7737 5.20244 11.7543 5.10656 11.7543C5.01068 11.7543 4.91578 11.7737 4.82754 11.8112C4.73931 11.8487 4.65955 11.9037 4.59304 11.9727C4.52652 12.0418 4.47462 12.1235 4.44043 12.2131C4.40624 12.3027 4.39046 12.3982 4.39405 12.4941V16.0571C4.39405 16.8129 4.69432 17.5378 5.22879 18.0723C5.76327 18.6068 6.48819 18.907 7.24405 18.907C7.99992 18.907 8.72483 18.6068 9.2593 18.0723C9.79378 17.5378 10.0941 16.8129 10.0941 16.0571V13.9191C10.0941 13.73 10.1692 13.5486 10.3029 13.4149C10.4366 13.2812 10.6179 13.206 10.807 13.206H11.307C11.4418 13.8666 11.7612 14.4755 12.2281 14.9618C12.6951 15.4481 13.2904 15.792 13.945 15.9534C14.5996 16.1148 15.2866 16.0872 15.9261 15.8738C16.5656 15.6604 17.1315 15.2699 17.5579 14.7477C17.9844 14.2255 18.2539 13.593 18.3352 12.9237C18.4165 12.2544 18.3062 11.5758 18.0172 10.9667C17.7282 10.3576 17.2723 9.84296 16.7025 9.48262C16.1326 9.12229 15.4722 8.93102 14.798 8.93105ZM14.798 14.631C14.3752 14.631 13.9618 14.5056 13.6102 14.2707C13.2586 14.0358 12.9846 13.7019 12.8228 13.3112C12.661 12.9206 12.6186 12.4907 12.7011 12.0759C12.7836 11.6612 12.9872 11.2803 13.2863 10.9812C13.5853 10.6822 13.9662 10.4786 14.3809 10.3961C14.7957 10.3136 15.2256 10.356 15.6162 10.5178C16.0069 10.6796 16.3408 10.9536 16.5757 11.3052C16.8107 11.6568 16.936 12.0702 16.936 12.493C16.9355 13.0599 16.7101 13.6034 16.3093 14.0043C15.9084 14.4051 15.3649 14.6305 14.798 14.631Z" fill="#516E95"/>
<path d="M15.8201 12C16.3724 12 16.8201 11.7762 16.8201 11.5C16.8201 11.2239 16.3724 11 15.8201 11C15.2678 11 14.8201 11.2239 14.8201 11.5C14.8201 11.7762 15.2678 12 15.8201 12Z" fill="#516E95"/>
</svg>
