<svg width="16" height="14" viewBox="0 0 16 14" fill="none" xmlns="http://www.w3.org/2000/svg">
<path d="M11.296 0.474011C10.6465 0.470522 10.0042 0.609891 9.41456 0.88224C8.82493 1.15459 8.3024 1.55326 7.88398 2.05001C7.46821 1.5499 6.94606 1.1489 6.35561 0.876251C5.76515 0.603602 5.12129 0.466181 4.47098 0.474011C3.28546 0.474011 2.1485 0.944958 1.31021 1.78325C0.471922 2.62153 0.000976563 3.75849 0.000976562 4.94401C0.000976563 9.17501 7.38498 13.305 7.68398 13.465C7.74313 13.5047 7.81275 13.5259 7.88398 13.5259C7.95521 13.5259 8.02483 13.5047 8.08398 13.465C8.38398 13.305 15.767 9.23401 15.767 4.94401C15.767 4.35692 15.6513 3.77558 15.4266 3.23318C15.2019 2.69079 14.8726 2.19798 14.4574 1.78289C14.0422 1.3678 13.5493 1.03856 13.0069 0.81398C12.4644 0.5894 11.8831 0.473879 11.296 0.474011Z" fill="#E8425E"/>
</svg>
