<svg width="19" height="20" viewBox="0 0 19 20" fill="none" xmlns="http://www.w3.org/2000/svg">
<path opacity="0.1" d="M4.12794 18.431C3.20351 18.3497 2.34307 17.9251 1.71629 17.2407C1.08951 16.5564 0.741879 15.662 0.741943 14.734V8.49002C0.741842 7.91896 0.873532 7.35559 1.12676 6.84374C1.38 6.3319 1.74794 5.88541 2.20194 5.53902L7.24894 1.69002C7.89546 1.1971 8.68595 0.930124 9.49894 0.930124C10.3119 0.930124 11.1024 1.1971 11.7489 1.69002L12.0899 1.95002C11.1554 1.85706 10.2205 2.12225 9.47394 2.69202L3.47394 7.27002C3.31684 7.38983 3.18952 7.54431 3.10192 7.72141C3.01433 7.8985 2.96882 8.09344 2.96894 8.29102V15.737C2.96832 16.2416 3.07091 16.741 3.27039 17.2044C3.46988 17.6679 3.76205 18.0856 4.12894 18.432L4.12794 18.431Z" fill="white"/>
<path d="M14.547 19.188H4.453C3.27222 19.1867 2.1402 18.717 1.30536 17.882C0.470521 17.0469 0.00105873 15.9148 0 14.734L0 8.49002C0.00258919 7.80572 0.161939 7.13111 0.465819 6.51798C0.769698 5.90485 1.21003 5.3695 1.753 4.95302L6.8 1.10002C7.57655 0.51022 8.52486 0.190918 9.5 0.190918C10.4751 0.190918 11.4235 0.51022 12.2 1.10002L13.8 2.32202V1.37502C13.8 1.17823 13.8782 0.989499 14.0173 0.850347C14.1565 0.711195 14.3452 0.63302 14.542 0.63302C14.7388 0.63302 14.9275 0.711195 15.0667 0.850347C15.2058 0.989499 15.284 1.17823 15.284 1.37502V3.82102C15.284 3.95933 15.2454 4.09489 15.1724 4.2124C15.0995 4.32991 14.9951 4.42469 14.8712 4.48605C14.7472 4.5474 14.6086 4.57289 14.4709 4.55963C14.3332 4.54638 14.202 4.4949 14.092 4.41102L11.3 2.28002C10.7823 1.88682 10.1501 1.67395 9.5 1.67395C8.84991 1.67395 8.2177 1.88682 7.7 2.28002L2.653 6.12902C2.29087 6.40695 1.99729 6.7642 1.79481 7.17332C1.59233 7.58244 1.48634 8.03254 1.485 8.48902V14.733C1.48553 15.5202 1.79833 16.275 2.35477 16.8318C2.91121 17.3886 3.66582 17.702 4.453 17.703H14.547C15.3342 17.7022 16.0889 17.3892 16.6455 16.8325C17.2021 16.2759 17.5152 15.5212 17.516 14.734V8.49002C17.5173 8.03304 17.4138 7.58185 17.2134 7.17115C17.013 6.76046 16.721 6.4012 16.36 6.12102C16.2035 6.00167 16.1009 5.82505 16.0746 5.63002C16.0484 5.43498 16.1007 5.2375 16.22 5.08102C16.3393 4.92454 16.516 4.82188 16.711 4.79563C16.906 4.76937 17.1035 4.82167 17.26 4.94102C17.8021 5.36012 18.2409 5.89799 18.5426 6.51325C18.8442 7.12852 19.0007 7.80479 19 8.49002V14.734C18.9989 15.9148 18.5295 17.0469 17.6946 17.882C16.8598 18.717 15.7278 19.1867 14.547 19.188Z" fill="white"/>
<path d="M8.94303 9.68702C8.94303 9.87056 8.88862 10.05 8.78665 10.2026C8.68468 10.3552 8.53974 10.4741 8.37017 10.5444C8.2006 10.6146 8.01401 10.633 7.83399 10.5972C7.65398 10.5614 7.48862 10.473 7.35883 10.3432C7.22905 10.2134 7.14067 10.0481 7.10487 9.86807C7.06906 9.68805 7.08744 9.50146 7.15768 9.33189C7.22792 9.16232 7.34687 9.01738 7.49947 8.91541C7.65208 8.81344 7.8315 8.75903 8.01504 8.75903C8.26116 8.75903 8.49719 8.8568 8.67123 9.03083C8.84526 9.20487 8.94303 9.4409 8.94303 9.68702ZM10.984 8.75903C10.8005 8.75903 10.6211 8.81344 10.4685 8.91541C10.3159 9.01738 10.1969 9.16232 10.1267 9.33189C10.0564 9.50146 10.0381 9.68805 10.0739 9.86807C10.1097 10.0481 10.1981 10.2134 10.3278 10.3432C10.4576 10.473 10.623 10.5614 10.803 10.5972C10.983 10.633 11.1696 10.6146 11.3392 10.5444C11.5087 10.4741 11.6537 10.3552 11.7556 10.2026C11.8576 10.05 11.912 9.87056 11.912 9.68702C11.912 9.44159 11.8148 9.20615 11.6416 9.03224C11.4685 8.85832 11.2335 8.76008 10.988 8.75903H10.984ZM8.01504 11.728C7.8315 11.728 7.65208 11.7825 7.49947 11.8844C7.34687 11.9864 7.22792 12.1313 7.15768 12.3009C7.08744 12.4705 7.06906 12.657 7.10487 12.8371C7.14067 13.0171 7.22905 13.1824 7.35883 13.3122C7.48862 13.442 7.65398 13.5304 7.83399 13.5662C8.01401 13.602 8.2006 13.5836 8.37017 13.5134C8.53974 13.4431 8.68468 13.3242 8.78665 13.1716C8.88862 13.019 8.94303 12.8396 8.94303 12.656C8.94303 12.4101 8.8454 12.1742 8.67158 12.0002C8.49776 11.8262 8.26198 11.7283 8.01603 11.728H8.01504ZM10.984 11.728C10.8005 11.728 10.6211 11.7825 10.4685 11.8844C10.3159 11.9864 10.1969 12.1313 10.1267 12.3009C10.0564 12.4705 10.0381 12.657 10.0739 12.8371C10.1097 13.0171 10.1981 13.1824 10.3278 13.3122C10.4576 13.442 10.623 13.5304 10.803 13.5662C10.983 13.602 11.1696 13.5836 11.3392 13.5134C11.5087 13.4431 11.6537 13.3242 11.7556 13.1716C11.8576 13.019 11.912 12.8396 11.912 12.656C11.912 12.4106 11.8148 12.1751 11.6416 12.0012C11.4685 11.8273 11.2335 11.7291 10.988 11.728H10.984Z" fill="white"/>
</svg>
