<svg width="98" height="99" viewBox="0 0 98 99" fill="none" xmlns="http://www.w3.org/2000/svg">
<path d="M25.6101 58.6075C24.2231 58.2871 22.7723 58.3852 21.441 58.8894C20.1097 59.3936 18.9579 60.2812 18.1311 61.44C17.3043 62.5988 16.8397 63.9767 16.796 65.3996C16.7524 66.8225 17.1316 68.2263 17.8858 69.4336C18.64 70.641 19.7353 71.5975 21.0331 72.1824C22.331 72.7672 23.7731 72.954 25.1771 72.7193C26.5812 72.4845 27.884 71.8387 28.921 70.8634C29.958 69.8882 30.6825 68.6273 31.0029 67.2403C31.4309 65.3806 31.1034 63.4269 30.0923 61.8084C29.0812 60.1898 27.4692 59.0386 25.6101 58.6075V58.6075ZM23.4501 67.9579C22.9878 67.8511 22.5675 67.6096 22.2424 67.264C21.9173 66.9183 21.7021 66.484 21.6238 66.016C21.5456 65.548 21.6078 65.0673 21.8028 64.6347C21.9977 64.2021 22.3166 63.837 22.719 63.5856C23.1215 63.3342 23.5894 63.2078 24.0637 63.2223C24.538 63.2369 24.9973 63.3917 25.3836 63.6673C25.7698 63.9429 26.0657 64.3269 26.2338 64.7706C26.4018 65.2144 26.4345 65.698 26.3277 66.1603C26.1845 66.7803 25.8009 67.318 25.2612 67.6551C24.7216 67.9922 24.0701 68.1012 23.4501 67.9579Z" fill="white"/>
<path d="M96.3584 22.5481C96.4626 21.9806 96.3581 21.3946 96.0642 20.8981C95.7703 20.4017 95.3068 20.0282 94.7592 19.8466L94.7465 19.8437L76.6684 13.9254C76.1064 13.7415 75.4963 13.7716 74.9552 14.01C74.414 14.2484 73.98 14.6782 73.7363 15.2169L70.8397 21.6404L63.7931 21.4325C63.3199 21.4186 62.8531 21.545 62.4515 21.7958C62.05 22.0467 61.7316 22.4107 61.5366 22.8421L58.6339 29.2652L51.5915 29.0521C51.1734 29.0391 50.759 29.1356 50.3897 29.3321C50.0203 29.5286 49.7088 29.8183 49.486 30.1724L44.8946 37.4745C39.7615 34.6513 33.8322 33.6242 28.0485 34.5562C22.2648 35.4882 16.9584 38.3259 12.9719 42.6187C8.98546 46.9115 6.54759 52.4131 6.04549 58.2499C5.5434 64.0866 7.00587 69.9238 10.2006 74.8343C13.3954 79.7448 18.1393 83.4471 23.6788 85.3531C29.2184 87.2592 35.2359 87.2598 40.7758 85.3547C46.3157 83.4497 51.0603 79.7482 54.2559 74.8383C57.4516 69.9284 58.9151 64.0915 58.4141 58.2547L92.2078 37.38C92.4767 37.2138 92.7101 36.9961 92.8946 36.7394C93.0791 36.4827 93.211 36.1921 93.2828 35.8842L96.3365 22.6651C96.3472 22.6234 96.3518 22.5855 96.3584 22.5481ZM27.2659 81.5656C24.1734 80.8528 21.2762 79.4666 18.7809 77.5058C16.2856 75.545 14.2535 73.0578 12.8297 70.2216C11.4058 67.3854 10.6251 64.27 10.5433 61.0975C10.4615 57.925 11.0806 54.7735 12.3564 51.8677C13.6322 48.9619 15.5333 46.3733 17.9243 44.2865C20.3152 42.1997 23.1371 40.666 26.1887 39.7948C29.2403 38.9236 32.4466 38.7363 35.5789 39.2463C38.7112 39.7563 41.6924 40.9511 44.3101 42.7454C44.5765 42.9274 44.8769 43.0538 45.1933 43.1171C45.5097 43.1803 45.8356 43.1791 46.1515 43.1135C46.4674 43.0479 46.7668 42.9192 47.0319 42.7352C47.2969 42.5511 47.5221 42.3155 47.694 42.0425L52.8193 33.8901L60.0897 34.1065C60.5629 34.1204 61.0297 33.994 61.4312 33.7432C61.8328 33.4923 62.1511 33.1283 62.3462 32.6969L65.2489 26.2739L72.2955 26.4817C72.7687 26.4956 73.2355 26.3692 73.6371 26.1184C74.0386 25.8675 74.3569 25.5035 74.552 25.0721L77.2252 19.1541L88.3537 22.797L51.2024 45.7883C50.934 45.9545 50.701 46.1722 50.5169 46.4287C50.3327 46.6852 50.201 46.9755 50.1293 47.283C50.0576 47.5906 50.0473 47.9092 50.099 48.2207C50.1507 48.5322 50.2634 48.8304 50.4306 49.0983C60.5441 65.2852 46.0134 85.8964 27.2659 81.5656ZM88.8357 33.8258L57.479 53.2022C57.0234 51.6353 56.423 50.1141 55.6857 48.6584L90.3686 27.1899L88.8357 33.8258Z" fill="white"/>
</svg>
