<svg width="41" height="42" viewBox="0 0 41 42" fill="none" xmlns="http://www.w3.org/2000/svg">
<path d="M0.703003 41.003V32.563C0.755003 32.1 0.809009 31.638 0.859009 31.174C0.964438 29.6431 1.37863 28.1494 2.07654 26.7828C2.77445 25.4162 3.74169 24.2049 4.92004 23.222C6.27473 21.9962 8.01166 21.2767 9.8363 21.1856C11.6609 21.0945 13.461 21.6373 14.931 22.722C15.356 23.0657 15.8001 23.3853 16.261 23.679C16.6228 23.876 17.0102 24.0217 17.412 24.112C17.4884 24.1351 17.569 24.1407 17.6478 24.1281C17.7266 24.1155 17.8016 24.0852 17.8669 24.0395C17.9323 23.9937 17.9864 23.9337 18.0253 23.864C18.0641 23.7942 18.0866 23.7167 18.091 23.637C18.1604 23.308 18.1986 22.9732 18.205 22.637C18.213 19.355 18.213 16.073 18.205 12.791C18.205 12.583 18.179 12.376 18.171 12.168C18.162 11.914 18.0571 11.798 17.7841 11.743C16.858 11.5509 16.0211 11.0588 15.403 10.343C14.6359 9.48855 14.0286 8.50329 13.61 7.43402C12.8653 5.37246 12.5155 3.18903 12.579 0.997986H15.705C15.785 2.06099 15.805 3.13197 15.957 4.18597C16.121 5.68516 16.7357 7.09942 17.72 8.242C17.8305 8.38475 17.9699 8.50258 18.129 8.58783C18.2881 8.67308 18.4634 8.72383 18.6434 8.73676C18.8235 8.74968 19.0042 8.72455 19.1739 8.6629C19.3435 8.60126 19.4983 8.50446 19.6281 8.37897C20.7358 7.42835 21.9766 6.64481 23.311 6.05304C25.1418 5.13166 27.1404 4.59111 29.186 4.46405C30.7287 4.40228 32.2649 4.69586 33.676 5.32233C35.087 5.9488 36.3352 6.8913 37.324 8.07697C39.0972 10.2157 40.1947 12.8332 40.4771 15.597C40.8416 18.2072 40.7617 20.8604 40.241 23.444C39.7118 26.6776 38.5091 29.7639 36.711 32.503C32.804 38.161 27.282 40.185 20.625 39.403C18.1408 39.0376 15.8399 37.8831 14.062 36.11C12.771 34.92 11.593 33.61 10.319 32.399C9.6646 31.7686 8.94754 31.2067 8.17902 30.722C7.7246 30.4424 7.19267 30.3156 6.66101 30.36C6.27024 30.3629 5.88442 30.4475 5.52832 30.6085C5.17222 30.7694 4.85379 31.0031 4.59344 31.2945C4.3331 31.5859 4.1366 31.9287 4.01666 32.3006C3.89673 32.6725 3.85599 33.0654 3.89703 33.454C3.93503 35.824 3.90601 38.194 3.90601 40.564V41.008L0.703003 41.003ZM5.34601 27.373C6.15539 27.17 6.99861 27.1411 7.82001 27.288C9.28219 27.5968 10.6234 28.3231 11.681 29.379C12.807 30.441 13.868 31.573 14.959 32.673C16.0373 33.8255 17.2986 34.7919 18.692 35.533C20.4619 36.3528 22.4278 36.6544 24.362 36.403C26.2348 36.2972 28.0598 35.7708 29.7012 34.8627C31.3426 33.9547 32.7583 32.6884 33.843 31.158C35.4012 28.9037 36.4776 26.3522 37.005 23.663C37.7289 20.6917 37.7683 17.5948 37.1201 14.606C36.7522 12.5774 35.7216 10.7281 34.19 9.34796C33.4889 8.69991 32.6569 8.20992 31.7502 7.91095C30.8435 7.61198 29.8831 7.5111 28.934 7.61505C26.1114 7.95986 23.4592 9.1506 21.326 11.0309C21.2431 11.1313 21.2025 11.2601 21.213 11.39C21.24 11.87 21.328 12.348 21.329 12.827C21.3404 16.0936 21.3404 19.362 21.329 22.632C21.3277 23.0224 21.3006 23.4122 21.248 23.799C21.212 24.2986 21.0756 24.7859 20.8471 25.2316C20.6186 25.6774 20.3025 26.0725 19.9178 26.3934C19.5332 26.7143 19.0878 26.9544 18.6083 27.0993C18.1288 27.2442 17.625 27.2911 17.127 27.237C16.0715 27.1352 15.0662 26.7373 14.2271 26.0891C13.6991 25.7091 13.184 25.309 12.64 24.954C11.8304 24.411 10.8504 24.1823 9.88403 24.311C8.95302 24.4668 8.06624 24.8205 7.28357 25.3482C6.5009 25.8759 5.84055 26.5653 5.34705 27.3699L5.34601 27.373Z" fill="white"/>
<path d="M28.449 29.836C28.449 28.871 28.444 27.9771 28.455 27.0831C28.4756 26.9553 28.5207 26.8326 28.588 26.722C28.988 25.849 29.382 24.977 29.804 24.049H23.914C24.279 23.181 24.62 22.3691 24.963 21.5581C25.7063 19.7981 26.4517 18.0394 27.199 16.2821C27.247 16.1701 27.367 16.009 27.457 16.007C28.467 15.988 29.478 15.9951 30.547 15.9951L28.336 21.0671H34.381C34.313 21.2301 34.266 21.356 34.209 21.477C33.192 23.656 32.18 25.837 31.149 28.009C31.041 28.224 30.8764 28.4055 30.673 28.534C29.968 28.971 29.242 29.375 28.449 29.836Z" fill="white"/>
</svg>
