<svg width="260" height="307" viewBox="0 0 260 307" fill="none" xmlns="http://www.w3.org/2000/svg">
<path d="M-86.6144 71.4589C-87.3119 55.0092 -81.2087 40.3615 -71.2691 28.3294C-59.7601 14.321 -45.0542 4.14894 -26.0469 1.12638C-1.22701 -2.8262 19.8146 4.03265 37.6594 21.0636C50.3309 33.1539 62.4793 45.7673 74.8602 58.1482C83.7535 67.0415 88.9268 66.9832 97.7619 58.3806C112.352 44.1978 125.546 28.3876 141.531 15.7161C176.116 -11.7195 225.872 -2.0706 248.716 35.5952C267.142 65.9371 260.399 102.731 238.079 124.645C224.128 138.362 210.352 152.255 196.518 166.089C194.193 168.414 191.984 170.855 189.718 173.238C185.416 176.493 181.754 180.329 178.325 184.456C165.072 197.651 151.761 210.787 138.508 224.04C133.684 228.865 128.569 233.283 122.582 236.596C92.9955 252.929 58.5267 248.105 34.6369 224.331C20.9191 210.671 7.20124 197.128 -6.57467 183.526C-10.1785 179.981 -13.7241 176.435 -17.328 172.831C-33.1964 156.788 -49.0649 140.804 -64.9333 124.703C-71.676 117.844 -77.3142 110.171 -81.1505 101.278C-82.0805 98.662 -82.9524 96.0465 -83.8825 93.4308C-84.7543 88.3157 -85.6263 83.2006 -86.4982 78.1436C-86.4982 75.8767 -86.5563 73.6677 -86.6144 71.4589ZM167.165 173.18C171.35 169.808 175.186 166.089 178.499 161.845C197.623 141.908 219.362 124.528 235.579 101.859C237.265 100.232 238.02 98.1972 238.602 95.9884C239.009 95.2909 239.59 94.6516 239.88 93.8959C249.588 69.5992 240.462 40.6523 218.316 25.7138C195.763 10.4266 165.886 12.8679 146.762 31.6426C131.359 46.8136 116.188 62.217 100.843 77.4461C90.3799 87.8507 82.4166 87.6763 71.7795 77.0974C56.783 62.1008 42.077 46.8136 26.7898 32.1658C9.23569 15.3673 -11.6898 10.8916 -34.1846 20.0174C-55.6913 28.7363 -68.1884 45.1862 -70.2229 68.8436C-71.7341 82.4451 -68.4791 94.7676 -60.167 105.695C-59.702 106.567 -59.3532 107.614 -58.6557 108.311C-41.0435 125.865 -24.4775 144.524 -5.76091 160.973C-2.68022 165.159 1.15614 168.53 4.99248 172.018C19.1753 186.317 33.1837 200.848 47.6571 214.914C67.7688 234.387 99.0988 236.247 120.954 218.519C137.753 204.917 151.994 188.525 167.165 173.18Z" fill="#2382FF"/>
<path d="M178.383 184.456C181.812 180.329 185.474 176.435 189.776 173.238C205.76 189.281 221.629 205.498 237.904 221.25C246.1 229.155 252.726 238.863 255.4 248.977C261.91 273.448 259.469 297.279 242.031 317.798C231.51 330.179 218.897 338.723 203.086 342.908C177.104 349.825 154.667 343.083 135.428 325.18C121.768 312.392 108.864 298.732 95.553 285.48C88.2872 278.214 83.5209 278.33 76.1388 285.421C60.561 300.418 46.8432 317.507 29.5216 330.469C5.05045 348.779 -22.0364 351.046 -48.7164 336.108C-75.3963 321.169 -88.3003 297.338 -86.8471 266.414C-86.0334 249.5 -79.1745 234.968 -67.6074 222.994C-51.0995 205.963 -34.1848 189.455 -17.3863 172.715C-13.7825 176.261 -10.2368 179.806 -6.63294 183.41C-22.6176 199.453 -38.7768 215.322 -54.529 231.597C-62.0273 239.328 -67.9561 247.93 -70.223 259.149C-75.3963 284.317 -64.2941 309.951 -41.5087 322.739C-19.5951 335.062 8.07297 331.167 26.2083 313.206C40.2168 299.314 54.1671 285.247 68.1755 271.297C69.7449 269.727 71.3725 268.042 73.2325 266.821C82.7652 260.544 93.4604 261.938 102.354 270.541C118.629 286.293 133.451 303.557 150.947 317.972C173.5 336.573 206.981 332.969 227.906 310.59C247.553 289.607 248.134 255.37 228.488 234.677C212.212 217.53 195.123 201.197 178.383 184.456Z" fill="#2382FF"/>
<path d="M167.164 173.18C152.923 158.881 139.031 144.175 124.325 130.399C107.876 114.995 88.4033 111.45 66.9547 118.251C58.1195 121.041 50.7956 125.923 44.2854 132.666C31.4395 146.035 18.1287 158.939 4.99215 172.017C1.15582 168.588 -2.68054 165.158 -5.76123 160.973C7.49155 147.72 21.035 134.758 33.939 121.215C61.5489 92.2098 109.271 91.8611 137.811 121.273C151.18 134.991 164.897 148.36 178.441 161.845C175.128 166.089 171.349 169.808 167.164 173.18Z" fill="#E32940"/>
<path d="M166.697 173.18C152.457 158.881 138.564 144.175 123.858 130.399C107.409 114.995 87.9365 111.45 66.4879 118.251C57.6527 121.041 50.3288 125.923 43.8186 132.666C30.9728 146.035 17.6619 158.939 4.52536 172.017C0.689027 168.588 -3.14734 165.158 -6.22803 160.973C7.02475 147.72 20.5682 134.758 33.4722 121.215C61.0821 92.2098 108.804 91.8611 137.344 121.273C150.713 134.991 164.431 148.36 177.974 161.845C174.661 166.089 170.883 169.808 166.697 173.18Z" fill="#E32940"/>
</svg>
