<svg width="251" height="57" viewBox="0 0 251 57" fill="none" xmlns="http://www.w3.org/2000/svg">
<path d="M80.8154 5.48199C81.8593 5.32875 82.8554 5.25214 83.8227 5.25214C84.8379 5.25214 85.834 5.32875 86.8301 5.48199L93.2662 21.5531L99.8939 5.48199C100.698 5.32875 101.599 5.25214 102.585 5.25214C103.572 5.25214 104.52 5.32875 105.43 5.48199L106.761 33.5347C105.774 33.6879 104.836 33.7741 103.955 33.7741C103.074 33.7741 102.202 33.6975 101.34 33.5347L100.641 14.4945L94.9423 27.6828C94.5783 27.7307 94.2048 27.7785 93.8121 27.8168C93.4194 27.8552 93.0363 27.8743 92.6436 27.8743C92.3084 27.8743 91.9636 27.8648 91.6284 27.836C91.2932 27.8073 90.9388 27.7594 90.5749 27.6828L85.2689 14.2263L84.723 33.5347C83.8898 33.6879 83.0852 33.7741 82.2999 33.7741C81.4666 33.7741 80.6046 33.6975 79.7235 33.5347L80.8154 5.48199Z" fill="#1479FF"/>
<path d="M111.914 5.48199H127.832C127.985 6.25778 128.061 7.05274 128.061 7.86683C128.061 8.72881 127.985 9.54291 127.832 10.3283H117.612V16.41H125.725C125.878 17.2432 125.954 18.0477 125.954 18.8331C125.954 19.6663 125.878 20.49 125.725 21.2945H117.612V28.7076H128.109C128.263 29.4833 128.339 30.2783 128.339 31.0828C128.339 31.9448 128.263 32.7589 128.109 33.5443H111.914V5.48199Z" fill="#1479FF"/>
<path d="M132.745 5.48199C133.837 5.3479 134.976 5.24254 136.174 5.14677C137.371 5.05099 138.692 5.0127 140.148 5.0127C145.062 5.0127 148.806 6.23861 151.364 8.68089C153.921 11.1232 155.204 14.7914 155.204 19.6855C155.204 24.5988 153.902 28.2191 151.306 30.5273C148.701 32.8451 144.841 34.004 139.717 34.004C138.386 34.004 137.17 33.9561 136.049 33.8699C134.928 33.7741 133.827 33.6688 132.735 33.5347V5.48199H132.745ZM138.482 29.0045C138.712 29.0332 139.018 29.0619 139.382 29.0811C139.746 29.1098 140.187 29.1194 140.704 29.1194C141.901 29.1194 143.012 28.9853 144.037 28.7076C145.062 28.4298 145.952 27.9318 146.709 27.2039C147.466 26.476 148.059 25.4991 148.5 24.2732C148.94 23.0473 149.161 21.4765 149.161 19.5514C149.161 17.6742 148.94 16.1227 148.5 14.868C148.059 13.6134 147.456 12.6364 146.709 11.8989C145.952 11.171 145.09 10.6539 144.113 10.357C143.136 10.0601 142.102 9.90685 141.01 9.90685C140.646 9.90685 140.225 9.91638 139.746 9.92596C139.267 9.93554 138.846 9.97388 138.482 10.0218V29.0045Z" fill="#1479FF"/>
<path d="M178.468 28.2287C178.803 28.9566 179.081 29.7037 179.311 30.4699C179.531 31.2361 179.694 32.0118 179.799 32.7876C178.449 33.2856 177.233 33.6113 176.15 33.7645C175.068 33.9178 173.909 33.9944 172.655 33.9944C170.442 33.9944 168.507 33.64 166.841 32.9217C165.174 32.2034 163.776 31.2073 162.646 29.9143C161.516 28.6309 160.663 27.0986 160.089 25.3267C159.514 23.5549 159.227 21.6297 159.227 19.5514C159.227 17.4731 159.524 15.5384 160.127 13.757C160.721 11.9756 161.592 10.4336 162.723 9.13107C163.853 7.82853 165.241 6.81325 166.898 6.08536C168.546 5.35746 170.433 4.99353 172.54 4.99353C173.785 4.99353 174.934 5.07017 175.988 5.22341C177.041 5.37665 178.181 5.70225 179.397 6.20028C179.349 6.97607 179.186 7.74228 178.928 8.47975C178.669 9.21722 178.382 9.9643 178.066 10.7209C177.156 10.4049 176.351 10.1846 175.643 10.0601C174.944 9.93556 174.11 9.86851 173.143 9.86851C170.643 9.86851 168.728 10.6826 167.387 12.3108C166.046 13.939 165.376 16.3525 165.376 19.5514C165.376 25.9013 168.067 29.0715 173.449 29.0715C174.407 29.0715 175.26 29.0045 175.988 28.88C176.744 28.7651 177.558 28.5352 178.468 28.2287Z" fill="#E8425E"/>
<path d="M183.889 5.48203C184.387 5.40541 184.866 5.34794 185.335 5.32878C185.805 5.30005 186.283 5.29047 186.781 5.29047C187.222 5.29047 187.682 5.30005 188.151 5.32878C188.62 5.35752 189.099 5.40541 189.597 5.48203V20.0303C189.597 21.6202 189.655 22.9802 189.77 24.1104C189.885 25.2405 190.124 26.1791 190.469 26.9166C190.823 27.6541 191.312 28.2 191.953 28.5544C192.595 28.9088 193.419 29.0811 194.434 29.0811C195.449 29.0811 196.263 28.9088 196.895 28.5544C197.518 28.2 198.006 27.6541 198.361 26.9166C198.715 26.1791 198.945 25.2405 199.06 24.1104C199.175 22.9802 199.232 21.6202 199.232 20.0303V5.48203C199.749 5.40541 200.247 5.34794 200.717 5.32878C201.186 5.30005 201.636 5.29047 202.086 5.29047C202.556 5.29047 203.025 5.30005 203.513 5.32878C203.992 5.35752 204.481 5.40541 204.979 5.48203V21.2467C204.979 23.1431 204.826 24.8862 204.51 26.4569C204.193 28.0276 203.638 29.3781 202.833 30.4987C202.029 31.6192 200.947 32.4812 199.596 33.0941C198.246 33.7071 196.522 34.0136 194.444 34.0136C192.365 34.0136 190.641 33.7071 189.291 33.0941C187.94 32.4812 186.858 31.6192 186.054 30.4987C185.249 29.3781 184.684 28.0372 184.377 26.4569C184.061 24.8862 183.908 23.1431 183.908 21.2467V5.48203H183.889Z" fill="#E8425E"/>
<path d="M210.505 5.48199C211.645 5.3479 212.718 5.24254 213.723 5.14677C214.729 5.05099 215.84 5.0127 217.056 5.0127C218.483 5.0127 219.901 5.14678 221.29 5.40538C222.678 5.66397 223.933 6.12371 225.054 6.79414C226.174 7.45499 227.074 8.35528 227.764 9.48543C228.454 10.6156 228.798 12.0522 228.798 13.7953C228.798 14.8393 228.664 15.7492 228.406 16.5441C228.147 17.339 227.812 18.0286 227.41 18.632C227.007 19.2354 226.567 19.743 226.098 20.174C225.628 20.605 225.188 20.9498 224.776 21.2084L224.115 21.6394L230.944 33.4963C230.427 33.5442 229.881 33.6017 229.306 33.6496C228.731 33.6975 228.147 33.7262 227.553 33.7262C226.567 33.7262 225.59 33.6496 224.623 33.4963L217.286 20.4613L218.225 19.992C218.589 19.81 219.029 19.5802 219.556 19.2928C220.073 19.0055 220.581 18.6512 221.06 18.2202C221.539 17.7892 221.95 17.272 222.286 16.659C222.621 16.0461 222.793 15.3277 222.793 14.4945C222.793 12.8567 222.324 11.6499 221.385 10.8837C220.447 10.1175 219.24 9.7344 217.755 9.7344C217.181 9.7344 216.664 9.77276 216.194 9.84938V33.5347C215.725 33.5826 215.256 33.6305 214.786 33.6688C214.317 33.7071 213.867 33.7262 213.417 33.7262C212.967 33.7262 212.507 33.7166 212.009 33.6879C211.511 33.6592 211.003 33.6113 210.486 33.5347V5.48199H210.505Z" fill="#E8425E"/>
<path d="M234.066 5.48199H249.984C250.137 6.25778 250.214 7.05274 250.214 7.86683C250.214 8.72881 250.137 9.54291 249.984 10.3283H239.765V16.41H247.877C248.03 17.2432 248.107 18.0477 248.107 18.8331C248.107 19.6663 248.03 20.49 247.877 21.2945H239.765V28.7076H250.262C250.415 29.4833 250.491 30.2783 250.491 31.0828C250.491 31.9448 250.415 32.7589 250.262 33.5443H234.066V5.48199Z" fill="#E8425E"/>
<path d="M95.6986 43.5719C95.8135 43.5528 95.9381 43.5336 96.0626 43.5241C96.1871 43.5145 96.3116 43.5145 96.4457 43.5145C96.5702 43.5145 96.6947 43.5145 96.8288 43.5241C96.9533 43.5336 97.0778 43.5528 97.1927 43.5719V47.901H101.665V43.5719C101.771 43.5528 101.886 43.5336 102.02 43.5241C102.144 43.5145 102.269 43.5145 102.403 43.5145C102.527 43.5145 102.661 43.5145 102.786 43.5241C102.92 43.5336 103.045 43.5528 103.16 43.5719V54.0881C103.054 54.1072 102.939 54.1264 102.805 54.136C102.681 54.1456 102.547 54.1551 102.412 54.1551C102.288 54.1551 102.154 54.1456 102.029 54.136C101.905 54.1264 101.78 54.1072 101.675 54.0881V49.2131H97.2023V54.0881C97.0874 54.1072 96.9629 54.1264 96.8479 54.136C96.7234 54.1456 96.5989 54.1551 96.4648 54.1551C96.3403 54.1551 96.2062 54.1456 96.0817 54.136C95.9476 54.1264 95.8327 54.1072 95.7273 54.0881V43.5719H95.6986Z" fill="#1D3A62"/>
<path d="M106.464 43.5719H112.239C112.268 43.7635 112.287 43.9837 112.287 44.2136C112.287 44.3189 112.287 44.4339 112.277 44.5488C112.268 44.6638 112.258 44.7691 112.239 44.8744H107.948V47.8914H111.368C111.387 47.9872 111.406 48.0925 111.416 48.2075C111.425 48.3224 111.435 48.4277 111.435 48.5331C111.435 48.6384 111.425 48.7534 111.416 48.8683C111.406 48.9833 111.387 49.0886 111.368 49.1939H107.948V52.7951H112.354C112.383 52.9867 112.402 53.2069 112.402 53.4368C112.402 53.5421 112.402 53.6571 112.392 53.772C112.383 53.887 112.373 53.9923 112.354 54.0976H106.454V43.5719H106.464Z" fill="#1D3A62"/>
<path d="M120.217 51.6554H116.223L115.505 54.0881C115.381 54.1072 115.256 54.1264 115.122 54.136C114.988 54.1456 114.863 54.1551 114.739 54.1551C114.605 54.1551 114.471 54.1456 114.337 54.136C114.202 54.1264 114.088 54.1072 113.982 54.0881L117.401 43.5719C117.526 43.5528 117.66 43.5336 117.813 43.5241C117.957 43.5145 118.11 43.5145 118.263 43.5145C118.397 43.5145 118.541 43.5145 118.685 43.5241C118.828 43.5336 118.972 43.5528 119.106 43.5719L122.516 54.0881C122.401 54.1072 122.267 54.1264 122.123 54.136C121.979 54.1456 121.836 54.1551 121.702 54.1551C121.577 54.1551 121.443 54.1456 121.319 54.136C121.185 54.1264 121.06 54.1072 120.945 54.0881L120.217 51.6554ZM116.626 50.3529H119.834L118.225 44.9799L116.626 50.3529Z" fill="#1D3A62"/>
<path d="M124.795 43.5719C124.901 43.5528 125.016 43.5336 125.14 43.5241C125.265 43.5145 125.389 43.5145 125.523 43.5145C125.648 43.5145 125.772 43.5145 125.906 43.5241C126.031 43.5336 126.155 43.5528 126.27 43.5719V52.776H130.398C130.417 52.8813 130.427 52.9963 130.436 53.1112C130.436 53.2261 130.446 53.3315 130.446 53.4368C130.446 53.6762 130.436 53.887 130.398 54.0977H124.795V43.5719Z" fill="#1D3A62"/>
<path d="M133.195 44.8649H130.456C130.436 44.7691 130.417 44.6638 130.408 44.5392C130.398 44.4243 130.398 44.3094 130.398 44.2041C130.398 44.0987 130.398 43.9837 130.408 43.8784C130.417 43.7635 130.436 43.6581 130.456 43.5623H137.418C137.438 43.6581 137.457 43.7635 137.466 43.8688C137.476 43.9742 137.485 44.0795 137.485 44.1945C137.485 44.3094 137.476 44.4147 137.466 44.5392C137.457 44.6638 137.438 44.7691 137.418 44.8649H134.679V54.0785C134.459 54.1073 134.21 54.1264 133.951 54.1264C133.674 54.1264 133.425 54.1168 133.195 54.0785V44.8649Z" fill="#1D3A62"/>
<path d="M139.813 43.5719C139.928 43.5528 140.052 43.5336 140.177 43.5241C140.301 43.5145 140.426 43.5145 140.56 43.5145C140.684 43.5145 140.809 43.5145 140.943 43.5241C141.068 43.5336 141.192 43.5528 141.307 43.5719V47.901H145.78V43.5719C145.885 43.5528 146 43.5336 146.134 43.5241C146.259 43.5145 146.383 43.5145 146.517 43.5145C146.651 43.5145 146.776 43.5145 146.91 43.5241C147.044 43.5336 147.168 43.5528 147.283 43.5719V54.0881C147.178 54.1072 147.063 54.1264 146.929 54.136C146.795 54.1456 146.67 54.1551 146.536 54.1551C146.412 54.1551 146.278 54.1456 146.144 54.136C146.01 54.1264 145.895 54.1072 145.789 54.0881V49.2131H141.317V54.0881C141.202 54.1072 141.077 54.1264 140.962 54.136C140.847 54.1456 140.713 54.1551 140.579 54.1551C140.455 54.1551 140.32 54.1456 140.186 54.136C140.052 54.1264 139.937 54.1072 139.832 54.0881V43.5719H139.813Z" fill="#1D3A62"/>
<path d="M156.2 45.9663C156.2 46.3877 156.344 46.7229 156.622 46.9719C156.899 47.221 157.349 47.3455 157.962 47.3455H161.152L162.502 45.5066H162.617V47.3455H164.523C164.561 47.5083 164.581 47.6999 164.581 47.9202C164.581 48.0255 164.571 48.1308 164.561 48.2362C164.552 48.3415 164.533 48.4373 164.513 48.5331H162.608V50.6976C162.608 51.2914 162.502 51.8182 162.301 52.2588C162.1 52.6994 161.803 53.0824 161.42 53.3793C161.037 53.6762 160.587 53.8965 160.05 54.0402C159.514 54.1839 158.93 54.2605 158.288 54.2605C157.771 54.2605 157.273 54.203 156.794 54.0881C156.315 53.9731 155.894 53.7816 155.53 53.5326C155.166 53.2836 154.878 52.9484 154.658 52.5557C154.447 52.1534 154.333 51.6745 154.333 51.1095C154.333 50.7838 154.38 50.4678 154.467 50.1613C154.562 49.8452 154.687 49.5579 154.859 49.2898C155.032 49.0216 155.233 48.7917 155.463 48.5906C155.693 48.3894 155.942 48.2362 156.2 48.1309C155.779 47.9489 155.424 47.6807 155.137 47.3359C154.85 46.9911 154.706 46.5218 154.706 45.9376C154.706 45.5066 154.792 45.1331 154.955 44.817C155.118 44.5009 155.348 44.2328 155.625 44.0221C155.903 43.8114 156.238 43.6581 156.631 43.5528C157.014 43.4474 157.426 43.3995 157.857 43.3995C158.106 43.3995 158.393 43.4187 158.709 43.457C159.026 43.4953 159.351 43.5719 159.686 43.6869C159.677 43.9071 159.648 44.1083 159.6 44.2807C159.552 44.4531 159.476 44.6159 159.37 44.7883C159.112 44.7117 158.872 44.6542 158.642 44.6159C158.413 44.5776 158.183 44.568 157.953 44.568C157.627 44.568 157.359 44.6063 157.139 44.6925C156.918 44.7787 156.737 44.8841 156.593 45.0181C156.449 45.1522 156.353 45.2959 156.286 45.4683C156.229 45.6215 156.2 45.7939 156.2 45.9663ZM158.403 52.9484C158.968 52.9484 159.437 52.8717 159.801 52.7281C160.165 52.5844 160.453 52.3833 160.654 52.1439C160.855 51.9044 160.999 51.6171 161.075 51.2914C161.152 50.9658 161.19 50.6402 161.19 50.2954V48.5523H158.221C157.867 48.5523 157.551 48.6097 157.273 48.7342C156.986 48.8588 156.756 49.0215 156.555 49.2418C156.363 49.4525 156.21 49.7016 156.104 49.9793C155.999 50.2571 155.942 50.554 155.942 50.8604C155.942 51.5309 156.152 52.0481 156.574 52.4025C156.995 52.7664 157.608 52.9484 158.403 52.9484Z" fill="#1D3A62"/>
<path d="M171.131 43.5719C171.246 43.5528 171.38 43.5336 171.534 43.5241C171.687 43.5145 171.831 43.5145 171.965 43.5145C172.099 43.5145 172.252 43.5145 172.415 43.5241C172.578 43.5336 172.712 43.5528 172.817 43.5719L175.537 50.1517L178.276 43.5719C178.372 43.5528 178.497 43.5336 178.64 43.5241C178.784 43.5145 178.928 43.5145 179.062 43.5145C179.186 43.5145 179.33 43.5145 179.483 43.5241C179.636 43.5336 179.77 43.5528 179.876 43.5719L180.374 54.0881C180.259 54.1072 180.134 54.1264 180.019 54.136C179.904 54.1456 179.77 54.1551 179.646 54.1551C179.521 54.1551 179.397 54.1456 179.272 54.136C179.148 54.1264 179.033 54.1072 178.928 54.0881L178.592 45.9089L176.016 51.9044C175.824 51.9332 175.623 51.9427 175.413 51.9427C175.231 51.9427 175.039 51.9332 174.857 51.9044L172.367 45.861L172.032 54.0785C171.926 54.0977 171.811 54.1168 171.696 54.1264C171.582 54.136 171.467 54.1456 171.361 54.1456C171.237 54.1456 171.112 54.136 170.997 54.1264C170.882 54.1168 170.767 54.0977 170.662 54.0785L171.131 43.5719Z" fill="#1D3A62"/>
<path d="M183.515 43.5719H189.291C189.319 43.7635 189.339 43.9837 189.339 44.2136C189.339 44.3189 189.339 44.4339 189.329 44.5488C189.319 44.6638 189.31 44.7691 189.291 44.8744H185V47.8914H188.429C188.448 47.9872 188.467 48.0925 188.477 48.2075C188.486 48.3224 188.486 48.4277 188.486 48.5331C188.486 48.6384 188.486 48.7534 188.477 48.8683C188.467 48.9833 188.448 49.0886 188.429 49.1939H185V52.7951H189.406C189.434 52.9867 189.454 53.2069 189.454 53.4368C189.454 53.5421 189.454 53.6571 189.444 53.772C189.434 53.887 189.425 53.9923 189.406 54.0976H183.506V43.5719H183.515Z" fill="#1D3A62"/>
<path d="M192.097 43.5719C192.432 43.5336 192.825 43.4953 193.294 43.4666C193.763 43.4283 194.223 43.4187 194.673 43.4187C196.512 43.4187 197.891 43.888 198.801 44.8266C199.711 45.7652 200.171 47.1061 200.171 48.8683C200.171 50.7072 199.701 52.0673 198.772 52.9484C197.843 53.8391 196.455 54.2796 194.606 54.2796C194.146 54.2796 193.696 54.2605 193.246 54.2318C192.796 54.1934 192.413 54.1551 192.087 54.1072V43.5719H192.097ZM193.591 52.8622C193.725 52.8813 193.897 52.9005 194.099 52.91C194.3 52.9196 194.51 52.9292 194.731 52.9292C195.305 52.9292 195.832 52.8622 196.301 52.7281C196.771 52.594 197.183 52.3737 197.527 52.0672C197.872 51.7512 198.131 51.3297 198.313 50.803C198.495 50.2762 198.59 49.6058 198.59 48.8109C198.59 48.083 198.495 47.4508 198.313 46.9337C198.131 46.4165 197.872 45.995 197.527 45.6694C197.183 45.3438 196.79 45.1043 196.321 44.9607C195.851 44.817 195.334 44.7404 194.769 44.7404C194.587 44.7404 194.376 44.7404 194.166 44.7499C193.945 44.7595 193.754 44.7691 193.591 44.7979V52.8622Z" fill="#1D3A62"/>
<path d="M203.044 43.5719C203.159 43.5528 203.283 43.5336 203.408 43.5241C203.532 43.5145 203.657 43.5145 203.791 43.5145C203.915 43.5145 204.04 43.5145 204.174 43.5241C204.298 43.5336 204.423 43.5528 204.538 43.5719V54.0881C204.423 54.1072 204.298 54.1264 204.184 54.136C204.059 54.1456 203.935 54.1551 203.791 54.1551C203.666 54.1551 203.532 54.1456 203.408 54.136C203.283 54.1264 203.159 54.1072 203.053 54.0881V43.5719H203.044Z" fill="#1D3A62"/>
<path d="M214.556 52.5557C214.767 52.9771 214.91 53.3794 214.968 53.7721C214.556 53.9445 214.135 54.0785 213.713 54.1551C213.282 54.2317 212.823 54.27 212.325 54.27C211.568 54.27 210.878 54.1456 210.265 53.8966C209.652 53.6476 209.145 53.2932 208.723 52.8239C208.302 52.3642 207.986 51.7991 207.756 51.1382C207.536 50.4774 207.421 49.7303 207.421 48.897C207.421 48.0542 207.536 47.2976 207.756 46.6176C207.976 45.9376 208.302 45.3629 208.723 44.884C209.145 44.4052 209.652 44.0413 210.256 43.7827C210.859 43.5241 211.539 43.3995 212.286 43.3995C212.842 43.3995 213.321 43.4378 213.723 43.5145C214.125 43.5911 214.479 43.6868 214.796 43.7922C214.776 44.0125 214.738 44.2232 214.671 44.4148C214.604 44.6063 214.527 44.8074 214.441 45.0181C214.297 44.9703 214.154 44.9224 214.02 44.884C213.886 44.8457 213.732 44.8074 213.579 44.7787C213.426 44.75 213.254 44.7308 213.062 44.7117C212.87 44.7021 212.66 44.6925 212.411 44.6925C211.348 44.6925 210.524 45.0564 209.93 45.7748C209.336 46.4931 209.049 47.537 209.049 48.8875C209.049 49.577 209.135 50.1804 209.298 50.688C209.461 51.1957 209.7 51.6171 209.997 51.9427C210.304 52.2779 210.668 52.527 211.089 52.6898C211.51 52.8526 211.989 52.9388 212.516 52.9388C212.928 52.9388 213.292 52.9005 213.627 52.8334C213.953 52.7759 214.269 52.6802 214.556 52.5557Z" fill="#1D3A62"/>
<path d="M222.793 51.6554H218.799L218.081 54.0881C217.956 54.1072 217.832 54.1264 217.698 54.136C217.573 54.1456 217.448 54.1551 217.314 54.1551C217.18 54.1551 217.046 54.1456 216.912 54.136C216.778 54.1264 216.663 54.1072 216.548 54.0881L219.977 43.5719C220.101 43.5528 220.236 43.5336 220.389 43.5241C220.532 43.5145 220.686 43.5145 220.839 43.5145C220.973 43.5145 221.117 43.5145 221.26 43.5241C221.404 43.5336 221.548 43.5528 221.682 43.5719L225.091 54.0881C224.976 54.1072 224.842 54.1264 224.699 54.136C224.555 54.1456 224.411 54.1551 224.277 54.1551C224.153 54.1551 224.019 54.1456 223.885 54.136C223.751 54.1264 223.626 54.1072 223.511 54.0881L222.793 51.6554ZM219.192 50.3529H222.4L220.791 44.9799L219.192 50.3529Z" fill="#1D3A62"/>
<path d="M227.371 43.5719C227.476 43.5528 227.591 43.5336 227.716 43.5241C227.84 43.5145 227.965 43.5145 228.108 43.5145C228.233 43.5145 228.357 43.5145 228.492 43.5241C228.616 43.5336 228.741 43.5528 228.855 43.5719V52.776H232.983C233.003 52.8813 233.012 52.9963 233.022 53.1112C233.022 53.2261 233.031 53.3315 233.031 53.4368C233.031 53.6762 233.012 53.887 232.983 54.0977H227.381V43.5719H227.371Z" fill="#1D3A62"/>
<path d="M0.566159 11.7744C0.451228 9.06398 1.45687 6.65045 3.09464 4.66789C4.99099 2.3597 7.41412 0.683634 10.546 0.185601C14.6356 -0.465674 18.1027 0.664472 21.043 3.4707C23.1309 5.46283 25.1326 7.54117 27.1726 9.58119C28.638 11.0466 29.4904 11.037 30.9462 9.61948C33.3502 7.28255 35.5243 4.67749 38.1581 2.58958C43.8567 -1.93103 52.0551 -0.341172 55.8191 5.86509C58.8552 10.8646 57.7442 16.9272 54.0664 20.5379C51.7678 22.7982 49.4979 25.0873 47.2185 27.3667C46.8354 27.7498 46.4714 28.1521 46.0979 28.5448C45.3892 29.0811 44.7858 29.7132 44.2207 30.3932C42.037 32.5673 39.8437 34.7318 37.6601 36.9155C36.8651 37.7105 36.0223 38.4384 35.0358 38.9843C30.1608 41.6756 24.4813 40.8807 20.545 36.9635C18.2847 34.7127 16.0243 32.4812 13.7545 30.24C13.1606 29.6558 12.5764 29.0715 11.9826 28.4777C9.36794 25.8343 6.75326 23.2005 4.13859 20.5475C3.02759 19.4174 2.09857 18.1531 1.46645 16.6877C1.31321 16.2567 1.16955 15.8258 1.01631 15.3948C0.872642 14.552 0.728967 13.7091 0.585303 12.8759C0.585303 12.5023 0.575736 12.1384 0.566159 11.7744ZM42.3818 28.5352C43.0714 27.9797 43.7035 27.3668 44.2494 26.6676C47.4004 23.3825 50.9824 20.5188 53.6546 16.7835C53.9323 16.5154 54.0569 16.1801 54.1526 15.8162C54.2197 15.7013 54.3154 15.5959 54.3633 15.4714C55.9628 11.468 54.4591 6.69835 50.8101 4.23692C47.094 1.71802 42.1711 2.12027 39.0201 5.21382C36.482 7.71357 33.9823 10.2516 31.4538 12.7609C29.7298 14.4753 28.4177 14.4466 26.665 12.7035C24.194 10.2325 21.7709 7.71356 19.252 5.30002C16.3596 2.5321 12.9116 1.79463 9.20511 3.29831C5.66141 4.73494 3.60224 7.44542 3.26702 11.3435C3.01801 13.5846 3.55435 15.615 4.92394 17.4156C5.00056 17.5593 5.05803 17.7317 5.17296 17.8466C8.07497 20.7391 10.8046 23.8135 13.8885 26.5239C14.3962 27.2135 15.0283 27.769 15.6604 28.3437C17.9973 30.6997 20.3055 33.0941 22.6903 35.4118C26.0042 38.6203 31.1665 38.9269 34.7676 36.0057C37.5355 33.7646 39.882 31.0636 42.3818 28.5352Z" fill="#1479FF"/>
<path d="M44.229 30.3932C44.7941 29.7132 45.3975 29.0715 46.1062 28.5447C48.7401 31.1881 51.3548 33.8603 54.0365 36.4558C55.3869 37.7583 56.4788 39.3578 56.9193 41.0243C57.992 45.0565 57.5897 48.9832 54.7165 52.3641C52.9829 54.4041 50.9046 55.8121 48.2995 56.5016C44.0183 57.6414 40.3214 56.5304 37.1512 53.5805C34.9005 51.4734 32.7743 49.2227 30.581 47.039C29.3838 45.8418 28.5985 45.8609 27.3821 47.0294C24.8153 49.5004 22.555 52.3162 19.7009 54.452C15.6687 57.469 11.2056 57.8425 6.80949 55.3811C2.41339 52.9196 0.287172 48.9929 0.526611 43.8976C0.660697 41.1105 1.79085 38.7161 3.69678 36.7431C6.41681 33.9369 9.20388 31.2169 11.9718 28.4586C12.5656 29.0428 13.1498 29.627 13.7437 30.2208C11.1098 32.8642 8.44726 35.4789 5.85174 38.1606C4.61623 39.4345 3.63932 40.8519 3.2658 42.7004C2.41339 46.8475 4.24271 51.0712 7.99712 53.1782C11.6079 55.2087 16.1668 54.567 19.155 51.6075C21.4632 49.3185 23.7618 47.0007 26.07 44.7021C26.3286 44.4435 26.5968 44.1658 26.9032 43.9646C28.474 42.9303 30.2362 43.1601 31.7016 44.5776C34.3833 47.1731 36.8256 50.0176 39.7084 52.3929C43.4245 55.4577 48.9412 54.8639 52.3891 51.1765C55.6264 47.719 55.7221 42.0778 52.4849 38.6682C49.8032 35.8428 46.9874 33.1515 44.229 30.3932Z" fill="#1479FF"/>
<path d="M42.3806 28.5352C40.0341 26.1791 37.745 23.756 35.3219 21.4861C32.6115 18.948 29.403 18.3638 25.8689 19.4844C24.4131 19.9441 23.2063 20.7486 22.1336 21.8596C20.017 24.0625 17.8237 26.1887 15.6592 28.3437C15.0271 27.7786 14.3949 27.2135 13.8873 26.5239C16.071 24.3402 18.3026 22.2044 20.4288 19.9728C24.9782 15.1936 32.8413 15.1362 37.5439 19.9824C39.7468 22.2427 42.0071 24.4456 44.2386 26.6676C43.6927 27.3667 43.0702 27.9797 42.3806 28.5352Z" fill="#E32940"/>
</svg>
