<svg width="205" height="50" viewBox="0 0 205 50" fill="none" xmlns="http://www.w3.org/2000/svg">
<path d="M71.303 4.8088C72.2187 4.67438 73.0925 4.60718 73.941 4.60718C74.8316 4.60718 75.7053 4.67438 76.579 4.8088L82.2248 18.9063L88.0385 4.8088C88.7442 4.67438 89.534 4.60718 90.3993 4.60718C91.2646 4.60718 92.0964 4.67438 92.8945 4.8088L94.0623 29.4165C93.197 29.5509 92.3736 29.6265 91.6007 29.6265C90.8278 29.6265 90.0633 29.5593 89.3071 29.4165L88.6938 12.7145L83.695 24.2832C83.3758 24.3252 83.0481 24.3672 82.7036 24.4008C82.3592 24.4344 82.0231 24.4512 81.6787 24.4512C81.3846 24.4512 81.0822 24.4428 80.7881 24.4176C80.4941 24.3924 80.1832 24.3504 79.864 24.2832L75.2096 12.4792L74.7307 29.4165C73.9998 29.5509 73.2941 29.6265 72.6052 29.6265C71.8743 29.6265 71.1181 29.5593 70.3452 29.4165L71.303 4.8088Z" fill="white"/>
<path d="M98.582 4.80878H112.545C112.68 5.48929 112.747 6.18662 112.747 6.90074C112.747 7.65686 112.68 8.37099 112.545 9.0599H103.581V14.3948H110.697C110.831 15.1257 110.898 15.8314 110.898 16.5203C110.898 17.2512 110.831 17.9737 110.697 18.6794H103.581V25.1821H112.789C112.923 25.8626 112.99 26.56 112.99 27.2657C112.99 28.0218 112.923 28.7359 112.789 29.4248H98.582V4.80878Z" fill="white"/>
<path d="M116.855 4.80882C117.813 4.6912 118.813 4.59878 119.863 4.51476C120.913 4.43075 122.072 4.39716 123.349 4.39716C127.659 4.39716 130.944 5.47252 133.187 7.61487C135.431 9.75723 136.556 12.9749 136.556 17.2681C136.556 21.578 135.414 24.7537 133.137 26.7784C130.852 28.8116 127.466 29.8281 122.971 29.8281C121.804 29.8281 120.737 29.7861 119.754 29.7105C118.771 29.6265 117.804 29.5341 116.847 29.4165V4.80882H116.855ZM121.888 25.4426C122.089 25.4678 122.358 25.493 122.677 25.5098C122.996 25.535 123.383 25.5434 123.837 25.5434C124.887 25.5434 125.861 25.4258 126.76 25.1821C127.659 24.9385 128.441 24.5017 129.104 23.8632C129.768 23.2247 130.289 22.3677 130.675 21.2923C131.062 20.217 131.255 18.8391 131.255 17.1504C131.255 15.5037 131.062 14.1428 130.675 13.0422C130.289 11.9416 129.76 11.0846 129.104 10.4377C128.441 9.79922 127.684 9.34556 126.828 9.08511C125.971 8.82467 125.063 8.69027 124.105 8.69027C123.786 8.69027 123.417 8.69864 122.996 8.70704C122.576 8.71544 122.207 8.74908 121.888 8.79109V25.4426Z" fill="white"/>
<path d="M156.967 24.7625C157.261 25.4011 157.505 26.0564 157.706 26.7285C157.9 27.4007 158.043 28.0812 158.135 28.7617C156.95 29.1986 155.883 29.4843 154.933 29.6187C153.984 29.7531 152.967 29.8203 151.866 29.8203C149.925 29.8203 148.228 29.5095 146.765 28.8793C145.303 28.2492 144.076 27.3754 143.085 26.2412C142.093 25.1154 141.345 23.7712 140.841 22.2169C140.337 20.6626 140.085 18.9738 140.085 17.1507C140.085 15.3276 140.345 13.6305 140.875 12.0678C141.396 10.5051 142.161 9.15244 143.152 8.00983C144.144 6.86721 145.362 5.9766 146.816 5.33808C148.261 4.69956 149.917 4.38031 151.765 4.38031C152.858 4.38031 153.866 4.44754 154.791 4.58197C155.715 4.71639 156.715 5.00201 157.782 5.43889C157.74 6.11942 157.597 6.79155 157.37 7.43847C157.143 8.0854 156.891 8.74074 156.614 9.40447C155.816 9.12722 155.11 8.93398 154.488 8.82476C153.875 8.71554 153.143 8.65671 152.295 8.65671C150.102 8.65671 148.421 9.37084 147.244 10.7991C146.068 12.2274 145.48 14.3446 145.48 17.1507C145.48 22.721 147.841 25.5019 152.564 25.5019C153.404 25.5019 154.152 25.4431 154.791 25.3339C155.454 25.2331 156.169 25.0314 156.967 24.7625Z" fill="white"/>
<path d="M84.3589 38.2211C84.4597 38.2043 84.5689 38.1875 84.6781 38.1791C84.7874 38.1707 84.8966 38.1707 85.0142 38.1707C85.1234 38.1707 85.2326 38.1707 85.3503 38.1791C85.4595 38.1875 85.5687 38.2043 85.6695 38.2211V42.0185H89.593V38.2211C89.6854 38.2043 89.7862 38.1875 89.9038 38.1791C90.013 38.1707 90.1222 38.1707 90.2399 38.1707C90.3491 38.1707 90.4667 38.1707 90.5759 38.1791C90.6935 38.1875 90.8028 38.2043 90.9036 38.2211V47.4458C90.8112 47.4626 90.7103 47.4794 90.5927 47.4878C90.4835 47.4962 90.3659 47.5046 90.2483 47.5046C90.139 47.5046 90.0214 47.4962 89.9122 47.4878C89.803 47.4794 89.6938 47.4626 89.6014 47.4458V43.1695H85.6779V47.4458C85.5771 47.4626 85.4679 47.4794 85.3671 47.4878C85.2578 47.4962 85.1486 47.5046 85.031 47.5046C84.9218 47.5046 84.8042 47.4962 84.6949 47.4878C84.5773 47.4794 84.4765 47.4626 84.3841 47.4458V38.2211H84.3589Z" fill="white"/>
<path d="M93.8019 38.221H98.8679C98.8931 38.389 98.9099 38.5823 98.9099 38.7839C98.9099 38.8763 98.9099 38.9771 98.9015 39.078C98.8931 39.1788 98.8847 39.2712 98.8679 39.3636H95.1041V42.01H98.1034C98.1202 42.0941 98.137 42.1865 98.1454 42.2873C98.1538 42.3881 98.1622 42.4805 98.1622 42.5729C98.1622 42.6653 98.1538 42.7662 98.1454 42.867C98.137 42.9678 98.1202 43.0602 98.1034 43.1526H95.1041V46.3115H98.9687C98.9939 46.4796 99.0107 46.6728 99.0107 46.8744C99.0107 46.9668 99.0107 47.0677 99.0023 47.1685C98.9939 47.2693 98.9855 47.3617 98.9687 47.4541H93.7935V38.221H93.8019Z" fill="white"/>
<path d="M105.866 45.3118H102.363L101.733 47.4458C101.624 47.4626 101.514 47.4794 101.397 47.4878C101.279 47.4962 101.17 47.5046 101.061 47.5046C100.943 47.5046 100.825 47.4962 100.708 47.4878C100.59 47.4794 100.489 47.4626 100.397 47.4458L103.396 38.2211C103.505 38.2043 103.623 38.1875 103.758 38.1791C103.884 38.1707 104.018 38.1707 104.152 38.1707C104.27 38.1707 104.396 38.1707 104.522 38.1791C104.648 38.1875 104.774 38.2043 104.892 38.2211L107.883 47.4458C107.782 47.4626 107.664 47.4794 107.538 47.4878C107.412 47.4962 107.286 47.5046 107.168 47.5046C107.059 47.5046 106.942 47.4962 106.832 47.4878C106.715 47.4794 106.606 47.4626 106.505 47.4458L105.866 45.3118ZM102.716 44.1693H105.53L104.119 39.4561L102.716 44.1693Z" fill="white"/>
<path d="M109.882 38.2211C109.975 38.2043 110.076 38.1875 110.185 38.1791C110.294 38.1707 110.403 38.1707 110.521 38.1707C110.63 38.1707 110.739 38.1707 110.857 38.1791C110.966 38.1875 111.075 38.2043 111.176 38.2211V46.2948H114.797C114.814 46.3872 114.822 46.488 114.831 46.5889C114.831 46.6897 114.839 46.7821 114.839 46.8745C114.839 47.0845 114.831 47.2693 114.797 47.4542H109.882V38.2211Z" fill="white"/>
<path d="M117.25 39.3553H114.847C114.83 39.2713 114.814 39.1788 114.805 39.0696C114.797 38.9688 114.797 38.868 114.797 38.7756C114.797 38.6832 114.797 38.5823 114.805 38.4899C114.814 38.3891 114.83 38.2967 114.847 38.2126H120.955C120.972 38.2967 120.989 38.3891 120.997 38.4815C121.005 38.5739 121.014 38.6663 121.014 38.7672C121.014 38.868 121.005 38.9604 120.997 39.0696C120.989 39.1788 120.972 39.2713 120.955 39.3553H118.552V47.4374C118.359 47.4626 118.141 47.4794 117.914 47.4794C117.67 47.4794 117.452 47.471 117.25 47.4374V39.3553Z" fill="white"/>
<path d="M123.056 38.2211C123.156 38.2043 123.266 38.1875 123.375 38.1791C123.484 38.1707 123.593 38.1707 123.711 38.1707C123.82 38.1707 123.929 38.1707 124.047 38.1791C124.156 38.1875 124.265 38.2043 124.366 38.2211V42.0185H128.29V38.2211C128.382 38.2043 128.483 38.1875 128.601 38.1791C128.71 38.1707 128.819 38.1707 128.937 38.1707C129.054 38.1707 129.163 38.1707 129.281 38.1791C129.399 38.1875 129.508 38.2043 129.609 38.2211V47.4458C129.516 47.4626 129.416 47.4794 129.298 47.4878C129.18 47.4962 129.071 47.5046 128.953 47.5046C128.844 47.5046 128.727 47.4962 128.609 47.4878C128.491 47.4794 128.391 47.4626 128.298 47.4458V43.1695H124.375V47.4458C124.274 47.4626 124.165 47.4794 124.064 47.4878C123.963 47.4962 123.845 47.5046 123.728 47.5046C123.619 47.5046 123.501 47.4962 123.383 47.4878C123.266 47.4794 123.165 47.4626 123.072 47.4458V38.2211H123.056Z" fill="white"/>
<path d="M137.43 40.3214C137.43 40.691 137.556 40.9851 137.8 41.2035C138.044 41.422 138.438 41.5312 138.976 41.5312H141.774L142.958 39.9181H143.059V41.5312H144.731C144.765 41.674 144.781 41.8421 144.781 42.0353C144.781 42.1277 144.773 42.2201 144.765 42.3125C144.756 42.4049 144.739 42.4889 144.723 42.573H143.051V44.4717C143.051 44.9926 142.958 45.4546 142.782 45.8411C142.606 46.2276 142.345 46.5636 142.009 46.824C141.673 47.0845 141.278 47.2777 140.808 47.4037C140.337 47.5298 139.825 47.597 139.262 47.597C138.808 47.597 138.371 47.5466 137.951 47.4457C137.531 47.3449 137.161 47.1769 136.842 46.9585C136.523 46.7401 136.271 46.446 136.078 46.1015C135.893 45.7487 135.792 45.3286 135.792 44.8329C135.792 44.5473 135.834 44.27 135.91 44.0012C135.994 43.724 136.103 43.4719 136.254 43.2367C136.405 43.0015 136.582 42.7998 136.783 42.6234C136.985 42.4469 137.203 42.3125 137.43 42.2201C137.061 42.0605 136.75 41.8252 136.498 41.5228C136.246 41.2203 136.12 40.8087 136.12 40.2962C136.12 39.9181 136.195 39.5905 136.338 39.3132C136.481 39.036 136.683 38.8008 136.926 38.6159C137.17 38.4311 137.464 38.2966 137.808 38.2042C138.144 38.1118 138.506 38.0698 138.884 38.0698C139.102 38.0698 139.354 38.0866 139.631 38.1202C139.909 38.1538 140.194 38.221 140.488 38.3219C140.48 38.5151 140.455 38.6915 140.413 38.8427C140.371 38.994 140.304 39.1368 140.211 39.288C139.984 39.2208 139.774 39.1704 139.573 39.1368C139.371 39.1032 139.169 39.0948 138.968 39.0948C138.682 39.0948 138.447 39.1284 138.254 39.204C138.06 39.2796 137.901 39.372 137.775 39.4897C137.649 39.6073 137.565 39.7333 137.506 39.8845C137.455 40.0189 137.43 40.1702 137.43 40.3214ZM139.363 46.446C139.858 46.446 140.27 46.3788 140.589 46.2528C140.908 46.1267 141.16 45.9503 141.337 45.7403C141.513 45.5303 141.639 45.2782 141.707 44.9926C141.774 44.7069 141.807 44.4213 141.807 44.1188V42.5898H139.203C138.892 42.5898 138.615 42.6402 138.371 42.7494C138.119 42.8586 137.918 43.0014 137.741 43.1946C137.573 43.3795 137.439 43.5979 137.346 43.8416C137.254 44.0852 137.203 44.3456 137.203 44.6145C137.203 45.2026 137.388 45.6563 137.758 45.9671C138.128 46.2864 138.665 46.446 139.363 46.446Z" fill="white"/>
<path d="M150.528 38.2211C150.629 38.2043 150.747 38.1875 150.881 38.1791C151.016 38.1707 151.142 38.1707 151.259 38.1707C151.377 38.1707 151.511 38.1707 151.654 38.1791C151.797 38.1875 151.915 38.2043 152.007 38.2211L154.393 43.9928L156.796 38.2211C156.88 38.2043 156.989 38.1875 157.115 38.1791C157.241 38.1707 157.367 38.1707 157.485 38.1707C157.594 38.1707 157.72 38.1707 157.854 38.1791C157.989 38.1875 158.106 38.2043 158.199 38.2211L158.636 47.4458C158.535 47.4626 158.426 47.4794 158.325 47.4878C158.224 47.4962 158.106 47.5046 157.997 47.5046C157.888 47.5046 157.779 47.4962 157.67 47.4878C157.56 47.4794 157.459 47.4626 157.367 47.4458L157.073 40.271L154.813 45.5303C154.645 45.5555 154.469 45.5639 154.284 45.5639C154.124 45.5639 153.956 45.5555 153.796 45.5303L151.612 40.229L151.318 47.4374C151.226 47.4542 151.125 47.471 151.024 47.4794C150.923 47.4878 150.822 47.4962 150.73 47.4962C150.621 47.4962 150.512 47.4878 150.411 47.4794C150.31 47.471 150.209 47.4542 150.117 47.4374L150.528 38.2211Z" fill="white"/>
<path d="M161.391 38.221H166.457C166.482 38.389 166.499 38.5823 166.499 38.7839C166.499 38.8763 166.499 38.9771 166.491 39.078C166.482 39.1788 166.474 39.2712 166.457 39.3636H162.693V42.01H165.701C165.718 42.0941 165.735 42.1865 165.743 42.2873C165.752 42.3881 165.752 42.4805 165.752 42.5729C165.752 42.6653 165.752 42.7662 165.743 42.867C165.735 42.9678 165.718 43.0602 165.701 43.1526H162.693V46.3115H166.558C166.583 46.4796 166.6 46.6728 166.6 46.8744C166.6 46.9668 166.6 47.0677 166.592 47.1685C166.583 47.2693 166.575 47.3617 166.558 47.4541H161.383V38.221H161.391Z" fill="white"/>
<path d="M168.919 38.2211C169.213 38.1875 169.557 38.1539 169.969 38.1287C170.38 38.0951 170.784 38.0867 171.179 38.0867C172.792 38.0867 174.001 38.4983 174.8 39.3216C175.598 40.145 176.001 41.3212 176.001 42.8671C176.001 44.4801 175.589 45.6731 174.774 46.4461C173.959 47.2274 172.741 47.6138 171.12 47.6138C170.716 47.6138 170.322 47.597 169.927 47.5718C169.532 47.5382 169.196 47.5046 168.91 47.4626V38.2211H168.919ZM170.229 46.3704C170.347 46.3872 170.498 46.404 170.674 46.4124C170.851 46.4208 171.036 46.4292 171.229 46.4292C171.733 46.4292 172.195 46.3704 172.607 46.2528C173.018 46.1352 173.38 45.9419 173.682 45.6731C173.985 45.3958 174.211 45.0262 174.371 44.5641C174.531 44.102 174.615 43.514 174.615 42.8167C174.615 42.1781 174.531 41.6236 174.371 41.17C174.211 40.7163 173.985 40.3466 173.682 40.061C173.38 39.7753 173.035 39.5653 172.624 39.4393C172.212 39.3133 171.758 39.2461 171.263 39.2461C171.103 39.2461 170.918 39.246 170.733 39.2544C170.54 39.2628 170.372 39.2713 170.229 39.2965V46.3704Z" fill="white"/>
<path d="M178.521 38.2211C178.622 38.2043 178.732 38.1875 178.841 38.1791C178.95 38.1707 179.059 38.1707 179.177 38.1707C179.286 38.1707 179.395 38.1707 179.513 38.1791C179.622 38.1875 179.731 38.2043 179.832 38.2211V47.4458C179.731 47.4626 179.622 47.4794 179.521 47.4878C179.412 47.4962 179.303 47.5046 179.177 47.5046C179.068 47.5046 178.95 47.4962 178.841 47.4878C178.732 47.4794 178.622 47.4626 178.53 47.4458V38.2211H178.521Z" fill="white"/>
<path d="M188.62 46.1015C188.805 46.4712 188.931 46.8241 188.981 47.1685C188.62 47.3198 188.25 47.4373 187.881 47.5046C187.502 47.5718 187.099 47.6054 186.662 47.6054C185.999 47.6054 185.394 47.4962 184.856 47.2778C184.318 47.0593 183.873 46.7485 183.503 46.3368C183.134 45.9335 182.857 45.4378 182.655 44.8582C182.462 44.2785 182.361 43.6231 182.361 42.8922C182.361 42.1529 182.462 41.4892 182.655 40.8927C182.848 40.2962 183.134 39.7921 183.503 39.372C183.873 38.952 184.318 38.6327 184.848 38.4059C185.377 38.1791 185.973 38.0698 186.629 38.0698C187.116 38.0698 187.536 38.1034 187.889 38.1706C188.242 38.2378 188.553 38.3218 188.83 38.4143C188.813 38.6075 188.78 38.7923 188.721 38.9604C188.662 39.1284 188.595 39.3048 188.519 39.4897C188.393 39.4477 188.267 39.4056 188.149 39.372C188.032 39.3384 187.897 39.3048 187.763 39.2796C187.629 39.2544 187.477 39.2376 187.309 39.2208C187.141 39.2124 186.956 39.204 186.738 39.204C185.805 39.204 185.083 39.5232 184.562 40.1534C184.041 40.7835 183.789 41.6992 183.789 42.8838C183.789 43.4887 183.865 44.018 184.008 44.4633C184.15 44.9085 184.36 45.2782 184.621 45.5638C184.89 45.8579 185.209 46.0764 185.579 46.2192C185.948 46.362 186.368 46.4376 186.83 46.4376C187.192 46.4376 187.511 46.404 187.805 46.3452C188.091 46.2948 188.368 46.2108 188.62 46.1015Z" fill="white"/>
<path d="M195.845 45.3118H192.342L191.712 47.4458C191.602 47.4626 191.493 47.4794 191.376 47.4878C191.266 47.4962 191.157 47.5046 191.04 47.5046C190.922 47.5046 190.804 47.4962 190.687 47.4878C190.569 47.4794 190.468 47.4626 190.367 47.4458L193.375 38.2211C193.484 38.2043 193.602 38.1875 193.736 38.1791C193.862 38.1707 193.997 38.1707 194.131 38.1707C194.249 38.1707 194.375 38.1707 194.501 38.1791C194.627 38.1875 194.753 38.2043 194.871 38.2211L197.861 47.4458C197.761 47.4626 197.643 47.4794 197.517 47.4878C197.391 47.4962 197.265 47.5046 197.147 47.5046C197.038 47.5046 196.92 47.4962 196.803 47.4878C196.685 47.4794 196.576 47.4626 196.475 47.4458L195.845 45.3118ZM192.686 44.1693H195.501L194.089 39.4561L192.686 44.1693Z" fill="white"/>
<path d="M199.861 38.2211C199.953 38.2043 200.054 38.1875 200.164 38.1791C200.273 38.1707 200.382 38.1707 200.508 38.1707C200.617 38.1707 200.726 38.1707 200.844 38.1791C200.953 38.1875 201.062 38.2043 201.163 38.2211V46.2948H204.784C204.801 46.3872 204.809 46.488 204.818 46.5889C204.818 46.6897 204.826 46.7821 204.826 46.8745C204.826 47.0845 204.809 47.2693 204.784 47.4542H199.869V38.2211H199.861Z" fill="white"/>
<path d="M0.909181 10.3285C0.808365 7.95087 1.69051 5.83373 3.12714 4.09465C4.79062 2.06992 6.91617 0.59968 9.66342 0.162808C13.2508 -0.408486 16.2921 0.582871 18.8713 3.04448C20.7028 4.79196 22.4587 6.61507 24.2482 8.40456C25.5336 9.68997 26.2813 9.68155 27.5584 8.43815C29.6671 6.38821 31.5742 4.10306 33.8846 2.27156C38.8834 -1.69389 46.075 -0.299274 49.3767 5.14482C52.04 9.53034 51.0654 14.8484 47.8393 18.0157C45.823 19.9985 43.8318 22.0064 41.8323 24.0059C41.4962 24.342 41.177 24.6948 40.8493 25.0393C40.2276 25.5098 39.6984 26.0642 39.2027 26.6607C37.2872 28.5679 35.3632 30.4666 33.4477 32.3821C32.7504 33.0794 32.0111 33.7179 31.1457 34.1968C26.8694 36.5576 21.8874 35.8603 18.4345 32.4241C16.4517 30.4498 14.469 28.4923 12.4779 26.5263C11.957 26.0139 11.4445 25.5014 10.9236 24.9805C8.63005 22.6617 6.33647 20.3513 4.04289 18.0242C3.06833 17.0328 2.2534 15.9238 1.69891 14.6384C1.56449 14.2603 1.43847 13.8823 1.30405 13.5042C1.17803 12.7649 1.052 12.0256 0.925975 11.2946C0.925975 10.967 0.917582 10.6477 0.909181 10.3285ZM37.5896 25.0309C38.1945 24.5436 38.749 24.0059 39.2279 23.3926C41.9919 20.511 45.134 17.999 47.478 14.7224C47.7217 14.4872 47.8309 14.1931 47.9149 13.8739C47.9737 13.773 48.0577 13.6806 48.0997 13.5714C49.5028 10.0597 48.1837 5.87576 44.9828 3.7166C41.7231 1.50704 37.4048 1.85989 34.6407 4.57353C32.4144 6.76629 30.2216 8.99266 28.0036 11.1938C26.4914 12.6977 25.3404 12.6725 23.8029 11.1434C21.6354 8.97586 19.5098 6.76629 17.3003 4.64914C14.7631 2.22114 11.7386 1.57424 8.48722 2.89326C5.37871 4.15346 3.57241 6.53107 3.27836 9.95044C3.05993 11.9164 3.5304 13.6974 4.7318 15.2769C4.79901 15.4029 4.84943 15.5541 4.95024 15.655C7.49586 18.1922 9.89025 20.889 12.5955 23.2666C13.0408 23.8715 13.5953 24.3588 14.1498 24.8629C16.1997 26.9296 18.2244 29.0299 20.3164 31.0631C23.2232 33.8775 27.7516 34.1464 30.9105 31.584C33.3385 29.6181 35.3968 27.2488 37.5896 25.0309Z" fill="white"/>
<path d="M39.2099 26.6607C39.7055 26.0642 40.2348 25.5013 40.8565 25.0393C43.1669 27.358 45.4605 29.702 47.8129 31.9788C48.9975 33.1214 49.9552 34.5245 50.3417 35.9863C51.2826 39.5233 50.9298 42.9678 48.4094 45.9335C46.8887 47.723 45.0656 48.958 42.7804 49.5629C39.025 50.5627 35.7821 49.5881 33.0012 47.0005C31.0269 45.1522 29.1618 43.1778 27.2379 41.2623C26.1877 40.2122 25.4988 40.229 24.4318 41.2539C22.1803 43.4215 20.1975 45.8915 17.6939 47.765C14.1569 50.4114 10.2419 50.7391 6.38566 48.58C2.52942 46.4208 0.664319 42.9762 0.874353 38.5067C0.991973 36.0619 1.98333 33.9615 3.65521 32.2308C6.0412 29.7692 8.486 27.3833 10.914 24.9637C11.4349 25.4762 11.9474 25.9886 12.4683 26.5095C10.1579 28.8283 7.82229 31.1219 5.54552 33.4743C4.46174 34.5917 3.6048 35.8351 3.27715 37.4565C2.52943 41.0943 4.13409 44.7993 7.42743 46.6476C10.5948 48.4287 14.5938 47.8658 17.215 45.2698C19.2398 43.2619 21.2561 41.2287 23.2808 39.2124C23.5077 38.9856 23.7429 38.742 24.0118 38.5655C25.3896 37.6582 26.9354 37.8598 28.2209 39.1032C30.5732 41.3799 32.7156 43.8752 35.2444 45.9587C38.5041 48.6472 43.3433 48.1263 46.3678 44.8917C49.2075 41.8588 49.2915 36.9104 46.4518 33.9195C44.0995 31.4411 41.6295 29.0803 39.2099 26.6607Z" fill="white"/>
<path d="M37.5883 25.0308C35.53 22.9641 33.5221 20.8386 31.3965 18.8474C29.0189 16.6211 26.2045 16.1086 23.1044 17.0916C21.8274 17.4948 20.7688 18.2005 19.8278 19.1751C17.9711 21.1074 16.0472 22.9725 14.1485 24.8628C13.594 24.3672 13.0395 23.8715 12.5942 23.2666C14.5098 21.351 16.4673 19.4775 18.3324 17.52C22.323 13.3277 29.2206 13.2773 33.3457 17.5284C35.278 19.5111 37.2607 21.4435 39.2182 23.3926C38.7393 24.0059 38.1932 24.5436 37.5883 25.0308Z" fill="#E32940"/>
</svg>
