<svg width="14" height="14" viewBox="0 0 14 14" fill="none" xmlns="http://www.w3.org/2000/svg">
<path d="M6.58902 13.999H3.28002C2.41017 13.9979 1.57625 13.6519 0.961175 13.0368C0.346098 12.4218 8.19727e-05 11.5878 -0.000976562 10.718L-0.000976562 3.27999C8.19727e-05 2.41014 0.346098 1.57622 0.961175 0.961145C1.57625 0.346067 2.41017 5.14551e-05 3.28002 -0.00100708L6.58902 -0.00100708C7.45905 -0.000213182 8.29322 0.345686 8.90852 0.960792C9.52381 1.5759 9.86996 2.40997 9.87102 3.27999V3.82699C9.87102 3.89883 9.85688 3.96996 9.82939 4.03632C9.8019 4.10269 9.7616 4.16299 9.71081 4.21378C9.66002 4.26457 9.59972 4.30487 9.53335 4.33236C9.46699 4.35984 9.39586 4.37399 9.32402 4.37399C9.25219 4.37399 9.18106 4.35984 9.1147 4.33236C9.04833 4.30487 8.98803 4.26457 8.93724 4.21378C8.88644 4.16299 8.84615 4.10269 8.81866 4.03632C8.79117 3.96996 8.77702 3.89883 8.77702 3.82699V3.27999C8.77623 2.70004 8.54542 2.14407 8.13524 1.73407C7.72505 1.32408 7.16898 1.09352 6.58902 1.09299H3.28002C2.70024 1.09379 2.14443 1.32446 1.73446 1.73443C1.32449 2.1444 1.09382 2.70021 1.09302 3.27999V10.718C1.09355 11.2981 1.32424 11.8543 1.73446 12.2646C2.14467 12.6748 2.70089 12.9055 3.28102 12.906H6.58902C7.16915 12.9055 7.72537 12.6748 8.13559 12.2646C8.5458 11.8543 8.77649 11.2981 8.77702 10.718V10.171C8.77702 10.0992 8.79117 10.028 8.81866 9.96167C8.84615 9.8953 8.88644 9.835 8.93724 9.78421C8.98803 9.73341 9.04833 9.69312 9.1147 9.66563C9.18106 9.63814 9.25219 9.62399 9.32402 9.62399C9.39586 9.62399 9.46699 9.63814 9.53335 9.66563C9.59972 9.69312 9.66002 9.73341 9.71081 9.78421C9.7616 9.835 9.8019 9.8953 9.82939 9.96167C9.85688 10.028 9.87102 10.0992 9.87102 10.171V10.718C9.86996 11.588 9.52381 12.4221 8.90852 13.0372C8.29322 13.6523 7.45905 13.9982 6.58902 13.999Z" fill="#5C5F8A"/>
<path d="M11.867 9.62498C11.7589 9.62487 11.6532 9.59269 11.5633 9.53251C11.4734 9.47234 11.4034 9.38687 11.3621 9.28691C11.3207 9.18695 11.31 9.07699 11.3312 8.97091C11.3523 8.86484 11.4045 8.76742 11.481 8.69098L12.747 7.42898C12.7974 7.37873 12.8374 7.31903 12.8646 7.25331C12.8919 7.18759 12.9059 7.11714 12.9059 7.04599C12.9059 6.97483 12.8919 6.90437 12.8646 6.83865C12.8374 6.77293 12.7974 6.71323 12.747 6.66298L11.483 5.42198C11.3858 5.3191 11.3323 5.18256 11.3337 5.04104C11.335 4.89953 11.3912 4.76404 11.4904 4.66307C11.5895 4.56209 11.724 4.50349 11.8654 4.49956C12.0069 4.49562 12.1444 4.54667 12.249 4.64198L13.515 5.88498C13.6674 6.03687 13.7883 6.21736 13.8708 6.41607C13.9533 6.61479 13.9958 6.82782 13.9958 7.04298C13.9958 7.25814 13.9533 7.47119 13.8708 7.6699C13.7883 7.86862 13.6674 8.04909 13.515 8.20099L12.249 9.46298C12.1984 9.51373 12.1382 9.55399 12.072 9.58145C12.0057 9.60891 11.9347 9.62302 11.863 9.62298L11.867 9.62498ZM11.839 6.99998C11.839 6.85491 11.7814 6.71579 11.6788 6.6132C11.5762 6.51062 11.4371 6.45299 11.292 6.45299H5.38503C5.23995 6.45299 5.10081 6.51062 4.99823 6.6132C4.89565 6.71579 4.83801 6.85491 4.83801 6.99998C4.83801 7.14506 4.89565 7.2842 4.99823 7.38678C5.10081 7.48936 5.23995 7.54698 5.38503 7.54698H11.292C11.4371 7.54698 11.5762 7.48936 11.6788 7.38678C11.7814 7.2842 11.839 7.14506 11.839 6.99998Z" fill="#5C5F8A"/>
</svg>
