<svg width="21" height="21" viewBox="0 0 21 21" fill="none" xmlns="http://www.w3.org/2000/svg">
<path opacity="0.5" d="M3.39106 10.7565C3.37157 8.50989 4.17188 6.33329 5.64206 4.63445C7.11224 2.93561 9.1514 1.8311 11.3775 1.52784C10.9704 1.4745 10.5601 1.44776 10.1495 1.4478C8.93218 1.45095 7.72746 1.69453 6.60453 2.16455C5.4816 2.63458 4.46258 3.32179 3.60599 4.18673C2.74939 5.05168 2.07209 6.07731 1.61298 7.20473C1.15387 8.33216 0.921986 9.53917 0.930654 10.7565V19.8842L1.08306 19.7318C1.71131 19.1094 2.51463 18.6935 3.38558 18.54L3.39106 10.7565Z" fill="#516E95"/>
<path d="M0.929584 20.6659C0.722438 20.6656 0.523876 20.5832 0.377504 20.4366C0.231133 20.29 0.14892 20.0913 0.14892 19.8842V10.7597C0.139819 9.4396 0.391564 8.13067 0.8897 6.90809C1.38784 5.68551 2.12255 4.57336 3.05167 3.6355C3.98079 2.69763 5.08601 1.95251 6.30387 1.44293C7.52173 0.933346 8.82826 0.669331 10.1484 0.666041C11.4708 0.663039 12.7805 0.922911 14.0015 1.43055C15.2225 1.93819 16.3304 2.68348 17.2609 3.62308C18.1913 4.56268 18.9257 5.67785 19.4213 6.90377C19.9169 8.12969 20.1639 9.4419 20.148 10.7641C20.1196 13.4046 19.049 15.927 17.1692 17.7817C15.2895 19.6363 12.7529 20.673 10.1123 20.6659H10.1024C8.55014 20.672 7.01831 20.3121 5.63111 19.6156C4.97876 19.2918 4.24093 19.1821 3.52261 19.302C2.80428 19.4219 2.14207 19.7653 1.63021 20.2833L1.4778 20.4357C1.33241 20.5814 1.13539 20.6637 0.929584 20.6648V20.6659ZM4.10925 17.6913C4.88403 17.6912 5.6481 17.8722 6.34051 18.2198C7.50955 18.8059 8.80013 19.1087 10.1079 19.1035H10.1155C12.3406 19.1012 14.4756 18.2244 16.0601 16.6623C17.6446 15.1002 18.5516 12.9779 18.5855 10.7532C18.605 9.07349 18.1221 7.42633 17.1987 6.0231C16.2753 4.61987 14.9536 3.52461 13.4033 2.8779C11.853 2.2312 10.1448 2.06256 8.49791 2.39363C6.85106 2.72471 5.34073 3.54039 4.16079 4.73597C3.37233 5.52526 2.74951 6.46411 2.32889 7.4974C1.90826 8.5307 1.6983 9.63761 1.71134 10.7532C1.71134 10.7532 1.71134 10.7532 1.71134 10.7608V18.302C2.44648 17.9044 3.26906 17.696 4.10487 17.6957L4.10925 17.6913Z" fill="#516E95"/>
<path d="M7.80421 10.6666C7.80421 10.8598 7.74691 11.0486 7.63957 11.2093C7.53222 11.3699 7.37964 11.4952 7.20113 11.5691C7.02262 11.643 6.82619 11.6624 6.63668 11.6247C6.44718 11.587 6.27311 11.4939 6.13648 11.3573C5.99985 11.2207 5.90681 11.0466 5.86911 10.8571C5.83142 10.6676 5.85077 10.4712 5.92471 10.2927C5.99865 10.1142 6.12387 9.96161 6.28453 9.85427C6.44518 9.74692 6.63406 9.68963 6.82728 9.68963C7.08637 9.68963 7.33486 9.79256 7.51807 9.97576C7.70128 10.159 7.80421 10.4075 7.80421 10.6666ZM10.1868 9.68963C9.99354 9.68963 9.80466 9.74692 9.64401 9.85427C9.48335 9.96161 9.35815 10.1142 9.28421 10.2927C9.21026 10.4712 9.19092 10.6676 9.22861 10.8571C9.26631 11.0466 9.35935 11.2207 9.49598 11.3573C9.6326 11.4939 9.80668 11.587 9.99618 11.6247C10.1857 11.6624 10.3821 11.643 10.5606 11.5691C10.7391 11.4952 10.8917 11.3699 10.999 11.2093C11.1064 11.0486 11.1637 10.8598 11.1637 10.6666C11.1637 10.4076 11.0609 10.1593 10.8779 9.97615C10.695 9.79297 10.4468 9.68992 10.1879 9.68963H10.1868ZM13.5463 9.68963C13.353 9.68963 13.1641 9.74692 13.0035 9.85427C12.8428 9.96161 12.7176 10.1142 12.6437 10.2927C12.5697 10.4712 12.5504 10.6676 12.5881 10.8571C12.6258 11.0466 12.7188 11.2207 12.8555 11.3573C12.9921 11.4939 13.1662 11.587 13.3557 11.6247C13.5452 11.6624 13.7416 11.643 13.9201 11.5691C14.0986 11.4952 14.2512 11.3699 14.3585 11.2093C14.4659 11.0486 14.5232 10.8598 14.5232 10.6666C14.5232 10.4075 14.4202 10.159 14.237 9.97576C14.0538 9.79256 13.8054 9.68963 13.5463 9.68963Z" fill="#516E95"/>
</svg>
