<svg width="291" height="262" viewBox="0 0 291 262" fill="none" xmlns="http://www.w3.org/2000/svg">
<path d="M55.371 49.828C54.287 25.3856 73.576 1.35977 98.6461 0.332074C128.358 -0.306763 158.097 0.193206 187.837 0.0821044C205.124 -0.362304 222.051 9.72019 229.917 25.1078C234.169 32.6628 234.864 41.4398 235.92 49.8558C246.982 49.8002 258.628 50.2724 268.3 56.3275C282.697 64.5213 291.48 80.9088 290.98 97.3797C290.869 137.321 291.063 177.318 290.868 217.259C291.007 240.951 269.995 262.116 246.259 261.949C179.443 262.061 112.599 261.95 45.7543 261.977C28.5221 262.227 11.8736 251.673 4.5638 236.118C0.227955 227.675 -0.0499823 217.953 0.0056055 208.676C0.25575 170.735 -0.105577 132.793 0.172362 94.8799C0.200156 77.4369 11.3733 60.6883 27.4382 53.911C36.1654 49.8836 45.9767 50.0225 55.371 49.828ZM80.1353 49.8836C123.772 50.0502 167.38 50.078 211.017 49.8558C210.961 37.2734 201.706 24.469 188.226 24.9689C159.237 24.8856 130.22 24.5801 101.259 25.1078C88.3068 25.33 80.0242 37.829 80.1353 49.8836Z" fill="#8C97AB"/>
<path d="M191.144 262H99.0002V144.382C98.9747 134.793 102.057 125.447 107.799 117.703C108.01 117.419 108.221 117.139 108.439 116.861C111.216 113.273 114.521 110.114 118.245 107.486C118.455 107.335 118.666 107.187 118.88 107.039C121.996 104.915 125.367 103.179 128.915 101.87C129.126 101.791 129.34 101.712 129.555 101.637C132.764 100.509 136.09 99.7359 139.473 99.3328C139.683 99.3046 139.898 99.2825 140.113 99.2604C143.41 98.9132 146.734 98.9132 150.031 99.2604C150.246 99.2825 150.461 99.3046 150.673 99.3331C154.055 99.7362 157.381 100.509 160.589 101.637C160.804 101.712 161.018 101.791 161.229 101.87C164.734 103.163 168.065 104.873 171.147 106.963C171.361 107.108 171.576 107.256 171.787 107.404C173.874 108.872 175.835 110.507 177.648 112.292C179.103 113.725 180.458 115.251 181.705 116.862C181.922 117.139 182.133 117.419 182.345 117.703C188.086 125.446 191.169 134.793 191.144 144.382V262Z" fill="white"/>
<path d="M183.651 209.393C186.468 209.393 188.752 207.143 188.752 204.368C188.752 201.593 186.468 199.343 183.651 199.343C180.833 199.343 178.549 201.593 178.549 204.368C178.549 207.143 180.833 209.393 183.651 209.393Z" fill="#0062FF"/>
<path d="M165.796 227.924H124.348C123.802 227.927 123.277 227.716 122.889 227.339C122.5 226.961 122.28 226.447 122.275 225.909V134.776C122.28 134.238 122.5 133.724 122.889 133.347C123.277 132.969 123.802 132.758 124.348 132.761H165.796C166.342 132.758 166.867 132.969 167.256 133.347C167.644 133.724 167.865 134.238 167.869 134.776V225.909C167.865 226.447 167.644 226.961 167.256 227.339C166.867 227.716 166.342 227.927 165.796 227.924Z" fill="#8C97AB"/>
<path d="M167.869 162.249H122.275V162.877H167.869V162.249Z" fill="white"/>
<path d="M168.028 198.087H122.435V198.716H168.028V198.087Z" fill="white"/>
<path d="M137.26 132.761H136.623V228.238H137.26V132.761Z" fill="white"/>
<path d="M153.203 132.761H152.565V228.238H153.203V132.761Z" fill="white"/>
<path d="M204.198 258.425H200.283L198.419 243.571L204.199 243.572L204.198 258.425Z" fill="#FFB8B8"/>
<path d="M197.485 257.324H205.037V262H192.73C192.73 261.386 192.853 260.778 193.092 260.21C193.331 259.643 193.682 259.128 194.123 258.693C194.565 258.259 195.089 257.915 195.666 257.68C196.243 257.445 196.861 257.324 197.485 257.324Z" fill="#001444"/>
<path d="M223.682 258.425H219.766L217.903 243.571L223.682 243.572L223.682 258.425Z" fill="#FFB8B8"/>
<path d="M216.968 257.324H224.52V262H212.213C212.213 261.386 212.336 260.778 212.575 260.21C212.814 259.643 213.165 259.128 213.606 258.693C214.048 258.259 214.572 257.915 215.149 257.68C215.726 257.445 216.344 257.324 216.968 257.324Z" fill="#001444"/>
<path d="M184.554 205.305C184.272 204.897 184.085 204.433 184.005 203.946C183.926 203.459 183.956 202.96 184.093 202.486C184.23 202.011 184.472 201.572 184.8 201.2C185.129 200.827 185.537 200.53 185.995 200.328L199.306 164.249L205.856 167.764L190.657 202.243C190.95 203.022 190.942 203.88 190.634 204.653C190.326 205.427 189.741 206.063 188.989 206.44C188.236 206.817 187.369 206.91 186.552 206.701C185.735 206.492 185.024 205.995 184.554 205.305Z" fill="#FFB8B8"/>
<path d="M221.682 212.085C221.246 211.839 220.871 211.503 220.582 211.1C220.294 210.696 220.098 210.236 220.01 209.75C219.922 209.264 219.943 208.766 220.073 208.289C220.202 207.812 220.435 207.369 220.758 206.991L216.634 168.825L224.088 169.16L225.802 206.701C226.412 207.275 226.787 208.05 226.855 208.878C226.924 209.705 226.681 210.529 226.173 211.193C225.665 211.856 224.928 212.314 224.1 212.478C223.272 212.643 222.411 212.503 221.682 212.085Z" fill="#FFB8B8"/>
<path d="M209.79 157.566C214.122 157.566 217.635 154.112 217.635 149.851C217.635 145.591 214.122 142.137 209.79 142.137C205.457 142.137 201.945 145.591 201.945 149.851C201.945 154.112 205.457 157.566 209.79 157.566Z" fill="#FFB8B8"/>
<path d="M221.631 203.405H197.98L198.009 203.224C198.051 202.953 202.224 176.073 199.147 167.279C198.838 166.415 198.865 165.469 199.223 164.623C199.581 163.778 200.244 163.092 201.085 162.698H201.085C205.484 160.661 213.928 158.153 221.054 164.24C222.103 165.151 222.922 166.289 223.446 167.564C223.971 168.84 224.186 170.218 224.076 171.589L221.631 203.405Z" fill="#0062FF"/>
<path d="M202.523 180.045L191.875 177.921L196.867 166.29C197.165 165.163 197.906 164.199 198.927 163.609C199.947 163.019 201.164 162.851 202.31 163.142C203.456 163.433 204.439 164.159 205.041 165.161C205.644 166.164 205.817 167.36 205.524 168.488L202.523 180.045Z" fill="#0062FF"/>
<path d="M216.16 183.99L215.52 169.56C215.035 166.847 216.614 164.283 219.042 163.864C221.472 163.446 223.844 165.327 224.331 168.06L226.737 181.544L216.16 183.99Z" fill="#0062FF"/>
<path d="M220.845 201.677C224.65 215.93 225.065 234.052 224.039 253.818L218.928 253.19L209.665 215.498L204.555 253.818L198.806 253.504C197.088 232.764 195.416 214.959 198.167 203.248L220.845 201.677Z" fill="#001444"/>
<path d="M214.959 155.814C213.496 157.347 210.778 156.524 210.587 154.429C210.572 154.267 210.573 154.103 210.59 153.941C210.689 153.013 211.234 152.171 211.103 151.191C211.074 150.948 210.981 150.715 210.835 150.516C209.669 148.981 206.931 151.203 205.83 149.813C205.155 148.96 205.949 147.618 205.431 146.665C204.747 145.408 202.723 146.028 201.453 145.34C200.04 144.573 200.125 142.442 201.055 141.145C202.189 139.564 204.177 138.721 206.141 138.599C208.104 138.478 210.054 139 211.888 139.702C213.97 140.5 216.036 141.604 217.318 143.405C218.876 145.595 219.026 148.54 218.247 151.101C217.773 152.659 216.154 154.562 214.959 155.814Z" fill="#001444"/>
</svg>
