<svg width="16" height="17" viewBox="0 0 16 17" fill="none" xmlns="http://www.w3.org/2000/svg">
<path d="M13.137 10.322V6.04002C13.137 4.63888 12.5804 3.29513 11.5897 2.30437C10.5989 1.31362 9.25515 0.757019 7.85401 0.757019C6.45287 0.757019 5.10912 1.31362 4.11836 2.30437C3.12761 3.29513 2.57101 4.63888 2.57101 6.04002V10.322L0.458008 14.605H5.26601C5.38125 15.207 5.70271 15.7499 6.17507 16.1404C6.64742 16.5309 7.24113 16.7446 7.85401 16.7446C8.46688 16.7446 9.06059 16.5309 9.53295 16.1404C10.0053 15.7499 10.3268 15.207 10.442 14.605H15.25L13.137 10.322ZM7.85401 15.676C7.52544 15.6743 7.20559 15.5702 6.93892 15.3782C6.67224 15.1863 6.47199 14.916 6.36601 14.605H9.34201C9.23589 14.9159 9.03561 15.1861 8.76896 15.378C8.50232 15.57 8.18254 15.6741 7.85401 15.676ZM2.04301 13.535L3.62801 10.323V6.04002C3.61577 5.47732 3.71602 4.91784 3.9229 4.3944C4.12978 3.87096 4.4391 3.39411 4.83274 2.99182C5.22637 2.58953 5.69638 2.26991 6.21519 2.05169C6.734 1.83348 7.29117 1.72108 7.85401 1.72108C8.41684 1.72108 8.97401 1.83348 9.49282 2.05169C10.0116 2.26991 10.4816 2.58953 10.8753 2.99182C11.2689 3.39411 11.5782 3.87096 11.7851 4.3944C11.992 4.91784 12.0922 5.47732 12.08 6.04002V10.322L13.665 13.534H2.04301V13.535Z" fill="white"/>
</svg>
