<svg width="17" height="18" viewBox="0 0 17 18" fill="none" xmlns="http://www.w3.org/2000/svg">
<path d="M14.4365 12.7148L16.1862 8.59327C16.4811 7.9238 16.6401 7.2024 16.6539 6.47097C16.6677 5.73954 16.5361 5.01266 16.2666 4.33252C15.9972 3.65239 15.5953 3.03256 15.0844 2.50903C14.5734 1.98549 13.9635 1.56868 13.2901 1.2828C12.6167 0.996926 11.8933 0.847672 11.1617 0.84371C10.4302 0.839748 9.70512 0.981157 9.02867 1.25973C8.35223 1.53829 7.73787 1.94847 7.22126 2.46644C6.70465 2.98441 6.29608 3.59985 6.01929 4.27703L4.26957 8.3985L0.486276 11.6566L5.11614 13.6222C4.98098 14.2486 5.06842 14.9024 5.36341 15.4713C5.65839 16.0401 6.14247 16.4883 6.73229 16.7387C7.32211 16.9891 7.98079 17.0261 8.59491 16.8432C9.20903 16.6603 9.74018 16.269 10.0969 15.7367L14.7231 17.7007L14.4365 12.7148ZM7.16663 15.708C6.85135 15.5719 6.58627 15.3411 6.40819 15.0475C6.23011 14.754 6.14788 14.4122 6.17292 14.0698L9.03631 15.2854C8.80748 15.5409 8.50487 15.7189 8.17039 15.7948C7.83591 15.8708 7.4861 15.8408 7.16939 15.7091L7.16663 15.708ZM2.4499 11.2739L5.28727 8.83056L7.037 4.70908C7.25779 4.16644 7.58429 3.67313 7.9975 3.25784C8.41071 2.84256 8.90238 2.51359 9.44391 2.29008C9.98543 2.06657 10.566 1.95298 11.1518 1.95592C11.7377 1.95886 12.3171 2.07827 12.8563 2.3072C13.3956 2.53614 13.8839 2.87002 14.2929 3.28944C14.702 3.70885 15.0235 4.20542 15.2388 4.75024C15.4542 5.29507 15.559 5.87728 15.5472 6.463C15.5355 7.04872 15.4074 7.62625 15.1704 8.162L13.4206 12.2835L13.6336 16.0218L2.45266 11.2751L2.4499 11.2739Z" fill="white"/>
</svg>
