<svg width="16" height="16" viewBox="0 0 16 16" fill="none" xmlns="http://www.w3.org/2000/svg">
<path d="M15.9171 4.04099C15.8941 4.13498 15.8731 4.22899 15.8481 4.32199C15.7497 4.6871 15.5565 5.01969 15.2881 5.286C12.7014 7.874 10.1144 10.4617 7.52705 13.049C7.45682 13.1273 7.37137 13.1904 7.27592 13.2346C7.18047 13.2787 7.07702 13.303 6.97189 13.3058C6.86676 13.3086 6.76216 13.29 6.66446 13.2511C6.56676 13.2122 6.47803 13.1538 6.40366 13.0794C6.3293 13.005 6.27086 12.9163 6.23193 12.8186C6.19301 12.7209 6.1744 12.6163 6.17725 12.5112C6.18009 12.406 6.20433 12.3026 6.24848 12.2071C6.29264 12.1117 6.35577 12.0262 6.43405 11.956C8.43005 9.95599 10.4274 7.959 12.4261 5.965C12.4698 5.92729 12.517 5.8938 12.5671 5.86499L10.1311 3.42699C10.1094 3.4746 10.0819 3.5193 10.0491 3.56C7.38639 6.22666 4.72239 8.89033 2.05705 11.551C1.91432 11.6849 1.80219 11.848 1.72832 12.0292C1.65445 12.2104 1.62058 12.4055 1.62905 12.601C1.64405 13.182 1.62905 13.764 1.62905 14.367H3.50105C3.82937 14.3661 4.14425 14.2365 4.37805 14.006C4.48558 13.8961 4.62497 13.8229 4.77647 13.7967C4.92796 13.7705 5.08386 13.7926 5.22205 13.86C5.33715 13.9102 5.43819 13.9879 5.5163 14.0862C5.59442 14.1845 5.64724 14.3004 5.67014 14.4239C5.69303 14.5474 5.68531 14.6746 5.64764 14.7944C5.60996 14.9141 5.5435 15.0229 5.45406 15.111C5.04608 15.5259 4.51443 15.7972 3.93906 15.884C3.90006 15.89 3.86205 15.904 3.82305 15.915H0.70005C0.55237 15.8737 0.417822 15.7951 0.309395 15.6866C0.200968 15.5782 0.122326 15.4437 0.0810547 15.296V12.172C0.0915405 12.1549 0.0996183 12.1363 0.105057 12.117C0.190357 11.4886 0.487778 10.9082 0.948051 10.472C2.01472 9.41533 3.07572 8.35533 4.13105 7.29199C6.30305 5.11999 8.47472 2.94766 10.6461 0.774994C10.9189 0.484672 11.264 0.272086 11.6461 0.158997C11.7461 0.130997 11.8531 0.106994 11.9571 0.0809937H12.4831C12.5105 0.0930568 12.5389 0.10275 12.5681 0.109985C12.9883 0.175129 13.3772 0.371494 13.6791 0.67099C14.2317 1.21699 14.7811 1.76632 15.3271 2.31898C15.597 2.59057 15.7828 2.93435 15.8621 3.30899C15.8771 3.37799 15.898 3.44599 15.916 3.50899L15.9171 4.04099ZM11.3051 2.32599L13.6781 4.69899C13.8511 4.52799 14.0461 4.35099 14.2231 4.15799C14.3191 4.05474 14.3724 3.91899 14.3724 3.778C14.3724 3.63701 14.3191 3.50124 14.2231 3.39799C14.1761 3.34299 14.1231 3.298 14.0721 3.243C13.5991 2.769 13.1271 2.294 12.6511 1.823C12.6033 1.76661 12.5449 1.72024 12.4792 1.68657C12.4134 1.6529 12.3416 1.63258 12.268 1.62682C12.1943 1.62105 12.1203 1.62994 12.0501 1.65297C11.9799 1.676 11.915 1.71271 11.8591 1.76099C11.6591 1.94199 11.4831 2.148 11.3051 2.327V2.32599Z" fill="#1D3A62"/>
</svg>
