<svg width="14" height="16" viewBox="0 0 14 16" fill="none" xmlns="http://www.w3.org/2000/svg">
<path d="M7.00004 3.712C6.50398 3.71253 6.02839 3.90982 5.67763 4.26058C5.32686 4.61135 5.12957 5.08694 5.12904 5.583V6.374C4.75083 6.42013 4.40255 6.60299 4.14983 6.88813C3.89712 7.17326 3.75741 7.54099 3.75704 7.922V11.041C3.75704 11.2065 3.82278 11.3652 3.9398 11.4822C4.05683 11.5993 4.21554 11.665 4.38104 11.665H9.62104C9.78653 11.665 9.94525 11.5993 10.0623 11.4822C10.1793 11.3652 10.245 11.2065 10.245 11.041V7.922C10.2447 7.54099 10.105 7.17326 9.85224 6.88813C9.59952 6.60299 9.25125 6.42013 8.87304 6.374V5.583C8.87251 5.08659 8.67494 4.6107 8.32374 4.25988C7.97254 3.90905 7.49644 3.712 7.00004 3.712ZM7.00004 4.96C7.08198 4.96 7.16312 4.97614 7.23883 5.0075C7.31454 5.03885 7.38333 5.08482 7.44127 5.14276C7.49922 5.20071 7.54518 5.26949 7.57654 5.3452C7.6079 5.42091 7.62404 5.50205 7.62404 5.584V6.364H6.37704V5.584C6.37691 5.50205 6.39291 5.42088 6.42415 5.34513C6.45539 5.26937 6.50125 5.20051 6.5591 5.14247C6.61695 5.08443 6.68566 5.03836 6.76132 5.00688C6.83698 4.9754 6.91809 4.95913 7.00004 4.959V4.96ZM9.00004 7.923V10.423H5.00404V7.923C5.00404 7.84025 5.03691 7.76089 5.09542 7.70238C5.15393 7.64387 5.23329 7.611 5.31604 7.611H8.68404C8.76661 7.611 8.84582 7.64373 8.9043 7.70202C8.96278 7.76032 8.99577 7.83942 8.99604 7.922L9.00004 7.923ZM13.99 3.463V8.39C13.9799 9.80054 13.5899 11.1823 12.861 12.39C12.8211 12.4639 12.7665 12.5291 12.7008 12.5814C12.635 12.6338 12.5593 12.6723 12.4783 12.6947C12.3972 12.7171 12.3125 12.7228 12.2292 12.7117C12.1459 12.7005 12.0657 12.6726 11.9934 12.6296C11.9211 12.5867 11.8583 12.5296 11.8086 12.4618C11.7589 12.3939 11.7235 12.3167 11.7044 12.2349C11.6853 12.153 11.683 12.0681 11.6975 11.9853C11.7121 11.9025 11.7432 11.8235 11.789 11.753C12.4034 10.7384 12.7329 9.57703 12.743 8.391V3.868L6.97004 1.307L1.26204 3.866V8.39C1.26204 11.72 3.99704 14.752 7.00104 14.752C8.08191 14.746 9.13277 14.3958 10.001 13.752C10.0672 13.7018 10.1426 13.6652 10.223 13.6446C10.3035 13.6239 10.3872 13.6195 10.4693 13.6316C10.5515 13.6436 10.6304 13.672 10.7014 13.715C10.7725 13.758 10.8342 13.8147 10.8831 13.8818C10.9319 13.949 10.9669 14.0252 10.9859 14.106C11.0049 14.1868 11.0076 14.2706 10.9938 14.3525C10.98 14.4344 10.95 14.5127 10.9056 14.5828C10.8612 14.653 10.8032 14.7136 10.735 14.761C9.65349 15.5607 8.34512 15.9947 7.00004 16C6.04247 15.9976 5.09883 15.7706 4.24504 15.337C3.40321 14.9107 2.65202 14.3252 2.03304 13.613C0.75545 12.1705 0.0388933 10.3168 0.0140381 8.39V3.462C0.014138 3.34167 0.0490218 3.22395 0.114491 3.12299C0.179959 3.02204 0.27322 2.94217 0.383038 2.893L6.71404 0.0549964C6.79398 0.0193716 6.88052 0.000961304 6.96804 0.000961304C7.05556 0.000961304 7.1421 0.0193716 7.22204 0.0549964L13.616 2.893C13.7262 2.94187 13.8199 3.02162 13.8857 3.12259C13.9516 3.22357 13.9868 3.34145 13.987 3.462L13.99 3.463Z" fill="#5C5F8A"/>
</svg>
