<svg width="21" height="21" viewBox="0 0 21 21" fill="none" xmlns="http://www.w3.org/2000/svg">
<path opacity="0.5" d="M4.08701 10.542C4.05926 8.30348 4.86238 6.13415 6.34111 4.45336C7.81985 2.77256 9.86919 1.69964 12.093 1.442C11.7061 1.39457 11.3168 1.37053 10.927 1.37C8.49444 1.37 6.16151 2.33633 4.44142 4.05641C2.72134 5.7765 1.755 8.10943 1.755 10.542C1.755 12.9746 2.72134 15.3075 4.44142 17.0276C6.16151 18.7477 8.49444 19.714 10.927 19.714C11.3167 19.7141 11.7061 19.6908 12.093 19.644C9.86884 19.3863 7.81922 18.3131 6.34044 16.6319C4.86166 14.9507 4.05877 12.7809 4.08701 10.542Z" fill="#516E95"/>
<path d="M10.927 20.493C9.61641 20.5071 8.3162 20.2592 7.10265 19.7641C5.8891 19.269 4.78665 18.5365 3.85996 17.6096C2.93327 16.6827 2.201 15.5801 1.70611 14.3665C1.21123 13.1528 0.963683 11.8526 0.978005 10.542C0.963951 9.23157 1.21169 7.93153 1.7067 6.71811C2.20171 5.5047 2.93402 4.40233 3.86068 3.47567C4.78734 2.54901 5.88971 1.8167 7.10312 1.32169C8.31654 0.826683 9.61658 0.578941 10.927 0.592995C12.2376 0.578673 13.5379 0.826216 14.7515 1.3211C15.9652 1.81599 17.0678 2.54826 17.9946 3.47495C18.9215 4.40164 19.654 5.50409 20.1491 6.71764C20.6443 7.93119 20.8921 9.2314 20.878 10.542C20.8923 11.8528 20.6447 13.1532 20.1497 14.367C19.6547 15.5807 18.9223 16.6834 17.9954 17.6103C17.0684 18.5372 15.9658 19.2697 14.752 19.7647C13.5382 20.2597 12.2378 20.5073 10.927 20.493ZM10.927 2.14899C9.8215 2.13722 8.72477 2.34626 7.70111 2.76387C6.67745 3.18147 5.74746 3.79924 4.96567 4.58095C4.18387 5.36265 3.56599 6.29257 3.14826 7.31618C2.73054 8.33979 2.52136 9.43649 2.533 10.542C2.52109 11.6478 2.7301 12.7448 3.14777 13.7687C3.56544 14.7926 4.18336 15.7228 4.96529 16.5047C5.74723 17.2866 6.67743 17.9046 7.70134 18.3222C8.72525 18.7399 9.82225 18.9489 10.928 18.937C12.0338 18.9489 13.1308 18.7399 14.1547 18.3222C15.1786 17.9046 16.1088 17.2866 16.8907 16.5047C17.6726 15.7228 18.2906 14.7926 18.7082 13.7687C19.1259 12.7448 19.3349 11.6478 19.323 10.542C19.3348 9.43624 19.1256 8.33926 18.7079 7.3154C18.2901 6.29154 17.672 5.36141 16.89 4.57957C16.108 3.79773 15.1777 3.17992 14.1537 2.76237C13.1298 2.34483 12.0328 2.13595 10.927 2.14799V2.14899Z" fill="#516E95"/>
<path d="M10.928 11.32C10.1594 11.32 9.4081 11.0921 8.76905 10.6651C8.13 10.2381 7.63192 9.63118 7.33779 8.9211C7.04367 8.21103 6.96672 7.42968 7.11666 6.67587C7.26661 5.92206 7.63672 5.22965 8.18019 4.68618C8.72365 4.14271 9.41606 3.77261 10.1699 3.62266C10.9237 3.47272 11.705 3.54968 12.4151 3.8438C13.1252 4.13792 13.7321 4.636 14.1591 5.27505C14.5861 5.9141 14.814 6.66542 14.814 7.434C14.8127 8.46422 14.4028 9.45187 13.6744 10.1803C12.9459 10.9088 11.9582 11.3187 10.928 11.32ZM10.928 5.102C10.4668 5.102 10.0159 5.23877 9.63241 5.49501C9.24892 5.75125 8.95001 6.11546 8.77351 6.54158C8.59701 6.9677 8.55082 7.43658 8.6408 7.88895C8.73078 8.34131 8.95288 8.75683 9.27902 9.08297C9.60515 9.4091 10.0207 9.63121 10.473 9.72119C10.9254 9.81117 11.3943 9.76499 11.8204 9.58848C12.2465 9.41198 12.6107 9.11308 12.867 8.72958C13.1232 8.34609 13.26 7.89522 13.26 7.434C13.2592 6.81576 13.0133 6.22307 12.5761 5.7859C12.1389 5.34874 11.5462 5.10279 10.928 5.102Z" fill="#516E95"/>
<path d="M6.31195 15.729C6.21728 15.6906 6.13111 15.634 6.05835 15.5623C5.98559 15.4907 5.92768 15.4053 5.88793 15.3112C5.84817 15.2171 5.82736 15.1161 5.82668 15.014C5.826 14.9119 5.84546 14.8106 5.88396 14.716C6.29128 13.7123 6.9888 12.853 7.88726 12.248C8.78573 11.643 9.84428 11.3198 10.9275 11.3198C12.0106 11.3198 13.0692 11.643 13.9677 12.248C14.8661 12.853 15.5636 13.7123 15.9709 14.716C16.0485 14.9071 16.047 15.1212 15.9668 15.3111C15.8865 15.5011 15.734 15.6514 15.543 15.729C15.3519 15.8066 15.1378 15.805 14.9478 15.7248C14.7578 15.6445 14.6075 15.4921 14.53 15.301C14.2391 14.5838 13.7409 13.9698 13.099 13.5374C12.4571 13.1051 11.7009 12.8741 10.927 12.8741C10.1531 12.8741 9.39677 13.1051 8.7549 13.5374C8.11303 13.9698 7.61479 14.5838 7.32395 15.301C7.28561 15.3957 7.22897 15.4819 7.15729 15.5546C7.08561 15.6274 7.00029 15.6853 6.9062 15.725C6.81211 15.7648 6.71111 15.7856 6.60897 15.7863C6.50684 15.787 6.40556 15.7675 6.31095 15.729H6.31195Z" fill="#516E95"/>
</svg>
