<svg width="17" height="17" viewBox="0 0 17 17" fill="none" xmlns="http://www.w3.org/2000/svg">
<path d="M7.85289 0.788086C6.45932 0.788086 5.09705 1.20133 3.93834 1.97555C2.77963 2.74978 1.87653 3.85021 1.34323 5.1377C0.809938 6.42519 0.670403 7.8419 0.942275 9.20869C1.21415 10.5755 1.88521 11.831 2.87061 12.8164C3.85601 13.8018 5.11149 14.4728 6.47828 14.7447C7.84507 15.0166 9.26179 14.877 10.5493 14.3437C11.8368 13.8104 12.9372 12.9073 13.7114 11.7486C14.4856 10.5899 14.8989 9.22765 14.8989 7.83409C14.8968 5.96602 14.1537 4.17507 12.8328 2.85415C11.5119 1.53323 9.72095 0.790203 7.85289 0.788086V0.788086ZM7.85289 13.5791C6.71663 13.5791 5.6059 13.2421 4.66114 12.6109C3.71638 11.9796 2.98003 11.0824 2.5452 10.0326C2.11037 8.98284 1.9966 7.82771 2.21828 6.71329C2.43995 5.59887 2.98711 4.57521 3.79056 3.77176C4.59401 2.9683 5.61767 2.42115 6.73209 2.19947C7.84652 1.9778 9.00164 2.09157 10.0514 2.5264C11.1012 2.96122 11.9984 3.69757 12.6297 4.64233C13.2609 5.5871 13.5979 6.69783 13.5979 7.83409C13.596 9.35719 12.9902 10.8174 11.9132 11.8944C10.8362 12.9714 9.37599 13.5772 7.85289 13.5791Z" fill="#1479FF"/>
<path d="M16.6159 15.6771L12.8869 11.9481C12.7649 11.8261 12.5994 11.7576 12.4269 11.7576C12.2544 11.7576 12.0889 11.8261 11.9669 11.9481C11.8449 12.0701 11.7764 12.2356 11.7764 12.4081C11.7764 12.5806 11.8449 12.7461 11.9669 12.8681L15.6959 16.5971C15.8179 16.7191 15.9834 16.7876 16.1559 16.7876C16.3284 16.7876 16.4939 16.7191 16.6159 16.5971C16.7379 16.4751 16.8064 16.3096 16.8064 16.1371C16.8064 15.9646 16.7379 15.7991 16.6159 15.6771Z" fill="#1479FF"/>
</svg>
