<svg width="24" height="23" viewBox="0 0 24 23" fill="none" xmlns="http://www.w3.org/2000/svg">
<g filter="url(#filter0_d_1_3185)">
<path d="M9.70594 12.9916C9.54672 12.9916 9.39447 12.9421 9.26563 12.8486C9.03306 12.6795 8.91889 12.3987 8.96748 12.1156L9.37348 9.74801L7.65334 8.07121C7.44763 7.87074 7.37496 7.57643 7.46374 7.30318C7.55254 7.02991 7.78431 6.83452 8.06862 6.79324L10.4458 6.4478L11.509 4.29362C11.6362 4.036 11.8936 3.87598 12.1809 3.87598C12.4682 3.87598 12.7257 4.03604 12.8528 4.29369L13.9159 6.4478L16.2932 6.79325C16.5775 6.83451 16.8093 7.02993 16.898 7.30323C16.9868 7.57634 16.9142 7.87069 16.7084 8.07125L14.9881 9.74801L15.3942 12.1156C15.4428 12.3988 15.3286 12.6796 15.0962 12.8485C14.9673 12.9421 14.815 12.9916 14.6557 12.9916C14.5348 12.9916 14.4142 12.9618 14.3071 12.9055L12.1809 11.7876L10.0546 12.9055C9.9476 12.9618 9.827 12.9916 9.70594 12.9916Z" fill="#26D7AC"/>
<path d="M9.70594 12.9916C9.54672 12.9916 9.39447 12.9421 9.26563 12.8486C9.03306 12.6795 8.91889 12.3987 8.96748 12.1156L9.37348 9.74801L7.65334 8.07121C7.44763 7.87074 7.37496 7.57643 7.46374 7.30318C7.55254 7.02991 7.78431 6.83452 8.06862 6.79324L10.4458 6.4478L11.509 4.29362C11.6362 4.036 11.8936 3.87598 12.1809 3.87598C12.4682 3.87598 12.7257 4.03604 12.8528 4.29369L13.9159 6.4478L16.2932 6.79325C16.5775 6.83451 16.8093 7.02993 16.898 7.30323C16.9868 7.57634 16.9142 7.87069 16.7084 8.07125L14.9881 9.74801L15.3942 12.1156C15.4428 12.3988 15.3286 12.6796 15.0962 12.8485C14.9673 12.9421 14.815 12.9916 14.6557 12.9916C14.5348 12.9916 14.4142 12.9618 14.3071 12.9055L12.1809 11.7876L10.0546 12.9055C9.9476 12.9618 9.827 12.9916 9.70594 12.9916Z" stroke="white"/>
</g>
<defs>
<filter id="filter0_d_1_3185" x="0.926514" y="0.375977" width="22.5088" height="22.1156" filterUnits="userSpaceOnUse" color-interpolation-filters="sRGB">
<feFlood flood-opacity="0" result="BackgroundImageFix"/>
<feColorMatrix in="SourceAlpha" type="matrix" values="0 0 0 0 0 0 0 0 0 0 0 0 0 0 0 0 0 0 127 0" result="hardAlpha"/>
<feOffset dy="3"/>
<feGaussianBlur stdDeviation="3"/>
<feColorMatrix type="matrix" values="0 0 0 0 0 0 0 0 0 0 0 0 0 0 0 0 0 0 0.161 0"/>
<feBlend mode="normal" in2="BackgroundImageFix" result="effect1_dropShadow_1_3185"/>
<feBlend mode="normal" in="SourceGraphic" in2="effect1_dropShadow_1_3185" result="shape"/>
</filter>
</defs>
</svg>
