<svg width="43" height="44" viewBox="0 0 43 44" fill="none" xmlns="http://www.w3.org/2000/svg">
<path d="M39.337 15.807H39.114C38.8743 15.8097 38.6356 15.8382 38.402 15.892C38.1048 15.802 37.7905 15.7833 37.4847 15.8375C37.1789 15.8917 36.8902 16.0173 36.642 16.204L35.822 13.742L37.122 9.82999L35.817 9.39399L35.1 11.567L34.377 9.39699L33.072 9.83299L34.372 13.745L33.552 16.207C33.1828 15.9374 32.7345 15.7979 32.2775 15.8105C31.8205 15.823 31.3806 15.9869 31.0267 16.2764C30.6729 16.5658 30.4251 16.9646 30.3222 17.41C30.2193 17.8554 30.2672 18.3224 30.4582 18.7378C30.6493 19.1531 30.9728 19.4933 31.378 19.705C31.7833 19.9167 32.2473 19.9879 32.6973 19.9075C33.1474 19.8271 33.558 19.5997 33.8649 19.2608C34.1718 18.9219 34.3575 18.4908 34.393 18.035L35.093 15.922L35.793 18.035C35.8028 18.168 35.826 18.2996 35.862 18.428C35.8078 18.6612 35.7793 18.8996 35.777 19.139C35.7763 19.7964 35.9708 20.4393 36.336 20.986L37.128 22.175L36.366 28.658C35.2569 26.9547 33.7959 25.5088 32.0811 24.4176C30.3663 23.3264 28.4377 22.6153 26.425 22.332L24.6 22.067L24.312 21.205C25.2229 20.9961 26.0361 20.4848 26.6191 19.7543C27.2021 19.0239 27.5203 18.1175 27.522 17.183C28.252 17.1825 28.9519 16.8922 29.4681 16.3761C29.9843 15.8599 30.2745 15.16 30.275 14.43V5.48399C30.2734 4.20762 29.766 2.98393 28.8638 2.08102C27.9616 1.17812 26.7384 0.669638 25.462 0.666992H17.2C15.9229 0.66858 14.6986 1.17659 13.7956 2.07961C12.8926 2.98263 12.3846 4.20693 12.383 5.48399V14.43C12.3835 15.16 12.6737 15.8599 13.1899 16.3761C13.7061 16.8922 14.406 17.1825 15.136 17.183C15.1377 18.1175 15.4559 19.0239 16.0389 19.7543C16.6219 20.4848 17.4351 20.9961 18.346 21.205L18.058 22.067L16.23 22.328C14.2173 22.6113 12.2887 23.3224 10.5739 24.4136C8.85915 25.5048 7.39806 26.9507 6.289 28.654L5.527 22.171L6.319 20.982C6.57051 20.6113 6.74255 20.1926 6.8243 19.7522C6.90605 19.3118 6.89573 18.8592 6.794 18.423C6.84752 18.2434 6.87612 18.0573 6.879 17.87V14.714C7.45657 14.1136 7.87265 13.3767 8.08842 12.5721C8.30419 11.7674 8.31262 10.9212 8.11292 10.1124C7.91321 9.30361 7.51189 8.55858 6.94639 7.94683C6.38089 7.33507 5.66964 6.87653 4.879 6.61399L2.746 5.90199V15.867C1.97781 16.0034 1.28198 16.4054 0.780061 17.0028C0.278141 17.6001 0.00204356 18.3548 0 19.135V32.517C0.000187746 33.6232 0.345873 34.7018 0.988776 35.602C1.63168 36.5023 2.5397 37.1793 3.58601 37.5384C4.63233 37.8976 5.76469 37.921 6.82496 37.6054C7.88522 37.2898 8.82044 36.6509 9.5 35.778L11.7 32.952V43.333H30.968V32.952L33.168 35.778C33.8476 36.6509 34.7828 37.2898 35.843 37.6054C36.9033 37.921 38.0357 37.8976 39.082 37.5384C40.1283 37.1793 41.0363 36.5023 41.6792 35.602C42.3221 34.7018 42.6678 33.6232 42.668 32.517V19.136C42.6669 18.2534 42.3159 17.4073 41.6918 16.7832C41.0677 16.1591 40.2216 15.8081 39.339 15.807H39.337ZM32.344 18.56C32.2079 18.56 32.0749 18.5196 31.9618 18.444C31.8486 18.3684 31.7604 18.261 31.7084 18.1353C31.6563 18.0096 31.6427 17.8712 31.6692 17.7378C31.6958 17.6043 31.7613 17.4817 31.8575 17.3855C31.9537 17.2893 32.0763 17.2238 32.2098 17.1972C32.3432 17.1707 32.4816 17.1843 32.6073 17.2364C32.733 17.2884 32.8405 17.3766 32.916 17.4898C32.9916 17.6029 33.032 17.7359 33.032 17.872C33.0315 18.0542 32.9588 18.2288 32.8298 18.3575C32.7009 18.4863 32.5262 18.5587 32.344 18.559V18.56ZM41.29 19.137V21.313H38.217L37.488 20.22C37.4136 20.1047 37.3512 19.9821 37.302 19.854C37.6084 19.9442 37.9318 19.9611 38.246 19.9033C38.5602 19.8454 38.8563 19.7145 39.1106 19.5211C39.3648 19.3277 39.57 19.0772 39.7096 18.7899C39.8491 18.5025 39.9192 18.1864 39.914 17.867C39.9114 17.6543 39.8753 17.4434 39.807 17.242C40.2296 17.3465 40.6052 17.5893 40.8741 17.9317C41.143 18.2742 41.2897 18.6966 41.291 19.132L41.29 19.137ZM37.849 17.184C37.9851 17.184 38.1181 17.2243 38.2312 17.2999C38.3444 17.3755 38.4326 17.483 38.4846 17.6087C38.5367 17.7344 38.5503 17.8728 38.5238 18.0062C38.4972 18.1397 38.4317 18.2623 38.3355 18.3585C38.2393 18.4547 38.1167 18.5202 37.9832 18.5468C37.8498 18.5733 37.7114 18.5597 37.5857 18.5076C37.46 18.4555 37.3525 18.3674 37.2769 18.2542C37.2013 18.1411 37.161 18.0081 37.161 17.872C37.161 17.6894 37.2335 17.5143 37.3624 17.3851C37.4914 17.256 37.6664 17.1833 37.849 17.183V17.184ZM21.333 28.64L17.276 23.567L18.146 23.442C18.4362 24.0404 18.889 24.545 19.4527 24.8981C20.0163 25.2512 20.6679 25.4384 21.333 25.4384C21.9981 25.4384 22.6497 25.2512 23.2133 24.8981C23.777 24.545 24.2298 24.0404 24.52 23.442L25.39 23.567L21.333 28.64ZM22.9 21.312L23.354 22.675C23.1967 23.0838 22.9193 23.4353 22.5582 23.6833C22.1972 23.9312 21.7695 24.0639 21.3315 24.0639C20.8935 24.0639 20.4658 23.9312 20.1048 23.6833C19.7437 23.4353 19.4663 23.0838 19.309 22.675L19.763 21.312H22.9ZM16.516 10.301H26.15V14.43H16.516V10.301ZM27.527 15.807V13.054C27.8921 13.054 28.2422 13.199 28.5003 13.4572C28.7585 13.7153 28.9035 14.0654 28.9035 14.4305C28.9035 14.7956 28.7585 15.1457 28.5003 15.4038C28.2422 15.662 27.8921 15.807 27.527 15.807ZM28.9 12.06C28.4836 11.8122 28.0086 11.68 27.524 11.677V10.301H28.9V12.06ZM13.76 5.48399C13.7611 4.57188 14.1238 3.69741 14.7687 3.05236C15.4135 2.4073 16.2879 2.04432 17.2 2.04299H25.458C26.3705 2.04379 27.2453 2.40654 27.8906 3.05165C28.5359 3.69677 28.8989 4.57153 28.9 5.48399V8.92499H13.763L13.76 5.48399ZM15.136 10.301V11.677C14.6514 11.68 14.1764 11.8122 13.76 12.06V10.301H15.136ZM13.76 14.43C13.7605 14.0652 13.9057 13.7155 14.1636 13.4576C14.4215 13.1997 14.7712 13.0545 15.136 13.054V15.807C14.7716 15.8057 14.4225 15.66 14.1652 15.402C13.9079 15.1439 13.7633 14.7944 13.763 14.43H13.76ZM16.513 17.183V15.807H26.15V17.183C26.1495 17.9125 25.8597 18.6119 25.3441 19.128C24.8286 19.6441 24.1295 19.9347 23.4 19.936H19.269C18.539 19.9355 17.8391 19.6452 17.3229 19.1291C16.8067 18.6129 16.5165 17.913 16.516 17.183H16.513ZM4.129 7.81599L4.45 7.92299C5.02496 8.11463 5.54138 8.45008 5.95021 8.89748C6.35904 9.34487 6.6467 9.88936 6.78588 10.4792C6.92505 11.0691 6.91111 11.6847 6.74539 12.2677C6.57966 12.8506 6.26766 13.3816 5.839 13.81L5.505 14.145V17.867C5.505 17.9573 5.4872 18.0468 5.45263 18.1303C5.41805 18.2137 5.36738 18.2896 5.30349 18.3535C5.2396 18.4174 5.16376 18.468 5.08029 18.5026C4.99681 18.5372 4.90735 18.555 4.817 18.555C4.72665 18.555 4.63719 18.5372 4.55371 18.5026C4.47024 18.468 4.3944 18.4174 4.33051 18.3535C4.26662 18.2896 4.21595 18.2137 4.18137 18.1303C4.1468 18.0468 4.129 17.9573 4.129 17.867V7.81599ZM2.753 17.28V17.867C2.74847 18.1859 2.81893 18.5015 2.95872 18.7882C3.09851 19.0749 3.30371 19.3248 3.55777 19.5176C3.81184 19.7105 4.10767 19.841 4.42141 19.8985C4.73515 19.9561 5.05802 19.9391 5.364 19.849C5.31532 19.9773 5.25296 20.1 5.178 20.215L4.45 21.308H1.376V19.136C1.37747 18.7203 1.51178 18.316 1.75933 17.9821C2.00689 17.6482 2.35471 17.4022 2.752 17.28H2.753ZM11.7 27.506V30.706L8.416 34.929C7.91298 35.5766 7.22014 36.0507 6.43439 36.2851C5.64863 36.5195 4.80926 36.5025 4.03366 36.2364C3.25806 35.9703 2.58503 35.4684 2.10869 34.801C1.63235 34.1336 1.37653 33.334 1.377 32.514V22.684H4.206L5.506 33.775L6.873 33.614L6.562 30.973C7.41765 29.1456 8.6913 27.5452 10.28 26.3012C11.8686 25.0572 13.7278 24.2045 15.707 23.812L20.448 29.738L18.577 32.077V41.957H13.075V27.506H11.7ZM37.358 36.452C36.7586 36.4537 36.1669 36.3176 35.6285 36.0542C35.0901 35.7909 34.6195 35.4072 34.253 34.933L30.968 30.71V27.51H29.591V41.957H19.957V32.567L26.957 23.82C28.9356 24.2123 30.7942 25.0646 32.3825 26.3081C33.9708 27.5516 35.2443 29.1513 36.1 30.978L35.789 33.619L37.156 33.78L38.461 22.688H41.29V32.518C41.2889 33.5609 40.8743 34.5607 40.1369 35.2982C39.3996 36.0357 38.3999 36.4507 37.357 36.452H37.358Z" fill="#1D3A62"/>
<path d="M18.711 13.607C19.0009 13.607 19.236 13.1373 19.236 12.558C19.236 11.9787 19.0009 11.509 18.711 11.509C18.421 11.509 18.186 11.9787 18.186 12.558C18.186 13.1373 18.421 13.607 18.711 13.607Z" fill="#1D3A62"/>
<path d="M23.957 13.607C24.247 13.607 24.482 13.1373 24.482 12.558C24.482 11.9787 24.247 11.509 23.957 11.509C23.6671 11.509 23.432 11.9787 23.432 12.558C23.432 13.1373 23.6671 13.607 23.957 13.607Z" fill="#1D3A62"/>
<path d="M22.022 3.41998H20.646V4.79598H19.269V6.17198H20.645V7.54798H22.021V6.17298H23.397V4.79598H22.021L22.022 3.41998Z" fill="#1D3A62"/>
<path d="M21.333 39.204H22.709V40.58H21.333V39.204Z" fill="#1D3A62"/>
<path d="M21.333 33.699H22.709V35.075H21.333V33.699Z" fill="#1D3A62"/>
<path d="M21.333 36.452H22.709V37.828H21.333V36.452Z" fill="#1D3A62"/>
</svg>
