<svg width="21" height="22" viewBox="0 0 21 22" fill="none" xmlns="http://www.w3.org/2000/svg">
<path d="M10.75 0.75C8.72275 0.75 6.74101 1.35115 5.05541 2.47744C3.36981 3.60372 2.05604 5.20455 1.28024 7.07749C0.504441 8.95044 0.301457 11.0114 0.696955 12.9997C1.09245 14.988 2.06867 16.8144 3.50216 18.2478C4.93565 19.6813 6.76202 20.6576 8.75033 21.053C10.7386 21.4485 12.7996 21.2456 14.6725 20.4698C16.5455 19.694 18.1463 18.3802 19.2726 16.6946C20.3989 15.009 21 13.0273 21 11C20.9971 8.28242 19.9163 5.67699 17.9946 3.75537C16.073 1.83375 13.4676 0.752912 10.75 0.75V0.75ZM10.75 19.662C9.03682 19.662 7.36211 19.154 5.93766 18.2022C4.5132 17.2504 3.40297 15.8976 2.74736 14.3148C2.09175 12.732 1.92022 10.9904 2.25444 9.31013C2.58867 7.62986 3.41364 6.08644 4.62505 4.87504C5.83645 3.66364 7.37987 2.83866 9.06013 2.50444C10.7404 2.17021 12.482 2.34175 14.0648 2.99736C15.6476 3.65296 17.0004 4.76319 17.9522 6.18765C18.904 7.61211 19.412 9.28682 19.412 11C19.4094 13.2965 18.4959 15.4982 16.872 17.122C15.2482 18.7459 13.0465 19.6594 10.75 19.662Z" fill="#69DFBF"/>
<path d="M15.452 7.43499C15.2962 7.2936 15.0906 7.21986 14.8804 7.22999C14.6702 7.24011 14.4726 7.33327 14.331 7.48899L9.48804 12.822L7.14803 10.443C7.07566 10.3656 6.98855 10.3036 6.89182 10.2604C6.79509 10.2172 6.6907 10.1938 6.5848 10.1916C6.4789 10.1894 6.37362 10.2084 6.27517 10.2475C6.17672 10.2866 6.08709 10.345 6.01156 10.4193C5.93602 10.4935 5.87612 10.5822 5.83536 10.6799C5.79461 10.7777 5.77382 10.8827 5.77424 10.9886C5.77465 11.0945 5.79626 11.1993 5.83779 11.2967C5.87932 11.3942 5.93993 11.4823 6.01604 11.556L8.94503 14.533C9.0189 14.6081 9.107 14.6678 9.20418 14.7085C9.30136 14.7491 9.40568 14.7701 9.51104 14.77H9.52604C9.63405 14.7679 9.74049 14.7437 9.83884 14.699C9.9372 14.6543 10.0254 14.59 10.098 14.51L15.506 8.55498C15.6471 8.39917 15.7207 8.19378 15.7105 7.98383C15.7004 7.77388 15.6074 7.57651 15.452 7.43499Z" fill="#69DFBF"/>
</svg>
