<svg width="375" height="265" viewBox="0 0 375 265" fill="none" xmlns="http://www.w3.org/2000/svg">
<g opacity="0.9">
<g opacity="0.9">
<g style="mix-blend-mode:color-burn" opacity="0.9">
<path d="M351.197 224.011L309.664 247.984L268.137 224.011V176.056L286.129 165.668L309.667 152.078L351.197 176.056V224.011ZM246.638 162.796L225.873 150.807V102.852L246.638 90.863L267.403 78.875L308.933 102.852V150.807L288.164 162.792L267.399 174.781L246.638 162.796ZM352.665 223.296V175.205L310.401 150.805V102.005L268.137 77.605V28.805L225.137 3.97998L182.137 28.805V77.605L139.873 102.005V150.805L97.6089 175.205V223.505H-189.003V224.929H97.7379L140.61 249.681L182.874 225.281L225.139 249.681L267.403 225.281L309.667 249.681L352.667 224.856V224.721H415.541V223.297L352.665 223.296ZM183.608 29.644L225.139 5.66696L266.669 29.644V77.6L253.928 84.955L225.139 101.577L194.025 83.611L183.608 77.597V29.644ZM182.14 224.011L140.61 247.988L99.0798 224.011V176.056L140.61 152.078L164.148 165.668L182.14 176.056V224.011ZM162.109 162.796L141.344 150.807V102.852L182.874 78.875L206.518 92.525L224.404 102.852V150.807L206.518 161.134L182.874 174.781L162.109 162.796ZM266.664 224.011L225.134 247.988L183.608 224.011V176.056L194.025 170.042L225.139 152.079L253.928 168.7L266.669 176.056L266.664 224.011Z" fill="#BCBCBC"/>
<path d="M351.416 223.789L309.885 247.766L268.355 223.789V175.833L286.347 165.446L309.886 151.856L351.416 175.833V223.789ZM246.856 162.574L226.091 150.585V102.63L246.856 90.6409L267.621 78.6519L309.151 102.63V150.585L288.386 162.574L267.621 174.562L246.856 162.574ZM352.884 223.074V174.983L310.619 150.583V101.783L268.355 77.3829V28.5829L225.355 3.75793L182.355 28.5829V77.3829L140.09 101.783V150.583L97.8258 174.983V223.283H-188.785V224.711H97.9558L140.828 249.463L183.093 225.063L225.357 249.463L267.621 225.063L309.885 249.463L352.885 224.638V224.502H415.758V223.079L352.884 223.074ZM183.827 29.4259L225.357 5.44894L266.887 29.4259V77.381L254.147 84.7369L225.357 101.359L194.243 83.3949L183.827 77.381V29.4259ZM182.364 223.789L140.833 247.766L99.3029 223.789V175.833L140.833 151.856L164.371 165.446L182.364 175.833V223.789ZM162.333 162.574L141.564 150.585V102.63L183.094 78.6519L206.738 92.3029L224.625 102.63V150.585L206.736 160.911L183.093 174.561L162.333 162.574ZM266.892 223.789L225.362 247.766L183.832 223.789V175.833L194.248 169.819L225.362 151.856L254.152 168.478L266.892 175.833V223.789Z" fill="#BBBBBB"/>
<path d="M351.634 223.57L310.104 247.548L268.574 223.57V175.611L286.566 165.223L310.104 151.634L351.634 175.611V223.57ZM247.074 162.355L226.309 150.367V102.411L247.074 90.423L267.84 78.434L309.37 102.411V150.367L288.605 162.355L267.839 174.344L247.074 162.355ZM353.102 222.855V174.765L310.838 150.365V101.565L268.574 77.165V28.365L225.574 3.54102L182.574 28.365V77.165L140.31 101.565V150.365L98.0448 174.765V223.065H-188.567V224.488H98.1738L141.047 249.24L183.311 224.84L225.575 249.24L267.839 224.84L310.104 249.24L353.104 224.416V224.28H415.977V222.856L353.102 222.855ZM184.045 29.211L225.575 5.233L267.105 29.211V77.166L254.365 84.522L225.575 101.143L194.464 83.177L184.047 77.163L184.045 29.211ZM182.577 223.573L141.047 247.551L99.5158 223.573V175.611L141.047 151.634L164.585 165.223L182.577 175.611V223.573ZM162.546 162.358L141.781 150.37V102.411L183.311 78.434L206.954 92.084L224.841 102.411V150.367L206.954 160.694L183.311 174.344L162.546 162.358ZM267.105 223.573L225.575 247.551L184.045 223.573V175.611L194.462 169.597L225.575 151.634L254.365 168.255L267.105 175.611V223.573Z" fill="#BABABA"/>
<path d="M351.852 223.352L310.322 247.329L268.792 223.352V175.397L286.784 165.011L310.322 151.421L351.852 175.399V223.352ZM247.293 162.137L226.528 150.148V102.193L247.293 90.204L268.058 78.216L309.588 102.193V150.148L288.823 162.137L268.058 174.126L247.293 162.137ZM353.32 222.637V174.546L311.056 150.146V101.346L268.792 76.946V28.146L225.792 3.32098L182.792 28.146V76.946L140.528 101.346V150.146L98.2639 174.546V222.846H-188.348V224.27H98.3929L141.264 249.024L183.528 224.624L225.793 249.024L268.057 224.624L310.321 249.024L353.321 224.199V224.064H416.194V222.64L353.32 222.637ZM184.264 28.989L225.794 5.01099L267.324 28.988V76.944L254.583 84.299L225.794 100.921L194.68 82.958L184.263 76.944L184.264 28.989ZM182.796 223.352L141.264 247.329L99.7339 223.352V175.397L141.264 151.419L164.802 165.009L182.794 175.397L182.796 223.352ZM162.764 162.137L141.999 150.148V102.193L183.529 78.216L207.173 91.866L225.059 102.193V150.148L207.173 160.475L183.529 174.126L162.764 162.137ZM267.324 223.352L225.794 247.329L184.264 223.352V175.397L194.681 169.383L225.795 151.42L254.584 168.041L267.325 175.397L267.324 223.352Z" fill="#B9B9B9"/>
<path d="M352.071 223.134L310.54 247.111L269.01 223.134V175.178L287.002 164.791L310.541 151.201L352.071 175.178V223.134ZM247.511 161.919L226.746 149.93V101.975L247.511 89.9859L268.276 77.9969L309.806 101.975V149.93L289.041 161.919L268.276 173.911L247.511 161.919ZM353.539 222.419V174.331L311.274 149.931V101.131L269.01 76.7309V27.9309L226.01 3.10596L183.01 27.9309V76.7309L140.745 101.131V149.931L98.4808 174.331V222.631H-188.13V224.055H98.6108L141.483 248.807L183.748 224.407L226.012 248.807L268.276 224.407L310.54 248.807L353.54 223.982V223.846H416.413V222.423L353.539 222.419ZM184.482 28.7709L226.012 4.79395L267.542 28.7709V76.7259L254.802 84.0819L226.012 100.704L194.898 82.7399L184.482 76.7259V28.7709ZM183.014 223.134L141.483 247.111L99.9529 223.134V175.178L141.483 151.201L165.021 164.791L183.014 175.178V223.134ZM162.983 161.919L142.217 149.93V101.975L183.747 77.9969L207.391 91.6479L225.278 101.975V149.93L207.391 160.257L183.748 173.907L162.983 161.919ZM267.542 223.134L226.012 247.111L184.482 223.134V175.178L194.898 169.164L226.012 151.201L254.802 167.823L267.542 175.178V223.134Z" fill="#B8B8B8"/>
<path d="M352.289 222.911L310.764 246.893L269.229 222.911V174.956L287.221 164.568L310.759 150.979L352.289 174.956V222.911ZM247.729 161.696L226.964 149.711V101.755L247.729 89.767L268.495 77.778L310.025 101.755V149.711L289.264 161.7L268.499 173.689L247.729 161.696ZM353.757 222.196V174.111L311.493 149.711V100.911L269.229 76.511V27.711L226.229 2.88696L183.229 27.711V76.511L140.964 100.911V149.711L98.6989 174.111V222.411H-187.912V223.834H98.8289L141.702 248.586L183.966 224.186L226.23 248.586L268.495 224.186L310.759 248.586L353.759 223.762V223.626H416.632V222.202L353.757 222.196ZM184.7 28.546L226.23 4.56796L267.76 28.546V76.511L255.02 83.867L226.23 100.488L195.117 82.525L184.7 76.511V28.546ZM183.232 222.911L141.702 246.889L100.172 222.911V174.956L141.702 150.979L165.24 164.568L183.232 174.956V222.911ZM163.201 161.696L142.436 149.711V101.755L183.966 77.778L207.609 91.428L225.496 101.755V149.711L207.609 160.038L183.966 173.688L163.201 161.696ZM267.764 222.911L226.234 246.889L184.7 222.911V174.956L195.117 168.942L226.23 150.979L255.02 167.6L267.76 174.956L267.764 222.911Z" fill="#B7B7B7"/>
<path d="M352.507 222.697L310.977 246.674L269.447 222.697V174.742L287.439 164.354L310.977 150.764L352.507 174.742V222.697ZM247.948 161.482L227.183 149.493V101.538L247.948 89.549L268.713 77.561L310.243 101.538V149.493L289.478 161.482L268.713 173.471L247.948 161.482ZM353.975 221.982V173.891L311.711 149.491V100.691L269.447 76.291V27.491L226.447 2.66602L183.447 27.491V76.291L141.183 100.691V149.491L98.9189 173.891V222.191H-187.693V223.615H99.0479L141.92 248.367L184.184 223.967L226.449 248.367L268.713 223.967L310.977 248.367L353.977 223.542V223.411H416.851V221.987L353.975 221.982ZM184.918 28.334L226.449 4.35699L267.979 28.334V76.29L255.238 83.645L226.449 100.267L195.335 82.304L184.918 76.29V28.334ZM183.45 222.697L141.92 246.674L100.39 222.697V174.742L141.92 150.764L165.458 164.354L183.45 174.742V222.697ZM163.419 161.482L142.654 149.493V101.538L184.184 77.561L207.828 91.211L225.714 101.538V149.493L207.828 159.82L184.184 173.471L163.419 161.482ZM267.979 222.697L226.449 246.674L184.918 222.697V174.742L195.335 168.728L226.449 150.765L255.238 167.386L267.979 174.742V222.697Z" fill="#B6B6B6"/>
<path d="M352.726 222.479L311.195 246.456L269.664 222.479V174.523L287.656 164.136L311.195 150.546L352.725 174.523L352.726 222.479ZM248.164 161.264L227.399 149.275V101.32L248.164 89.331L268.929 77.342L310.459 101.32V149.275L289.694 161.264L268.929 173.252L248.164 161.264ZM354.192 221.764V173.673L311.928 149.273V100.473L269.663 76.073V27.273L226.663 2.448L183.663 27.273V76.073L141.398 100.473V149.273L99.1339 173.673V221.973H-187.475V223.397H99.2639L142.137 248.149L184.401 223.749L226.665 248.149L268.929 223.749L311.193 248.149L354.193 223.324V223.188H417.064V221.765L354.192 221.764ZM185.137 28.111L226.667 4.134L268.197 28.111V76.066L255.457 83.422L226.667 100.044L195.553 82.08L185.137 76.066V28.111ZM183.669 222.474L142.139 246.451L100.608 222.474V174.518L142.138 150.541L165.677 164.131L183.669 174.518V222.474ZM163.638 161.259L142.873 149.27V101.315L184.403 77.337L208.046 90.988L225.933 101.315V149.27L208.046 159.597L184.403 173.247L163.638 161.259ZM268.197 222.474L226.664 246.456L185.134 222.479V174.523L195.55 168.509L226.664 150.546L255.454 167.168L268.194 174.523L268.197 222.474Z" fill="#B5B5B5"/>
<path d="M352.944 222.26L311.414 246.238L269.884 222.26V174.305L287.876 163.917L311.414 150.328L352.944 174.305V222.26ZM248.384 161.045L227.619 149.057V101.101L248.384 89.1109L269.15 77.1219L310.68 101.099V149.055L289.915 161.043L269.15 173.032L248.384 161.045ZM354.412 221.545V173.455L312.148 149.055V100.255L269.884 75.8549V27.0549L226.884 2.23096L183.884 27.0549V75.8549L141.62 100.255V149.055L99.3549 173.455V221.755H-187.257V223.178H99.4839L142.357 247.93L184.621 223.53L226.885 247.93L269.15 223.53L311.414 247.93L354.414 223.106V222.97H417.287V221.546L354.412 221.545ZM185.355 27.895L226.885 3.91693L268.415 27.895V75.8499L255.675 83.2059L226.885 99.827L195.772 81.8639L185.355 75.8499V27.895ZM183.887 222.257L142.357 246.235L100.827 222.257V174.302L142.357 150.325L165.895 163.914L183.887 174.302V222.257ZM163.856 161.042L143.091 149.054V101.101L184.621 77.1239L208.264 90.7739L226.151 101.101V149.057L208.264 159.384L184.621 173.034L163.856 161.042ZM268.415 222.257L226.885 246.235L185.355 222.257V174.302L195.772 168.288L226.885 150.325L255.675 166.946L268.415 174.302V222.257Z" fill="#B4B4B4"/>
<path d="M353.164 222.042L311.634 246.019L270.104 222.042V174.087L288.096 163.699L311.634 150.109L353.164 174.087V222.042ZM248.605 160.827L227.84 148.838V100.883L248.605 88.894L269.364 76.911L310.894 100.888V148.843L290.129 160.832L269.364 172.811L248.605 160.827ZM354.632 221.327V173.236L312.368 148.836V100.036L270.104 75.636V26.836L227.104 2.01099L184.104 26.836V75.636L141.84 100.036V148.836L99.5758 173.236V221.536H-187.036V222.96H99.7048L142.575 247.711L184.839 223.311L227.104 247.711L269.364 223.311L311.628 247.711L354.628 222.886V222.751H417.504V221.327H354.632ZM185.574 27.679L227.104 3.70197L268.634 27.679V75.635L255.893 82.99L227.104 99.611L195.99 81.648L185.574 75.634V27.679ZM184.105 222.042L142.575 246.019L101.045 222.042V174.087L142.575 150.109L166.113 163.699L184.105 174.087V222.042ZM164.074 160.827L143.309 148.838V100.883L184.839 76.906L208.483 90.556L226.37 100.883V148.838L208.483 159.165L184.839 172.811L164.074 160.827ZM268.634 222.042L227.104 246.019L185.574 222.042V174.087L195.99 168.073L227.104 150.111L255.893 166.733L268.634 174.089V222.042Z" fill="#B3B3B3"/>
</g>
<path d="M356.63 219.33V171.239L314.366 146.839V98.039L272.102 73.639V24.839L229.102 0.0139771L186.102 24.839V73.639L143.838 98.039V146.839L101.574 171.239V219.539H-185.036V220.963H101.705L144.575 245.711L186.839 221.311L229.104 245.711L271.364 221.311L313.628 245.711L356.628 220.886V220.751H419.504V219.327L356.63 219.33ZM187.574 25.679L229.104 1.70197L270.634 25.679V73.635L257.893 80.99L229.104 97.611L197.99 79.648L187.574 73.634V25.679ZM186.105 220.042L144.575 244.019L103.045 220.042V172.087L144.575 148.109L168.113 161.699L186.105 172.087V220.042ZM166.074 158.827L145.309 146.838V98.883L186.839 74.906L210.483 88.556L228.37 98.883V146.838L210.483 157.165L186.839 170.811L166.074 158.827ZM270.634 220.042L229.104 244.019L187.574 220.042V172.087L197.99 166.073L229.104 148.111L257.893 164.733L270.634 172.089V220.042ZM250.603 158.827L229.838 146.838V98.883L250.603 86.894L271.364 74.911L312.894 98.888V146.843L292.129 158.832L271.364 170.811L250.603 158.827ZM355.164 220.042L313.634 244.019L272.104 220.042V172.087L290.096 161.699L313.634 148.109L355.164 172.087V220.042Z" fill="white"/>
</g>
<path opacity="0.9" d="M212.571 61.7C212.312 62.656 212.071 63.631 211.849 64.618C212.809 64.3519 213.785 64.1179 214.771 63.9079C215.029 62.9539 215.306 62.0189 215.608 61.1079C214.59 61.2939 213.575 61.485 212.571 61.7ZM237.371 49.8069L234.884 47.3199C234.005 47.4829 233.135 47.6519 232.284 47.8389L236.249 51.8039C235.637 52.7598 234.93 53.6516 234.14 54.4659L228.518 48.8439C227.74 49.0946 226.983 49.3773 226.246 49.6919L232.483 55.9299C232.025 56.2771 231.544 56.5935 231.044 56.8769C230.526 57.1649 229.994 57.4259 229.452 57.6699L223.152 51.3699C222.611 51.7612 222.101 52.1942 221.627 52.6649C221.578 52.7149 221.527 52.7709 221.483 52.8219L227.204 58.5429C225.984 58.9575 224.745 59.3103 223.49 59.5999L219.4 55.5099C218.995 56.1608 218.626 56.8328 218.293 57.5229L220.917 60.1469C219.596 60.4029 218.258 60.6339 216.922 60.8689C216.61 61.7629 216.321 62.6866 216.055 63.6399C222.012 62.4719 228.231 61.8629 233.243 59.0759C237.724 56.5759 240.201 51.7019 241.873 46.0309C240.827 46.2449 239.773 46.441 238.732 46.631C238.338 47.7157 237.883 48.7773 237.37 49.8109L237.371 49.8069ZM204.778 64.1969L206.978 66.3969C207.301 66.2399 207.635 66.1029 207.966 65.9619L209.953 67.9489C210.125 67.0789 210.303 66.2166 210.487 65.3619L210.226 65.1009C210.338 65.0639 210.454 65.0329 210.568 65.0009C210.792 63.9829 211.03 62.9799 211.285 62.0009C209.042 62.4953 206.86 63.2316 204.777 64.1969H204.778ZM239.178 45.3629C240.203 45.1779 241.224 44.9829 242.235 44.7629C242.492 43.8089 242.73 42.8369 242.953 41.8539C241.993 42.1199 241.014 42.354 240.027 42.562C239.764 43.522 239.479 44.4519 239.175 45.3629H239.178ZM240.352 41.2959C241.33 41.0769 242.294 40.8329 243.239 40.5549C243.257 40.4729 243.275 40.3919 243.292 40.3099L243.466 40.4839C244.257 40.2449 245.035 39.9839 245.788 39.6839L243.818 37.7139C243.908 37.2519 243.997 36.7899 244.084 36.3279L241.884 34.1279C241.422 36.5439 240.933 38.9619 240.349 41.2959H240.352Z" fill="#F6F6FC"/>
<path opacity="0.9" d="M218.6 49.64C213.966 54.275 212.21 62.257 210.72 70.14L212.92 72.34C214.41 64.456 216.164 56.474 220.8 51.84C221.676 50.957 222.671 50.2007 223.757 49.593C231.439 45.321 241.957 46.171 250.022 42.272L247.822 40.072C239.76 43.972 229.24 43.12 221.557 47.392C220.471 48.0004 219.476 48.757 218.6 49.64Z" fill="#F6F6FC"/>
<path opacity="0.9" d="M281.221 116.119C278.309 116.121 275.508 117.234 273.389 119.231C271.271 121.229 269.994 123.959 269.821 126.866H292.627C292.453 123.958 291.176 121.227 289.056 119.229C286.936 117.232 284.134 116.119 281.221 116.119Z" fill="white"/>
<path opacity="0.9" d="M269.813 128.148C269.962 131.073 271.229 133.83 273.352 135.848C275.475 137.866 278.292 138.992 281.221 138.994C284.15 138.992 286.967 137.866 289.09 135.848C291.212 133.83 292.479 131.073 292.629 128.148H269.813Z" fill="white"/>
<path opacity="0.9" d="M260.164 107.806C258.219 107.811 256.356 108.585 254.98 109.959C253.604 111.334 252.828 113.196 252.821 115.141L252.83 137.326C252.83 138.288 253.021 139.241 253.391 140.13C253.761 141.018 254.303 141.825 254.986 142.503C255.664 143.186 256.471 143.728 257.36 144.098C258.248 144.468 259.201 144.659 260.164 144.66C262.107 144.653 263.968 143.879 265.342 142.505C266.716 141.131 267.491 139.269 267.498 137.326V115.141C267.491 113.198 266.716 111.336 265.342 109.962C263.969 108.588 262.107 107.813 260.164 107.806ZM265.924 126.634H254.395V115.386C254.4 113.858 255.01 112.395 256.091 111.316C257.172 110.237 258.636 109.629 260.164 109.626C261.69 109.631 263.152 110.239 264.231 111.319C265.31 112.398 265.919 113.86 265.924 115.386V126.634Z" fill="white"/>
<path opacity="0.9" d="M144.383 177.074C144.383 177.074 131.831 198.091 131.831 205.026C131.831 208.355 133.154 211.548 135.507 213.902C137.861 216.256 141.054 217.578 144.383 217.579C147.712 217.579 150.905 216.256 153.259 213.902C155.613 211.548 156.936 208.355 156.936 205.026C156.936 198.091 144.383 177.074 144.383 177.074ZM144.383 214.943C141.754 214.94 139.233 213.894 137.374 212.035C135.515 210.176 134.47 207.655 134.467 205.026C134.467 201.182 139.867 190.34 144.383 182.332C148.896 190.34 154.3 201.182 154.3 205.026C154.297 207.655 153.251 210.176 151.392 212.035C149.533 213.894 147.012 214.94 144.383 214.943Z" fill="white"/>
<path opacity="0.9" d="M143.075 211.011C141.861 210.352 140.848 209.377 140.142 208.19C139.436 207.003 139.063 205.647 139.064 204.266C139.064 204.14 139.039 204.015 138.991 203.899C138.943 203.782 138.872 203.677 138.783 203.588C138.694 203.498 138.588 203.428 138.472 203.38C138.355 203.332 138.231 203.307 138.105 203.307C137.979 203.307 137.854 203.332 137.738 203.38C137.622 203.428 137.516 203.499 137.427 203.588C137.338 203.677 137.267 203.783 137.219 203.899C137.171 204.015 137.147 204.14 137.147 204.266C137.147 205.992 137.613 207.686 138.496 209.17C139.379 210.653 140.646 211.87 142.163 212.694C142.304 212.77 142.462 212.809 142.623 212.809C142.795 212.807 142.965 212.76 143.113 212.671C143.261 212.582 143.383 212.456 143.466 212.304C143.584 212.08 143.61 211.819 143.536 211.577C143.463 211.335 143.297 211.131 143.075 211.011Z" fill="white"/>
<path opacity="0.9" d="M205.825 110.619C205.825 110.619 204.412 111.979 200.069 111.979C198.95 111.974 197.833 111.896 196.725 111.748C189.425 110.806 186.309 107.573 186.309 107.573C186.309 107.573 183.193 110.806 175.891 111.748C174.782 111.896 173.665 111.973 172.547 111.979C168.205 111.979 166.791 110.619 166.791 110.619C166.791 110.619 162.571 135.667 186.309 149.432C210.044 135.667 205.825 110.619 205.825 110.619ZM186.308 146.777C182.22 144.356 178.661 141.136 175.843 137.31C173.025 133.484 171.007 129.13 169.908 124.507C169.066 121.034 168.696 117.464 168.808 113.892C170.04 114.146 171.295 114.268 172.553 114.256C173.769 114.25 174.983 114.166 176.188 114.006C179.793 113.624 183.26 112.41 186.315 110.459C189.369 112.41 192.835 113.625 196.439 114.006C197.644 114.166 198.859 114.25 200.075 114.256C201.332 114.269 202.586 114.147 203.817 113.892C204.016 120.437 202.702 136.588 186.308 146.777Z" fill="white"/>
<path opacity="0.9" d="M189.056 119.283H183.642V124.725H178.2V130.139H183.642V135.581H189.056V130.139H194.498V124.725H189.056V119.283Z" fill="white"/>
<path d="M251.049 195.797C250.859 192.658 249.455 189.716 247.134 187.594C244.813 185.473 241.757 184.338 238.614 184.431C238.414 184.431 238.214 184.431 238.014 184.444C233.804 184.616 230.629 187.356 229.04 189.076C227.477 187.334 224.34 184.546 220.14 184.313C219.864 184.298 219.592 184.29 219.322 184.29C216.217 184.211 213.2 185.327 210.895 187.409C208.589 189.49 207.172 192.378 206.935 195.475C206.528 201.482 210.621 206.708 213.735 210.117C218.009 214.584 222.848 218.474 228.129 221.689L228.803 222.089L229.484 221.702C234.811 218.564 239.706 214.745 244.045 210.341C247.2 206.976 251.37 201.811 251.049 195.797ZM242.064 208.484C238.096 212.504 233.646 216.019 228.817 218.949C224.031 215.949 219.633 212.369 215.725 208.291C214.948 207.441 214.104 206.464 213.297 205.391H221.822C221.89 205.392 221.957 205.378 222.018 205.349C222.079 205.321 222.133 205.278 222.175 205.225L222.645 204.605L223.23 207.279C223.255 207.37 223.309 207.45 223.386 207.506C223.462 207.561 223.555 207.589 223.649 207.585C223.743 207.59 223.836 207.562 223.912 207.506C223.988 207.451 224.043 207.371 224.067 207.28L224.622 204.809L225.308 208.459C225.33 208.552 225.385 208.635 225.461 208.693C225.538 208.75 225.632 208.78 225.728 208.776C225.823 208.78 225.916 208.751 225.992 208.694C226.068 208.638 226.123 208.557 226.147 208.465L228.258 198.242L230.003 213.372C230.02 213.471 230.073 213.56 230.151 213.623C230.229 213.687 230.327 213.719 230.428 213.715C230.525 213.72 230.621 213.689 230.698 213.63C230.775 213.571 230.828 213.486 230.849 213.391L232.349 204.378L232.962 208.229C232.981 208.321 233.031 208.404 233.104 208.463C233.177 208.522 233.268 208.555 233.362 208.555C233.454 208.562 233.546 208.539 233.624 208.49C233.702 208.44 233.761 208.366 233.794 208.28L234.846 204.96L235.258 206.837C235.281 206.924 235.332 207.001 235.403 207.056C235.474 207.111 235.561 207.142 235.651 207.143C235.739 207.149 235.827 207.128 235.903 207.084C235.979 207.039 236.04 206.972 236.078 206.892L236.627 205.509L237.112 206.187C237.153 206.241 237.205 206.284 237.265 206.314C237.325 206.344 237.392 206.36 237.459 206.361C237.524 206.364 237.588 206.352 237.648 206.327C237.708 206.302 237.762 206.265 237.806 206.217L238.536 205.391H244.705C243.878 206.467 242.997 207.499 242.064 208.484ZM245.272 204.632H238.334C238.271 204.631 238.209 204.644 238.151 204.669C238.093 204.693 238.042 204.73 237.999 204.776L237.513 205.326L236.882 204.442C236.836 204.381 236.775 204.333 236.705 204.303C236.634 204.273 236.558 204.262 236.482 204.27C236.404 204.274 236.329 204.299 236.265 204.344C236.2 204.388 236.15 204.449 236.118 204.52L235.798 205.326L235.343 203.251C235.319 203.163 235.267 203.086 235.195 203.03C235.122 202.975 235.034 202.945 234.943 202.945H234.93C234.841 202.942 234.754 202.967 234.68 203.017C234.607 203.066 234.551 203.138 234.52 203.221L233.53 206.341L232.789 201.684C232.769 201.588 232.715 201.503 232.638 201.443C232.561 201.383 232.464 201.353 232.367 201.358C232.27 201.353 232.174 201.383 232.097 201.442C232.019 201.501 231.966 201.586 231.945 201.681L230.507 210.292L228.807 195.524C228.791 195.427 228.74 195.339 228.664 195.276C228.588 195.213 228.491 195.181 228.393 195.184C228.296 195.178 228.201 195.205 228.123 195.262C228.044 195.319 227.988 195.401 227.964 195.494L225.754 206.2L225.086 202.645C225.063 202.552 225.009 202.469 224.933 202.411C224.856 202.353 224.762 202.324 224.666 202.328C224.572 202.323 224.479 202.351 224.403 202.407C224.327 202.462 224.272 202.542 224.248 202.633L223.66 205.248L223.29 203.56C223.269 203.48 223.224 203.409 223.161 203.356C223.099 203.302 223.022 203.269 222.94 203.26C222.862 203.248 222.782 203.256 222.708 203.285C222.634 203.313 222.569 203.36 222.519 203.421L221.601 204.633H212.747C210.908 202.022 209.411 198.919 209.633 195.66C209.802 193.24 210.909 190.981 212.717 189.364C214.526 187.747 216.894 186.899 219.318 187C219.537 187 219.76 187.006 219.985 187.018C224.655 187.277 227.873 191.93 227.903 191.974L229.003 193.613L230.132 191.991C230.164 191.944 233.418 187.343 238.12 187.15C239.37 187.049 240.628 187.196 241.821 187.585C243.013 187.973 244.117 188.594 245.068 189.411C246.019 190.229 246.799 191.227 247.361 192.348C247.924 193.469 248.259 194.691 248.346 195.942C248.514 199.103 247.071 202.098 245.272 204.632Z" fill="white"/>
<path d="M335.522 202.711C335.522 202.075 335.397 201.444 335.153 200.856C334.91 200.268 334.553 199.734 334.103 199.284C333.653 198.834 333.119 198.477 332.531 198.234C331.943 197.99 331.312 197.865 330.676 197.865C329.391 197.865 328.158 198.376 327.249 199.284C326.341 200.193 325.83 201.426 325.83 202.711C325.831 203.81 326.205 204.876 326.892 205.735C327.578 206.593 328.536 207.193 329.608 207.435V215.583C329.605 218.418 328.477 221.136 326.472 223.141C324.467 225.145 321.749 226.273 318.914 226.276C316.079 226.273 313.361 225.145 311.356 223.141C309.352 221.136 308.224 218.418 308.221 215.583V212.26H312.935C314.199 212.258 315.418 211.796 316.365 210.959C317.312 210.122 317.922 208.969 318.079 207.715L320.779 185.959C320.869 185.23 320.804 184.49 320.587 183.788C320.369 183.087 320.005 182.439 319.519 181.889C319.033 181.339 318.435 180.898 317.765 180.596C317.096 180.294 316.369 180.138 315.635 180.138H313.682C313.399 180.138 313.127 180.25 312.927 180.451C312.727 180.651 312.614 180.923 312.614 181.206C312.614 181.489 312.726 181.761 312.927 181.962C313.127 182.162 313.399 182.275 313.682 182.275H315.635C316.067 182.275 316.493 182.367 316.887 182.544C317.281 182.722 317.632 182.981 317.918 183.304C318.204 183.627 318.418 184.008 318.545 184.42C318.673 184.833 318.711 185.268 318.658 185.696L315.958 207.452C315.865 208.189 315.507 208.867 314.951 209.358C314.394 209.85 313.678 210.122 312.935 210.123H301.37C300.627 210.122 299.911 209.85 299.354 209.358C298.798 208.867 298.439 208.189 298.347 207.452L295.647 185.696C295.594 185.268 295.632 184.833 295.76 184.42C295.887 184.008 296.101 183.627 296.387 183.304C296.673 182.981 297.024 182.722 297.418 182.544C297.812 182.367 298.238 182.275 298.67 182.275H301.429C301.712 182.275 301.984 182.162 302.184 181.962C302.385 181.761 302.497 181.489 302.497 181.206C302.497 180.923 302.384 180.651 302.184 180.451C301.984 180.25 301.712 180.138 301.429 180.138H298.67C297.935 180.138 297.209 180.294 296.54 180.596C295.87 180.898 295.272 181.339 294.786 181.889C294.3 182.439 293.936 183.087 293.718 183.788C293.501 184.49 293.436 185.23 293.526 185.959L296.226 207.715C296.383 208.969 296.993 210.122 297.94 210.959C298.887 211.796 300.106 212.258 301.37 212.26H306.084V215.583C306.088 218.984 307.442 222.245 309.847 224.649C312.252 227.054 315.513 228.407 318.914 228.411C322.316 228.407 325.577 227.054 327.982 224.649C330.388 222.244 331.741 218.983 331.745 215.581V207.433C332.817 207.191 333.774 206.591 334.46 205.733C335.147 204.875 335.521 203.81 335.522 202.711Z" fill="white"/>
</g>
</svg>
