<svg width="375" height="562" viewBox="0 0 375 562" fill="none" xmlns="http://www.w3.org/2000/svg">
<path d="M-1.06907 0.540629C19.9616 6.5399 36.156 26.6784 37.5106 48.5089C38.9134 71.1757 25.8795 92.9829 27.7651 115.616C29.4351 135.674 42.7647 153.134 58.6711 165.456C74.5746 177.79 93.1756 186.04 110.683 195.974C121.178 201.93 131.497 208.669 139.092 218.048C165.143 250.211 150.801 300.066 169.98 336.731C185.561 366.505 220.142 381.334 253.32 386.653C273.264 389.854 293.596 390.461 313.351 394.654C333.106 398.846 352.423 407.543 365.758 422.705C432.064 498.118 362.455 661.747 362.455 661.747L-135.049 537.402L-1.06907 0.540629Z" fill="#1479FF"/>
</svg>
